<?xml version="1.0" encoding="UTF-8"?>
<svg width="80mm" height="80mm" version="1.1" viewBox="0 0 302.4 302.4" xmlns="http://www.w3.org/2000/svg"><defs><clipPath id="ag"><path transform="translate(-117.1 -30.65)" d="m0 255.1h255.1v-255.1h-255.1z"/></clipPath><clipPath id="v"><path transform="translate(-125.4 -23.6)" d="m0 255.1h255.1v-255.1h-255.1z"/></clipPath><clipPath id="k"><path transform="translate(-138.6 -25.17)" d="m0 255.1h255.1v-255.1h-255.1z"/></clipPath><clipPath id="bw"><path transform="translate(-141.2 -24.03)" d="m0 255.1h255.1v-255.1h-255.1z"/></clipPath><clipPath id="bl"><path transform="translate(-147.6 -23.22)" d="m0 255.1h255.1v-255.1h-255.1z"/></clipPath><clipPath id="ba"><path transform="translate(-153.9 -30.65)" d="m0 255.1h255.1v-255.1h-255.1z"/></clipPath><clipPath id="as"><path transform="translate(-158.5 -30.65)" d="m0 255.1h255.1v-255.1h-255.1z"/></clipPath><clipPath id="ar"><path transform="translate(-165 -25.17)" d="m0 255.1h255.1v-255.1h-255.1z"/></clipPath><clipPath id="aq"><path transform="translate(-167.8 -24.65)" d="m0 255.1h255.1v-255.1h-255.1z"/></clipPath><clipPath id="ap"><path transform="translate(-175.3 -28.2)" d="m0 255.1h255.1v-255.1h-255.1z"/></clipPath><clipPath id="ao"><path transform="translate(-180 -28.2)" d="m0 255.1h255.1v-255.1h-255.1z"/></clipPath><clipPath id="an"><path transform="translate(-191.5 -25.91)" d="m0 255.1h255.1v-255.1h-255.1z"/></clipPath><clipPath id="am"><path transform="translate(-195.1 -23.6)" d="m0 255.1h255.1v-255.1h-255.1z"/></clipPath><clipPath id="al"><path transform="translate(-199.4 -23.22)" d="m0 255.1h255.1v-255.1h-255.1z"/></clipPath><clipPath id="ak"><path transform="translate(-203.2 -28.2)" d="m0 255.1h255.1v-255.1h-255.1z"/></clipPath><clipPath id="aj"><path transform="translate(-212.2 -25.17)" d="m0 255.1h255.1v-255.1h-255.1z"/></clipPath><clipPath id="ai"><path transform="translate(-214.8 -25.14)" d="m0 255.1h255.1v-255.1h-255.1z"/></clipPath><clipPath id="ah"><path transform="translate(-222.1 -30.65)" d="m0 255.1h255.1v-255.1h-255.1z"/></clipPath><clipPath id="af"><path transform="translate(-228.4 -24.03)" d="m0 255.1h255.1v-255.1h-255.1z"/></clipPath><clipPath id="ae"><path d="m0 255.1h255.1v-255.1h-255.1z"/></clipPath><clipPath id="ad"><path transform="translate(-115.2 -105.7)" d="m0 255.1h255.1v-255.1h-255.1z"/></clipPath><clipPath id="ac"><path transform="translate(-146.6 -105.7)" d="m0 255.1h255.1v-255.1h-255.1z"/></clipPath><clipPath id="ab"><path transform="translate(-233 -105.7)" d="m0 255.1h255.1v-255.1h-255.1z"/></clipPath><clipPath id="aa"><path d="m0 255.1h255.1v-255.1h-255.1z"/></clipPath><clipPath id="z"><path d="m0 255.1h255.1v-255.1h-255.1z"/></clipPath><clipPath id="y"><path d="m0 255.1h255.1v-255.1h-255.1z"/></clipPath><clipPath id="x"><path d="m0 255.1h255.1v-255.1h-255.1z"/></clipPath><clipPath id="w"><path d="m0 255.1h255.1v-255.1h-255.1z"/></clipPath><clipPath id="u"><path d="m0 255.1h255.1v-255.1h-255.1z"/></clipPath><clipPath id="t"><path d="m0 255.1h255.1v-255.1h-255.1z"/></clipPath><clipPath id="s"><path d="m0 255.1h255.1v-255.1h-255.1z"/></clipPath><clipPath id="r"><path transform="translate(-75.34 -105.4)" d="m0 255.1h255.1v-255.1h-255.1z"/></clipPath><clipPath id="q"><path d="m0 255.1h255.1v-255.1h-255.1z"/></clipPath><clipPath id="p"><path d="m0 255.1h255.1v-255.1h-255.1z"/></clipPath><clipPath id="o"><path d="m0 255.1h255.1v-255.1h-255.1z"/></clipPath><clipPath id="n"><path d="m0 255.1h255.1v-255.1h-255.1z"/></clipPath><clipPath id="m"><path transform="translate(-59.63 -89.68)" d="m0 255.1h255.1v-255.1h-255.1z"/></clipPath><clipPath id="l"><path d="m0 255.1h255.1v-255.1h-255.1z"/></clipPath><clipPath id="j"><path transform="translate(-43.92 -73.98)" d="m0 255.1h255.1v-255.1h-255.1z"/></clipPath><clipPath id="i"><path d="m0 255.1h255.1v-255.1h-255.1z"/></clipPath><clipPath id="h"><path d="m0 255.1h255.1v-255.1h-255.1z"/></clipPath><clipPath id="g"><path d="m0 255.1h255.1v-255.1h-255.1z"/></clipPath><clipPath id="f"><path d="m0 255.1h255.1v-255.1h-255.1z"/></clipPath><clipPath id="e"><path d="m0 255.1h255.1v-255.1h-255.1z"/></clipPath><clipPath id="d"><path d="m0 255.1h255.1v-255.1h-255.1z"/></clipPath><clipPath id="c"><path d="m0 255.1h255.1v-255.1h-255.1z"/></clipPath><clipPath id="b"><path d="m0 255.1h255.1v-255.1h-255.1z"/></clipPath><clipPath id="a"><path d="m0 255.1h255.1v-255.1h-255.1z"/></clipPath><clipPath id="bv"><path d="m0 255.1h255.1v-255.1h-255.1z"/></clipPath><clipPath id="bu"><path transform="translate(-67.49 -81.83)" d="m0 255.1h255.1v-255.1h-255.1z"/></clipPath><clipPath id="bt"><path d="m0 255.1h255.1v-255.1h-255.1z"/></clipPath><clipPath id="bs"><path d="m0 255.1h255.1v-255.1h-255.1z"/></clipPath><clipPath id="br"><path transform="translate(-51.78 -66.13)" d="m0 255.1h255.1v-255.1h-255.1z"/></clipPath><clipPath id="bq"><path transform="translate(-43.92 -26.86)" d="m0 255.1h255.1v-255.1h-255.1z"/></clipPath><clipPath id="bp"><path d="m0 255.1h255.1v-255.1h-255.1z"/></clipPath><clipPath id="bo"><path transform="translate(-28.22 -42.56)" d="m0 255.1h255.1v-255.1h-255.1z"/></clipPath><clipPath id="bn"><path transform="translate(-36.07 -73.98)" d="m0 255.1h255.1v-255.1h-255.1z"/></clipPath><clipPath id="bm"><path transform="translate(-24.88 -214.4)" d="m0 255.1h255.1v-255.1h-255.1z"/></clipPath><clipPath id="bk"><path transform="translate(-38.04 -235)" d="m0 255.1h255.1v-255.1h-255.1z"/></clipPath><clipPath id="bj"><path transform="translate(-71.4 -221.1)" d="m0 255.1h255.1v-255.1h-255.1z"/></clipPath><clipPath id="bi"><path d="m0 255.1h255.1v-255.1h-255.1z"/></clipPath><clipPath id="bh"><path transform="translate(-31.39 -199.8)" d="m0 255.1h255.1v-255.1h-255.1z"/></clipPath><clipPath id="bg"><path transform="translate(-55.26 -186.4)" d="m0 255.1h255.1v-255.1h-255.1z"/></clipPath><clipPath id="bf"><path transform="translate(-79.59 -193.1)" d="m0 255.1h255.1v-255.1h-255.1z"/></clipPath><clipPath id="be"><path transform="translate(-87.99 -199.8)" d="m0 255.1h255.1v-255.1h-255.1z"/></clipPath><clipPath id="bd"><path transform="translate(-101.8 -199.8)" d="m0 255.1h255.1v-255.1h-255.1z"/></clipPath><clipPath id="bc"><path transform="translate(-135.2 -193.1)" d="m0 255.1h255.1v-255.1h-255.1z"/></clipPath><clipPath id="bb"><path transform="translate(-145.8 -186.4)" d="m0 255.1h255.1v-255.1h-255.1z"/></clipPath><clipPath id="az"><path d="m0 255.1h255.1v-255.1h-255.1z"/></clipPath><clipPath id="ay"><path transform="translate(-30.41 -159.6)" d="m0 255.1h255.1v-255.1h-255.1z"/></clipPath><clipPath id="ax"><path transform="translate(-70.87 -163)" d="m0 255.1h255.1v-255.1h-255.1z"/></clipPath><clipPath id="aw"><path transform="translate(-79.2 -161.5)" d="m0 255.1h255.1v-255.1h-255.1z"/></clipPath><clipPath id="av"><path transform="translate(-100.9 -171.8)" d="m0 255.1h255.1v-255.1h-255.1z"/></clipPath><clipPath id="au"><path transform="translate(-113.4 -159.6)" d="m0 255.1h255.1v-255.1h-255.1z"/></clipPath><clipPath id="at"><path d="m0 255.1h255.1v-255.1h-255.1z"/></clipPath></defs><g><path d="m-18.9 321.3h340.2v-340.2h-340.2z" fill="#dc143c"/><g><path transform="matrix(1.333 0 0 -1.333 137.2 280.4)" d="m0 0h1.511v-3.179h0.216c0.192 0.384 0.66 0.828 1.714 0.828 1.392 0 2.316-1.019 2.316-2.495v-3.55h-1.512v3.43c0 0.901-0.455 1.344-1.271 1.344-0.923 0-1.463-0.648-1.463-1.751v-3.023h-1.511z" clip-path="url(#ag)"/><path transform="matrix(1.333 0 0 -1.333 148.4 289.8)" d="m0 0v3.358h-1.487v1.247h1.487v1.848h1.512v-1.848h2.398v1.848h1.51v-1.848h1.632v-1.247h-1.632v-3.093c0-0.241 0.121-0.361 0.336-0.361h1.152v-1.247h-1.679c-0.792 0-1.319 0.528-1.319 1.343v3.358h-2.398v-3.093c0-0.241 0.119-0.361 0.336-0.361h1.15v-1.247h-1.679c-0.791 0-1.319 0.528-1.319 1.343" clip-path="url(#v)"/><path transform="matrix(1.333 0 0 -1.333 165.9 287.7)" d="m0 0v0.12c0 1.151-0.708 1.764-1.631 1.764-0.924 0-1.631-0.613-1.631-1.764v-0.12c0-1.151 0.696-1.763 1.631-1.763 0.936 0 1.631 0.612 1.631 1.763m-4.749 3.034h1.487v-0.719h0.216c0.275 0.456 0.791 0.887 1.871 0.887 1.427 0 2.686-1.102 2.686-3.046v-0.192c0-1.943-1.247-3.046-2.686-3.046-1.08 0-1.596 0.432-1.847 0.852h-0.216v-3.082h-1.511z" clip-path="url(#k)"/><path transform="matrix(1.333 0 0 -1.333 169.4 289.2)" d="m0 0 1.391 0.359c0.156-0.839 0.719-1.103 1.416-1.103 0.695 0 1.031 0.276 1.031 0.647 0 0.372-0.3 0.54-1.008 0.672l-0.336 0.061c-1.247 0.227-2.278 0.695-2.278 1.87 0 1.176 0.935 1.835 2.35 1.835 1.331 0 2.244-0.648 2.519-1.607l-1.403-0.431c-0.132 0.611-0.54 0.839-1.116 0.839-0.575 0-0.887-0.216-0.887-0.564 0-0.384 0.336-0.54 0.887-0.636l0.336-0.059c1.343-0.24 2.399-0.624 2.399-1.871s-0.984-1.955-2.494-1.955c-1.56 0-2.603 0.695-2.807 1.943" clip-path="url(#bw)"/><path transform="matrix(1.333 0 0 -1.333 177.9 290.3)" d="m0 0c0 0.672 0.492 1.139 1.14 1.139 0.647 0 1.139-0.467 1.139-1.139s-0.492-1.14-1.139-1.14c-0.648 0-1.14 0.468-1.14 1.14m0 4.006c0 0.671 0.492 1.139 1.14 1.139 0.647 0 1.139-0.468 1.139-1.139 0-0.672-0.492-1.14-1.139-1.14-0.648 0-1.14 0.468-1.14 1.14" clip-path="url(#bl)"/><path transform="matrix(1.333 0 0 -1.333 186.3 280.4)" d="m0 0h1.512l-3.527-10.79h-1.51z" clip-path="url(#ba)"/><path transform="matrix(1.333 0 0 -1.333 192.5 280.4)" d="m0 0h1.512l-3.527-10.79h-1.51z" clip-path="url(#as)"/><path transform="matrix(1.333 0 0 -1.333 201.1 287.7)" d="m0 0v0.12c0 1.115-0.672 1.739-1.607 1.739-0.936 0-1.608-0.624-1.608-1.739v-0.12c0-1.115 0.684-1.738 1.608-1.738 0.923 0 1.607 0.623 1.607 1.738m-4.726-0.036v0.192c0 1.919 1.343 3.046 3.119 3.046 1.775 0 3.118-1.127 3.118-3.046v-0.192c0-1.918-1.343-3.046-3.118-3.046-1.776 0-3.119 1.128-3.119 3.046" clip-path="url(#ar)"/><path transform="matrix(1.333 0 0 -1.333 204.9 288.4)" d="m0 0v3.55h1.511v-3.43c0-0.899 0.456-1.343 1.271-1.343 0.923 0 1.463 0.648 1.463 1.751v3.022h1.512v-5.948h-1.487v0.779h-0.216c-0.193-0.407-0.672-0.875-1.74-0.875-1.391 0-2.314 1.019-2.314 2.494" clip-path="url(#aq)"/><path transform="matrix(1.333 0 0 -1.333 214.8 283.7)" d="m0 0h1.487v-0.671h0.216c0.168 0.48 0.6 0.695 1.151 0.695h0.719v-1.342h-0.743c-0.767 0-1.319-0.409-1.319-1.248v-3.382h-1.511z" clip-path="url(#ap)"/><path transform="matrix(1.333 0 0 -1.333 221.1 283.7)" d="m0 0h1.487v-0.779h0.216c0.192 0.408 0.671 0.876 1.738 0.876 1.392 0 2.316-1.02 2.316-2.495v-3.55h-1.512v3.429c0 0.901-0.455 1.344-1.271 1.344-0.923 0-1.463-0.647-1.463-1.751v-3.022h-1.511z" clip-path="url(#ao)"/><path transform="matrix(1.333 0 0 -1.333 236.4 286.7)" d="m0 0c-0.071 0.684-0.587 1.14-1.367 1.14-0.816 0-1.307-0.456-1.415-1.14zm-4.329-0.756v0.144c0 1.871 1.199 3.07 2.975 3.07 1.75 0 2.889-1.247 2.889-3.07v-0.516h-4.329c0.036-0.815 0.672-1.379 1.511-1.379 0.84 0 1.187 0.432 1.391 0.888l1.236-0.648c-0.336-0.635-1.044-1.559-2.675-1.559-1.787 0-2.998 1.199-2.998 3.07" clip-path="url(#an)"/><path transform="matrix(1.333 0 0 -1.333 241.2 289.8)" d="m0 0v3.358h-1.487v1.247h1.487v1.848h1.512v-1.848h1.631v-1.247h-1.631v-3.093c0-0.241 0.119-0.361 0.336-0.361h1.15v-1.247h-1.679c-0.791 0-1.319 0.528-1.319 1.343" clip-path="url(#am)"/><path transform="matrix(1.333 0 0 -1.333 247 290.3)" d="m0 0c0 0.672 0.492 1.139 1.14 1.139 0.647 0 1.139-0.467 1.139-1.139s-0.492-1.14-1.139-1.14c-0.648 0-1.14 0.468-1.14 1.14" clip-path="url(#al)"/><path transform="matrix(1.333 0 0 -1.333 252 283.7)" d="m0 0h1.487v-0.671h0.216c0.168 0.48 0.6 0.695 1.151 0.695h0.719v-1.342h-0.743c-0.767 0-1.319-0.409-1.319-1.248v-3.382h-1.511z" clip-path="url(#ak)"/><path transform="matrix(1.333 0 0 -1.333 264 287.7)" d="m0 0v0.12c0 1.115-0.672 1.739-1.607 1.739-0.936 0-1.608-0.624-1.608-1.739v-0.12c0-1.115 0.684-1.738 1.608-1.738 0.923 0 1.607 0.623 1.607 1.738m-4.726-0.036v0.192c0 1.919 1.343 3.046 3.119 3.046 1.775 0 3.118-1.127 3.118-3.046v-0.192c0-1.918-1.343-3.046-3.118-3.046-1.776 0-3.119 1.128-3.119 3.046" clip-path="url(#aj)"/><path transform="matrix(1.333 0 0 -1.333 267.5 287.7)" d="m0 0v0.168c0 1.942 1.355 3.058 3.082 3.058 1.703 0 2.699-0.984 2.95-2.303l-1.463-0.312c-0.095 0.72-0.54 1.272-1.451 1.272s-1.607-0.612-1.607-1.739v-0.121c0-1.127 0.696-1.738 1.607-1.738s1.356 0.516 1.487 1.283l1.463-0.348c-0.311-1.283-1.283-2.279-2.986-2.279-1.727 0-3.082 1.116-3.082 3.059" clip-path="url(#ai)"/><path transform="matrix(1.333 0 0 -1.333 277.2 280.4)" d="m0 0h1.511v-4.642h0.216l1.966 2.195h1.967l-2.746-2.878 2.843-3.071h-1.944l-2.086 2.363h-0.216v-2.363h-1.511z" clip-path="url(#ah)"/><path transform="matrix(1.333 0 0 -1.333 285.6 289.2)" d="m0 0 1.391 0.359c0.156-0.839 0.719-1.103 1.416-1.103 0.695 0 1.031 0.276 1.031 0.647 0 0.372-0.3 0.54-1.008 0.672l-0.336 0.061c-1.247 0.227-2.278 0.695-2.278 1.87 0 1.176 0.935 1.835 2.35 1.835 1.331 0 2.244-0.648 2.519-1.607l-1.403-0.431c-0.132 0.611-0.539 0.839-1.116 0.839-0.576 0-0.887-0.216-0.887-0.564 0-0.384 0.336-0.54 0.887-0.636l0.336-0.059c1.343-0.24 2.399-0.624 2.399-1.871s-0.984-1.955-2.494-1.955c-1.56 0-2.603 0.695-2.807 1.943" clip-path="url(#af)"/></g><path transform="matrix(1.333 0 0 -1.333 -19.23 321)" d="m141.1 79.65-13.26-0.1463v13.24l13.84-1.586z" clip-path="url(#ae)" fill="#fff"/><path transform="matrix(1.333 0 0 -1.333 134.3 180.1)" d="m-3.803 1.316 0.2926-19.51 16.15 0.1463 5e-6 20.09z" clip-path="url(#ad)" fill="#00fa9a"/><path transform="matrix(1.333 0 0 -1.333 176.2 180.1)" d="m-3.657 0.4388 1.316-18.63h14.44l-0.7314 19.51z" clip-path="url(#ac)" fill="#00fa9a"/><path transform="matrix(1.333 0 0 -1.333 291.4 180.1)" d="m0 0h-7.857v7.857h-7.849v7.849h-7.857v7.857h7.857v7.85h7.849v-7.85h-7.849v-7.857h7.849v-7.849h7.857zm-78.53-15.71h-7.857v15.71h7.857zm-15.71-7.85h-7.85v7.85h7.85zm-15.71 7.85h-7.849v15.71h7.849zm125.7 94.24v7.85h-7.856v7.856h-7.85v7.85h-7.857v39.27h-7.849v7.849h-31.41v-7.849h-7.857v-15.71h-7.849v-23.56h23.56v15.71h15.71v-15.71h-7.85v-7.85h-7.857v-7.856h-7.849v-7.85h-7.857v-7.857h-7.849v-15.71h-7.857v-15.71h7.857v-15.71h-7.857v15.71h-7.85v-7.857h-7.857v-7.85h-15.71v7.85h-7.857v7.857h-7.849v-23.56h-7.857v-7.849h-7.85v-23.56h7.85v-7.85h7.857v-7.857h7.849v-15.71h-7.849v-7.85h15.71v7.85h7.85v7.857h23.56v-7.857h-15.71v-7.85h31.41v7.85h7.857v7.857h7.849v7.849h7.857v15.71h7.85v7.856h7.857v-7.856h-7.857v-7.85h23.56v7.85h7.85v7.856h7.856v15.71h7.85v70.68z" clip-path="url(#ab)"/><g fill="#4b0082"><path transform="matrix(1.333 0 0 -1.333 -18.9 321.3)" d="m91.04 66.13h-7.85v-7.857h7.85z" clip-path="url(#aa)"/><path transform="matrix(1.333 0 0 -1.333 -18.9 321.3)" d="m91.04 81.83h-7.85v-7.857h7.85z" clip-path="url(#z)"/><path transform="matrix(1.333 0 0 -1.333 -18.9 321.3)" d="m75.34 50.42h7.857v7.85h-7.857z" clip-path="url(#y)"/><path transform="matrix(1.333 0 0 -1.333 -18.9 321.3)" d="m75.34 66.13h7.857v7.85h-7.857z" clip-path="url(#x)"/><path transform="matrix(1.333 0 0 -1.333 -18.9 321.3)" d="m83.19 89.68h-7.857v-7.85h7.857z" clip-path="url(#w)"/><path transform="matrix(1.333 0 0 -1.333 -18.9 321.3)" d="m67.49 42.56h7.85v7.857h-7.85z" clip-path="url(#u)"/><path transform="matrix(1.333 0 0 -1.333 -18.9 321.3)" d="m67.49 58.27h7.85v7.857h-7.85z" clip-path="url(#t)"/><path transform="matrix(1.333 0 0 -1.333 -18.9 321.3)" d="m75.34 81.83h-7.85v-7.857h7.85z" clip-path="url(#s)"/><path transform="matrix(1.333 0 0 -1.333 81.55 180.7)" d="m0 0h-7.85v-15.71h7.85v7.856z" clip-path="url(#r)"/><path transform="matrix(1.333 0 0 -1.333 -18.9 321.3)" d="m59.63 50.42h7.857v7.85h-7.857z" clip-path="url(#q)"/><path transform="matrix(1.333 0 0 -1.333 -18.9 321.3)" d="m67.49 73.98h-7.857v-7.85h7.857z" clip-path="url(#p)"/><path transform="matrix(1.333 0 0 -1.333 -18.9 321.3)" d="m51.78 42.56h7.85v7.857h-7.85z" clip-path="url(#o)"/><path transform="matrix(1.333 0 0 -1.333 -18.9 321.3)" d="m59.63 66.13h-7.85v-7.857h7.85z" clip-path="url(#n)"/><path transform="matrix(1.333 0 0 -1.333 60.61 201.7)" d="m0 0v15.71h-7.85v-31.41h7.85v7.856z" clip-path="url(#m)"/><path transform="matrix(1.333 0 0 -1.333 -18.9 321.3)" d="m43.92 50.42h7.857v7.85h-7.857z" clip-path="url(#l)"/><path transform="matrix(1.333 0 0 -1.333 39.67 222.6)" d="m0 0v23.56h-7.85v-39.27h7.85v7.856z" clip-path="url(#j)"/></g><g fill="#00fa9a"><path transform="matrix(1.333 0 0 -1.333 -18.9 321.3)" d="m91.04 42.56h-7.85v-7.85h7.85z" clip-path="url(#i)"/><path transform="matrix(1.333 0 0 -1.333 -18.9 321.3)" d="m91.04 73.98h-7.85v-7.85h7.85z" clip-path="url(#h)"/><path transform="matrix(1.333 0 0 -1.333 -18.9 321.3)" d="m91.04 89.68h-7.85v-7.85h7.85z" clip-path="url(#g)"/><path transform="matrix(1.333 0 0 -1.333 -18.9 321.3)" d="m75.34 58.27h7.857v7.857h-7.857z" clip-path="url(#f)"/><path transform="matrix(1.333 0 0 -1.333 -18.9 321.3)" d="m75.34 73.98h7.857v7.857h-7.857z" clip-path="url(#e)"/><path transform="matrix(1.333 0 0 -1.333 -18.9 321.3)" d="m83.19 97.54h-7.857v-7.857h7.857z" clip-path="url(#d)"/><path transform="matrix(1.333 0 0 -1.333 -18.9 321.3)" d="m67.49 50.42h7.85v7.85h-7.85z" clip-path="url(#c)"/><path transform="matrix(1.333 0 0 -1.333 -18.9 321.3)" d="m67.49 66.13h7.85v7.85h-7.85z" clip-path="url(#b)"/><path transform="matrix(1.333 0 0 -1.333 -18.9 321.3)" d="m59.63 42.56h7.857v7.857h-7.857z" clip-path="url(#a)"/><path transform="matrix(1.333 0 0 -1.333 -18.9 321.3)" d="m59.63 58.27h7.857v7.857h-7.857z" clip-path="url(#bv)"/><path transform="matrix(1.333 0 0 -1.333 71.08 212.1)" d="m0 0h7.85v7.85h-7.85v15.71h-7.857v-31.41h7.857z" clip-path="url(#bu)"/><path transform="matrix(1.333 0 0 -1.333 -18.9 321.3)" d="m51.78 50.42h7.85v7.85h-7.85z" clip-path="url(#bt)"/><path transform="matrix(1.333 0 0 -1.333 -18.9 321.3)" d="m43.92 42.56h7.857v7.857h-7.857z" clip-path="url(#bs)"/><path transform="matrix(1.333 0 0 -1.333 50.14 233.1)" d="m0 0h7.85v7.85h-7.85v31.41h-7.857v-47.12h7.857z" clip-path="url(#br)"/><path transform="matrix(1.333 0 0 -1.333 39.67 285.5)" d="m39.27 0v7.857h-47.12v-7.857z" clip-path="url(#bq)"/><path transform="matrix(1.333 0 0 -1.333 -18.9 321.3)" d="m36.07 50.42h7.85v7.85h-7.85z" clip-path="url(#bp)"/><path transform="matrix(1.333 0 0 -1.333 18.72 264.5)" d="m0-7.85h7.857v15.71h-7.857z" clip-path="url(#bo)"/><path transform="matrix(1.333 0 0 -1.333 29.2 222.6)" d="m0 15.71h-7.857v-31.41h7.857z" clip-path="url(#bn)"/></g><g><path transform="matrix(1.333 0 0 -1.333 14.28 35.43)" d="m0 0v9.801h-4.341v3.64h4.341v5.39h4.41v-5.39h4.761v-3.64h-4.761v-9.031c0-0.701 0.35-1.05 0.981-1.05h3.359v-3.641h-4.9c-2.31 0-3.85 1.54-3.85 3.921" clip-path="url(#bm)"/><path transform="matrix(1.333 0 0 -1.333 31.83 7.986)" d="m0 0h4.41v-9.276h0.631c0.56 1.12 1.925 2.415 5.005 2.415 4.06 0 6.756-2.975 6.756-7.281v-10.36h-4.41v10.01c0 2.626-1.33 3.921-3.711 3.921-2.696 0-4.271-1.891-4.271-5.111v-8.821h-4.41z" clip-path="url(#bk)"/><path transform="matrix(1.333 0 0 -1.333 76.3 26.42)" d="m0 0c-0.21 1.995-1.715 3.325-3.99 3.325-2.38 0-3.816-1.33-4.13-3.325zm-12.64-2.205v0.42c0 5.461 3.5 8.961 8.681 8.961 5.11 0 8.435-3.64 8.435-8.961v-1.505h-12.64c0.104-2.38 1.96-4.025 4.41-4.025s3.466 1.259 4.06 2.589l3.606-1.889c-0.981-1.856-3.045-4.551-7.806-4.551-5.216 0-8.751 3.501-8.751 8.961" clip-path="url(#bj)"/><path transform="matrix(1.333 0 0 -1.333 -18.9 321.3)" d="m22.08 199.8h4.41v-17.36h-4.41zm-0.63 4.83c0 1.68 1.225 2.8 2.835 2.8s2.836-1.12 2.836-2.8c0-1.681-1.226-2.801-2.836-2.801s-2.835 1.12-2.835 2.801" clip-path="url(#bi)"/><path transform="matrix(1.333 0 0 -1.333 22.96 54.84)" d="m0 0h4.341v-2.275h0.63c0.559 1.189 1.96 2.554 5.075 2.554 4.06 0 6.756-2.974 6.756-7.28v-10.36h-4.41v10.01c0 2.626-1.33 3.921-3.711 3.921-2.696 0-4.271-1.89-4.271-5.11v-8.821h-4.41z" clip-path="url(#bh)"/><path transform="matrix(1.333 0 0 -1.333 54.79 72.76)" d="m0 0v9.801h-4.341v3.64h4.341v5.39h4.41v-5.39h4.761v-3.64h-4.761v-9.031c0-0.701 0.35-1.05 0.98-1.05h3.361v-3.641h-4.901c-2.31 0-3.85 1.54-3.85 3.921" clip-path="url(#bg)"/><path transform="matrix(1.333 0 0 -1.333 87.22 63.76)" d="m0 0c-0.21 1.995-1.715 3.325-3.99 3.325-2.38 0-3.816-1.33-4.13-3.325zm-12.64-2.205v0.42c0 5.461 3.5 8.961 8.681 8.961 5.11 0 8.435-3.64 8.435-8.961v-1.505h-12.64c0.104-2.38 1.96-4.025 4.41-4.025s3.466 1.259 4.06 2.589l3.606-1.889c-0.981-1.856-3.046-4.551-7.806-4.551-5.216 0-8.751 3.501-8.751 8.961" clip-path="url(#bf)"/><path transform="matrix(1.333 0 0 -1.333 98.42 54.84)" d="m0 0h4.341v-1.961h0.63c0.49 1.4 1.75 2.03 3.36 2.03h2.1v-3.92h-2.17c-2.24 0-3.851-1.19-3.851-3.64v-9.871h-4.41z" clip-path="url(#be)"/><path transform="matrix(1.333 0 0 -1.333 116.9 54.84)" d="m0 0h4.341v-2.275h0.63c0.559 1.189 1.96 2.554 5.075 2.554 4.06 0 6.756-2.974 6.756-7.28v-10.36h-4.41v10.01c0 2.626-1.33 3.921-3.711 3.921-2.696 0-4.271-1.89-4.271-5.11v-8.821h-4.41z" clip-path="url(#bd)"/><path transform="matrix(1.333 0 0 -1.333 161.4 63.76)" d="m0 0c-0.209 1.995-1.715 3.325-3.99 3.325-2.379 0-3.815-1.33-4.13-3.325zm-12.64-2.205v0.42c0 5.461 3.5 8.961 8.68 8.961 5.111 0 8.435-3.64 8.435-8.961v-1.505h-12.64c0.105-2.38 1.96-4.025 4.411-4.025 2.449 0 3.465 1.259 4.06 2.589l3.606-1.889c-0.981-1.856-3.047-4.551-7.807-4.551-5.215 0-8.75 3.501-8.75 8.961" clip-path="url(#bc)"/><path transform="matrix(1.333 0 0 -1.333 175.6 72.76)" d="m0 0v9.801h-4.342v3.64h4.342v5.39h4.41v-5.39h4.76v-3.64h-4.76v-9.031c0-0.701 0.35-1.05 0.979-1.05h3.361v-3.641h-4.9c-2.311 0-3.85 1.54-3.85 3.921" clip-path="url(#bb)"/><path transform="matrix(1.333 0 0 -1.333 -18.9 321.3)" d="m22.08 171.8h4.41v-17.36h-4.41zm-0.63 4.83c0 1.68 1.225 2.8 2.835 2.8s2.836-1.12 2.836-2.8c0-1.681-1.226-2.801-2.836-2.801s-2.835 1.12-2.835 2.801" clip-path="url(#az)"/><path transform="matrix(1.333 0 0 -1.333 21.65 108.4)" d="m0 0 4.061 1.05c0.455-2.45 2.1-3.22 4.13-3.22 2.031 0 3.01 0.805 3.01 1.89s-0.875 1.575-2.939 1.96l-0.981 0.175c-3.64 0.666-6.65 2.031-6.65 5.46 0 3.431 2.729 5.356 6.86 5.356 3.886 0 6.546-1.89 7.351-4.691l-4.096-1.259c-0.385 1.785-1.575 2.45-3.255 2.45-1.679 0-2.59-0.63-2.59-1.646 0-1.12 0.98-1.575 2.59-1.854l0.981-0.176c3.92-0.7 7-1.82 7-5.46s-2.87-5.706-7.281-5.706c-4.55 0-7.595 2.03-8.191 5.671" clip-path="url(#ay)"/></g><g fill="#fff"><path transform="matrix(1.333 0 0 -1.333 75.6 104)" d="m0 0v0.35c0 3.255-1.96 5.076-4.69 5.076-2.731 0-4.691-1.821-4.691-5.076v-0.35c0-3.255 1.995-5.075 4.691-5.075 2.695 0 4.69 1.82 4.69 5.075m-13.79-0.104v0.559c0 5.601 3.92 8.891 9.101 8.891 5.18 0 9.101-3.29 9.101-8.891v-0.559c0-5.602-3.921-8.892-9.101-8.892-5.181 0-9.101 3.29-9.101 8.892" clip-path="url(#ax)"/><path transform="matrix(1.333 0 0 -1.333 86.71 106)" d="m0 0v10.36h4.41v-10.01c0-2.625 1.33-3.92 3.71-3.92 2.695 0 4.271 1.889 4.271 5.11v8.821h4.411v-17.36h-4.341v2.275h-0.63c-0.56-1.19-1.96-2.555-5.075-2.555-4.061 0-6.756 2.975-6.756 7.281" clip-path="url(#aw)"/><path transform="matrix(1.333 0 0 -1.333 115.6 92.17)" d="m0 0h4.341v-1.961h0.63c0.49 1.4 1.75 2.03 3.36 2.03h2.101v-3.92h-2.171c-2.24 0-3.851-1.19-3.851-3.64v-9.871h-4.41z" clip-path="url(#av)"/><path transform="matrix(1.333 0 0 -1.333 132.3 108.4)" d="m0 0 4.061 1.05c0.455-2.45 2.1-3.22 4.13-3.22 2.031 0 3.01 0.805 3.01 1.89s-0.875 1.575-2.939 1.96l-0.981 0.175c-3.64 0.666-6.65 2.031-6.65 5.46 0 3.431 2.729 5.356 6.86 5.356 3.886 0 6.546-1.89 7.35-4.691l-4.095-1.259c-0.385 1.785-1.574 2.45-3.255 2.45-1.68 0-2.59-0.63-2.59-1.646 0-1.12 0.98-1.575 2.59-1.854l0.981-0.176c3.92-0.7 7-1.82 7-5.46s-2.87-5.706-7.281-5.706c-4.55 0-7.595 2.03-8.191 5.671" clip-path="url(#au)"/><path transform="matrix(1.333 0 0 -1.333 -18.9 321.3)" d="m133.2 179h4.48v-16.45h-4.48zm-1.084-21.67c0 1.961 1.434 3.326 3.325 3.326 1.89 0 3.326-1.365 3.326-3.326 0-1.96-1.436-3.326-3.326-3.326-1.891 0-3.325 1.366-3.325 3.326" clip-path="url(#at)"/></g></g></svg>
