<?xml version="1.0" encoding="UTF-8"?>
<svg width="85mm" height="55mm" version="1.1" viewBox="0 0 85 55" xmlns="http://www.w3.org/2000/svg"><g stroke-width="0"><rect width="85" height="55" fill="#00fa9a"/><g font-family="FT88" stroke-dashoffset="40.8" stroke-linecap="square"><g transform="matrix(.927 0 0 .927 3.04 2.01)" stroke="#000" stroke-opacity=".75" text-anchor="middle"><path transform="rotate(-7)" d="m1.54 3.83v1.25h2.5v1.25h1.25v-1.25h2.5v-1.25zm0 8.75h1.25v-2.5h-1.25zm1.25-2.5h1.25v-3.75h-1.25zm6.98-5v5h1.25v-1.25h1.25v-1.25h-1.25v-2.5zm-1.25 7.5h1.25v-2.5h-1.25zm2.5-7.5h1.25v-1.25h-1.25zm1.25 7.5h1.25v-2.5h-1.25zm0-5h1.25v-1.25h-1.25zm1.25 2.5h1.25v-2.5h-1.25zm3.23 2.5h2.5v-1.25h-2.5zm-1.25-1.25h1.25v-1.25h3.75v-1.25h-2.5v-1.25h-1.25v1.25h-1.25zm2.5-3.75h2.5v-1.25h-2.5zm2.5 1.25h1.25v-1.25h-1.25z" aria-label="The"/><path transform="rotate(-7)" d="m2.02 25v-3.72h-1.86v3.72h-1.86v1.86h5.58v-1.86zm0-3.72h1.86v-3.72h-1.86zm0-5.58h1.86v1.86h1.86v-1.86h1.86v-1.86h-5.58zm10.4 7.44v-1.86h1.86v-1.86h-1.86v-1.86h-1.86v5.58zm-3.72 3.72h1.86v-3.72h-1.86zm5.58 0h1.86v-3.72h-1.86zm0-7.44h1.86v-1.86h-1.86zm1.86 3.72h1.86v-3.72h-1.86zm4.81-5.58v1.86h1.86v1.86h1.86v-1.86h3.72v-1.86h-3.72v-1.86h-1.86v1.86zm0 9.3h3.72v-1.86h-1.86v-3.72h-1.86zm3.72-1.86h1.86v-1.86h-1.86zm0-9.3h1.86v-1.86h-1.86zm6.67 11.2h3.72v-1.86h-3.72zm-1.86-1.86h1.86v-1.86h5.58v-1.86h-3.72v-1.86h-1.86v1.86h-1.86zm3.72-5.58h3.72v-1.86h-3.72zm3.72 1.86h1.86v-1.86h-1.86zm4.81 1.86h-1.86v3.72h1.86zm0 0h1.86v-1.86h1.86v-1.86h-1.86v-1.86h-1.86zm3.72-3.72h1.86v-1.86h-1.86zm1.86 1.86h1.86v-1.86h-1.86zm6.67 1.86v-1.86h1.86v-1.86h-1.86v-1.86h-1.86v5.58zm-3.72 3.72h1.86v-3.72h-1.86zm5.58 0h1.86v-3.72h-1.86zm0-7.44h1.86v-1.86h-1.86zm1.86 3.72h1.86v-3.72h-1.86zm4.81 3.72h3.72v-1.86h-3.72zm-1.86-1.86h1.86v-1.86h5.58v-1.86h-3.72v-1.86h-1.86v1.86h-1.86zm3.72-5.58h3.72v-1.86h-3.72zm3.72 1.86h1.86v-1.86h-1.86zm4.81-3.72v1.86h1.86v1.86h1.86v-1.86h3.72v-1.86h-3.72v-1.86h-1.86v1.86zm0 9.3h3.72v-1.86h-1.86v-3.72h-1.86zm3.72-1.86h1.86v-1.86h-1.86zm0-9.3h1.86v-1.86h-1.86z" aria-label="Internet"/><g><path d="m2 35.2v14.6h2.92v2.92h8.77v-2.92h2.92v-14.6h-2.92v-2.92h-8.77v2.92zm5.85 14.6v-14.6h2.92v14.6zm23.4 2.92h2.92v-14.6h-5.85v11.7h2.92zm-11.7-2.92h2.92v2.92h5.85v-2.92h-2.92v-11.7h-5.85zm23.4-8.77h-2.92v-2.92h-2.92v14.6h5.85zm0 0h2.92v2.92h5.85v-2.92h-2.92v-2.92h-5.85zm8.77 8.77v2.92h14.6v-2.92h2.92v-2.92h-2.92v-2.92h-5.85v-2.92h5.85v-2.92h-11.7v2.92h-2.92v2.92h2.92v2.92h5.85v2.92z" fill="#dc143c" aria-label="Ours"/><path transform="rotate(-16.9)" d="m57.1 65.4h6.65v-16.6h-6.65zm0 6.65h6.65v-3.33h-6.65z" aria-label="!"/><path d="m31.8 5.47v-1.11h0.37v1.11zm-0.741 0h0.37v0.37h1.11v-0.37h0.37v-1.11h-0.37v-0.37h-1.11v0.37h-0.37zm4.07 0.37h0.37v-1.85h-0.741v1.48h0.37zm-1.48-0.37h0.37v0.37h0.741v-0.37h-0.37v-1.48h-0.741zm3.33-1.11h-0.37v-0.37h-0.37v1.85h0.741zm0 0h0.37v0.37h0.741v-0.37h-0.37v-0.37h-0.741zm3.33-0.37h-0.741v0.37h0.37v1.48h0.741v-1.48h-0.37zm-1.48 1.85h0.741v-1.48h-0.37v-0.37h-0.37zm3.33-0.741h1.11v-0.741h-0.37v-0.37h-1.11v0.37h-0.37v1.11h0.37v0.37h1.11v-0.37h-0.741zm0-0.37v-0.37h0.37v0.37zm2.59-0.37h0.741v-0.37h-0.741v-0.741h-0.741v2.22h0.37v0.37h1.11v-0.37h-0.741zm2.22 0.741v0.741h0.741v-0.741c-0.267-0.0037-0.637 0-0.741 0zm2.96-0.741h-0.37v-0.37h-0.37v1.85h0.741zm0 0h0.37v0.37h0.741v-0.37h-0.37v-0.37h-0.741zm2.59 1.11v-1.11h0.37v1.11zm-0.741 0h0.37v0.37h1.11v-0.37h0.37v-1.11h-0.37v-0.37h-1.11v0.37h-0.37zm3.33 0v-1.11h0.37v0.37h0.741v-0.37h-0.37v-0.37h-1.11v0.37h-0.37v1.11h0.37v0.37h1.11v-0.37h0.37v-0.37h-0.741v0.37zm1.85-2.22v2.59h0.741v-0.741h0.37v-0.37h-0.37v-1.48zm1.11 2.59h0.741v-0.37h-0.37v-0.37h-0.37zm0-1.11h0.37v-0.37h0.37v-0.37h-0.741zm1.11 0.741v0.37h1.85v-0.37h0.37v-0.37h-0.37v-0.37h-0.741v-0.37h0.741v-0.37h-1.48v0.37h-0.37v0.37h0.37v0.37h0.741v0.37z" fill="#4b0082" style="paint-order:fill markers stroke" aria-label="ournet.rocks"/></g></g><text transform="matrix(1 -.07 .0693 .992 0 0)" x="40" y="35" fill="#000000" font-size="8.71px" xml:space="preserve"><tspan x="36.5" y="35" fill="#000000" font-family="FT88, sans-serif" font-style="italic" text-align="center" text-anchor="middle">is</tspan></text></g></g></svg>
