<?xml version="1.0" encoding="UTF-8"?>
<svg width="420mm" height="297mm" version="1.1" viewBox="0 0 420 297" xmlns="http://www.w3.org/2000/svg"><g transform="scale(.352)" fill="#00fa9a"><path d="m0 0h1192v842h-1192z"/></g><g transform="matrix(.476 0 0 .476 -72.3 -52.5)" fill="#dc143c"><path d="m419 401h46.6v46.6h-46.6z"/><path d="m910 582h30.3v30.3h-30.3z"/><path d="m885 192h30.3v30.3h-30.3z"/><path d="m673 480h17.4v17.4h-17.4z"/><path d="m661 356h17.4v17.4h-17.4z"/><path d="m212 391h17.4v17.4h-17.4z"/><path d="m422 219h18.2v18.2h-18.2z"/><path d="m567 616h17.5v17.5h-17.5z"/><path d="m366 644h17.4v17.4h-17.4z"/><path d="m216 210h17.4v17.4h-17.4z"/><path d="m949 478h9.5v9.5h-9.5z"/><path d="m753 211h17.4v17.4h-17.4z"/><path d="m753 618h15.8v15.8h-15.8z"/><path d="m946 360h15v15h-15z"/><path d="m571 168h15.8v15.8h-15.8z"/><path d="m222 626h15.8v15.8h-15.8z"/><path d="m288 163h8.6v8.6h-8.6z"/><path d="m836 673h15.8v15.8h-15.8z"/><path d="m840 555h15.8v15.8h-15.8z"/></g><g transform="matrix(.476 0 0 .476 -72.3 -52.5)" fill="none" stroke="#dc143c"><path class="cls-1" d="m443 424-218-207 67.2-49.3 139 60 149-52.1 182 44.5-91.9 145z"/><path class="cls-1" d="m224 405 218 19.1 133 201-202 27.8z"/><path class="cls-1" d="m439 424-64.8 228-144-16.2-9.4-236 4.25-183"/><path class="cls-1" d="m431 228 11.7 196 137-248 90.1 190 12.4 124-237-61.2"/><path class="cls-1" d="m682 489 243 108"/><path class="cls-1" d="m761 626 193-144v-114l-54-161-139 12.8"/><path class="cls-1" d="m669 365 178 197"/><path class="cls-1" d="m669 365 284 2.91"/><path class="cls-1" d="m669 365 231-158"/><path d="m576 624 106-136 79.5 137 82.2 54.4 81.4-83.9 29.1-115" fill="none" stroke-dashoffset="40.8" stroke-linecap="square" style="paint-order:fill markers stroke"/></g><g transform="matrix(.476 0 0 .476 -72.3 -52.5)" fill="#4b0082"><path class="cls-3" d="m801 490h16.4v32.8h32.8v16.4h-32.8v49.1h-16.4v-98.2zm16.4 98.2h32.8v16.4h-32.8z"/><path class="cls-3" d="m711 483h16.4v16.4h49.1v-16.4h16.4v32.8h-65.5v16.4h-16.4v-49.1zm65.5 0h-49.1v-16.4h49.1zm-49.1 49.1h49.1v16.4h-49.1z"/><path class="cls-3" d="m654 548h16.4v16.4h-16.4v49.1h-16.4v-81.9h16.4v16.4zm16.4-16.4h32.8v16.4h-32.8zm32.8 16.4h16.4v65.5h-16.4z"/><path class="cls-3" d="m588 499h16.4v16.4h-16.4v49.1h-16.4v-81.9h16.4v16.4zm16.4-16.4h32.8v16.4h-32.8zm32.8 16.4h16.4v16.4h-16.4z"/><path class="cls-3" d="m477 487h16.4v16.4h49.1v-16.4h16.4v32.8h-65.5v16.4h-16.4v-49.1zm65.5 0h-49.1v-16.4h49.1zm-49.1 49.1h49.1v16.4h-49.1z"/><path class="cls-3" d="m437 512h16.4v32.8h32.8v16.4h-32.8v49.1h-16.4v-98.2zm16.4 98.3h32.8v16.4h-32.8z"/><path class="cls-3" d="m350 511h19.2v19.2h-19.2v57.7h-19.2v-96.2h19.2zm19.2-19.2h38.5v19.2h-38.5zm38.5 19.2h19.2v77h-19.2z"/><path class="cls-3" d="m279 473h-25.2v-25.2h75.5v25.2h-25.2v126h25.2v25.2h-75.5v-25.2h25.2z"/><path class="cls-3" d="m744 374h16.4v16.4h-16.4v49.1h-16.4v-81.9h16.4v16.4zm16.4-16.4h32.8v16.4h-32.8zm32.8 16.4h16.4v16.4h-16.4z"/><path class="cls-3" d="m629 379h16.4v65.5h-16.4zm16.4 65.5h32.8v16.4h-32.8zm32.8-16.4h16.4v-49.1h16.4v81.9h-16.4v-16.4h-16.4v-16.4z"/><path class="cls-3" d="m531 388h16.4v49.1h-16.4zm65.5 0h-49.1v-16.4h49.1zm-49.1 49.1h49.1v16.4h-49.1zm49.1-49.1h16.4v49.1h-16.4z"/><path class="cls-3" d="m822 275h16.4v32.8h-16.4zm0 65.5h16.4v16.4h-16.4zm81.9 16.4h-16.4v-32.8h-49.1v-16.4h49.1v-32.8h-49.1v-16.4h65.5v98.2h0.01zm-65.5 0h49.1v16.4h-49.1z"/><path class="cls-3" d="m739 274h16.4v16.4h-16.4v49.1h-16.4v-81.9h16.4v16.4zm16.4-16.4h32.8v16.4h-32.8zm32.8 16.4h16.4v65.5h-16.4z"/><path class="cls-3" d="m660 323h16.4v-49.1h-16.4v-16.4h32.8v65.5h16.4v16.4h-49.1v-16.4zm32.8-81.9h-16.4v-16.4h16.4z"/><path class="cls-3" d="m589 224h16.4v32.8h32.8v16.4h-32.8v49.1h-16.4v-98.2zm16.4 98.3h32.8v16.4h-32.8z"/><path class="cls-3" d="m524 224h16.4v32.8h32.8v16.4h-32.8v49.1h-16.4v-98.2zm16.4 98.3h32.8v16.4h-32.8z"/><path class="cls-3" d="m468 335h16.4v-49.1h-16.4v-16.4h32.8v65.5h16.4v16.4h-49.1v-16.4zm32.8-81.9h-16.4v-16.4h16.4z"/><path class="cls-3" d="m377 282h19.2v19.2h-19.2v57.7h-19.2v-96.2h19.2zm19.2-19.2h38.5v19.2h-38.5zm38.5 19.2h19.2v77h-19.2z"/><path class="cls-3" d="m304 319h-24.6v74h-24.6v-173h24.6v74h24.6v24.6zm0-49.3h24.6v24.6h-24.6zm0 49.3h24.6v24.6h-24.6zm24.6-74h24.6v24.6h-24.6zm0 98.6h24.6v24.6h-24.6zm24.6-123h24.6v24.6h-24.6zm0 148h24.6v24.6h-24.6z"/></g><g transform="matrix(1.17 0 0 1.17 -723 -367)"><path d="m903 430h15.5v3.88h3.88v3.88h3.88v15.5h-3.88v3.88h-3.88v3.88h-15.5v-3.88h-3.88v7.75h23.2v-3.88h3.88v3.88h-3.88v3.88h-23.2v-3.88h-3.88v-7.75h3.88v-3.88h-3.88v-15.5h3.88v-3.88h3.88z" fill="#dc143c" stroke-width="3.88"/><path d="m899 434h3.88v19.4h3.88v-3.88h3.88v-3.88h-3.88v-15.5h3.88v15.5h3.88v-3.88h3.88v-3.88h-3.88v-7.75h3.88v7.75h3.88v3.88h-3.88v3.88h-3.88v3.88h-3.88v3.88h-3.88v3.88h3.88v-3.88h3.88v-3.88h3.88v-3.88h3.88v-3.88h3.88v3.88h-3.88v3.88h-3.88v3.88h-3.88v3.88h3.88v-3.88h3.88v-3.88h3.88v3.88h-3.88v3.88h-3.88v3.88h-3.88v-3.88h-3.88v3.88h-3.88v-3.88h-3.88v-3.88h-3.88z" fill="#4b0082" stroke-width="3.88"/><path transform="matrix(.408 0 0 .408 553 270)" d="m933 459v9.5h19v-9.5zm19 9.5v9.5h10.5v-9.5zm-19 0h-9.5v9.5h-9.24v9.5h9.5v-9.5h9.24z" fill="#dc143c" stroke-dashoffset="40.8" stroke-linecap="square" style="paint-order:fill markers stroke"/></g></svg>
