<?xml version="1.0" encoding="UTF-8"?>
<svg width="50mm" height="50mm" version="1.1" viewBox="0 0 50 50" xmlns="http://www.w3.org/2000/svg"><g><path d="m0 0h50v50h-50z" fill="#f0f"/><path d="m7.83 2.88v0.901h0.901v-0.901h-0.901zm0 0.901h-0.901v3.6h0.901v-0.901h0.901v-0.901h-0.901v-1.8zm0.901 1.8h0.901v-0.901h-0.901v0.901zm0.901 0v1.8h0.901v-1.8h-0.901zm0 1.8h-0.901v1.8h0.901v-1.8zm-2.7 0h-0.901v1.8h0.901v-1.8zm11-4.5v0.901h0.901v-0.901h-0.901zm0 0.901h-0.901v3.6h0.901v-0.901h0.901v-0.901h-0.901v-1.8zm0.901 1.8h0.901v-0.901h-0.901v0.901zm0.901 0v0.901h0.901v-0.901h-0.901zm0 0.901h-0.901v0.901h0.901v-0.901zm-0.901 0.901h-0.901v0.901h0.901v-0.901zm0 0.901v0.901h0.901v-0.901h-0.901zm-1.8-0.901h-0.901v1.8h0.901v-1.8zm-14.2-2.7v0.901h1.8v-0.901h-1.8zm1.8 0.901v0.901h0.901v-0.901h-0.901zm-1.8 0h-0.901v0.901h0.901v-0.901zm0 0.901v0.901h0.901v-0.901h-0.901zm0.901 0.901v0.901h0.901v-0.901h-0.901zm0 0.901h-1.8v0.901h1.8v-0.901zm-1.8 0v-0.901h-0.901v0.901h0.901zm11-3.6v0.901h1.8v-0.901h-1.8zm1.8 0.901v1.8h0.901v-1.8h-0.901zm0.901 0h0.901v-0.901h-0.901v0.901zm-0.901 1.8h-0.901v0.901h0.901v-0.901zm0 0.901v0.901h0.901v-0.901h-0.901zm-0.901 0h-1.8v0.901h1.8v-0.901zm-1.8 0v-1.8h-0.901v1.8h0.901zm0-1.8h0.901v-0.901h-0.901v0.901zm11-1.8v0.901h1.8v-0.901h-1.8zm1.8 0.901v0.901h0.901v-0.901h-0.901zm0 0.901h-1.8v-0.901h-0.901v0.901h-0.901v1.8h0.901v-0.901h2.7v-0.901zm-2.7 1.8v0.901h1.8v-0.901h-1.8zm8.3-3.6v1.8h0.901v-1.8h-0.901zm0 1.8h-0.901v1.8h0.901v-1.8zm0 1.8v0.901h0.901v-0.901h-0.901zm0.901 0h0.901v0.901h0.901v-2.7h-0.901v0.901h-0.901v0.901zm1.8-1.8h0.901v-1.8h-0.901v1.8zm-0.901 2.7h-0.901v0.901h0.901v-0.901zm-0.901 0.901h-1.8v0.901h1.8v-0.901zm-1.8 0v-0.901h-0.901v0.901h0.901zm6.83-5.4v0.901h1.8v-0.901h-1.8zm1.8 0.901v1.8h0.901v-1.8h-0.901zm0 1.8h-0.901v0.901h0.901v-0.901zm-0.901 0.901h-1.8v0.901h1.8v-0.901zm-1.8 0v-1.8h-0.901v1.8h0.901zm0-1.8h0.901v-0.901h-0.901v0.901zm5.03-1.8v1.8h0.901v-1.8h-0.901zm0 1.8h-0.901v1.8h0.901v-1.8zm0 1.8v0.901h0.901v-0.901h-0.901zm0.901 0h0.901v0.901h0.901v-2.7h-0.901v0.901h-0.901v0.901zm1.8-1.8h0.901v-1.8h-0.901v1.8zm2.33-1.8v2.7h0.901v-0.901h0.901v-0.901h-0.901v-0.901h-0.901zm1.8 0.901h0.901v-0.901h-0.901v0.901zm0.901 0v0.901h0.901v-0.901h-0.901zm-2.7 1.8h-0.901v1.8h0.901v-1.8zm-36.2 3.6v9.54h2.73v-5.45h1.36v5.45h2.73v-5.45h-1.36v-1.36h-2.73v-2.73h-2.73zm28.8 0v2.73h-2.73v1.36h-1.36v4.09h1.36v1.36h5.45v-9.54h-2.73zm-32.9 1.36v1.36h-1.36v1.36h-1.36v1.36h-1.36v1.36h1.36v1.36h1.36v1.36h1.36v1.36h2.73v-1.36h-1.36v-1.36h-1.36v-1.36h-1.36v-1.36h1.36v-1.36h1.36v-1.36h1.36v-1.36h-2.73zm37.1 0v1.36h1.36v1.36h1.36v1.36h1.36v1.36h-1.36v1.36h-1.36v1.36h-1.36v1.36h2.73v-1.36h1.36v-1.36h1.36v-1.36h1.36v-1.36h-1.36v-1.36h-1.36v-1.36h-1.36v-1.36h-2.73zm-23.3 1.36v1.36h-1.36v4.09h1.36v1.36h4.09v-1.36h-2.73v-1.36h4.09v-2.73h-1.36v-1.36h-4.09zm8.24 0v1.36h-1.36v4.09h1.36v1.36h2.73v-1.36h-1.36v-4.09h1.36v4.09h1.36v1.36h1.36v-6.82h-5.45zm-6.87 1.36h1.36v1.36h-1.36v-1.36zm16.5 0h1.36v4.09h-1.36v-4.09zm-35.7 9.35v0.902h0.903v-0.902h-0.903zm0.903 0.902v1.81h0.902v-1.81h-0.902zm0.902 0h0.903v-0.902h-0.903v0.902zm0.903 0v1.81h0.903v-1.81h-0.903zm0.903 0h0.902v-0.902h-0.902v0.902zm0.902 0v1.81h0.903v-1.81h-0.903zm0 1.81h-0.902v1.81h0.902v-1.81zm-1.81 0h-0.903v1.81h0.903v-1.81zm-1.81 0h-0.903v1.81h0.903v-1.81zm6.56-2.71v0.902h1.81v-0.902h-1.81zm1.81 0.902v1.81h0.903v-1.81h-0.903zm0 1.81h-0.902v0.902h0.902v-0.902zm-0.902 0.902h-1.81v0.903h1.81v-0.903zm-1.81 0v-1.81h-0.902v1.81h0.902zm0-1.81h0.903v-0.903h-0.903v0.903zm4.75-1.81v0.902h0.903v0.903h0.903v-1.81h-1.81zm0.903 1.81h-0.903v2.71h1.81v-0.903h-0.903v-1.81zm0.903 1.81h0.902v-0.902h-0.902v0.902zm0.902-0.902h0.903v-0.903h-0.903v0.903zm0.903-0.903h0.902v-1.81h-0.902v1.81zm3.85-1.81v0.902h1.81v-0.902h-1.81zm1.81 0.902v0.903h0.902v-0.903h-0.902zm0 0.903h-1.81v-0.903h-0.902v0.903h-0.903v1.81h0.903v-0.902h2.71v-0.903zm-2.71 1.81v0.903h1.81v-0.903h-1.81zm9.55-3.61v1.81h0.903v-1.81h-0.903zm0 1.81h-0.902v1.81h0.902v-1.81zm0 1.81v0.903h0.903v-0.903h-0.903zm0.903 0h0.903v0.903h0.902v-2.71h-0.902v0.903h-0.903v0.902zm1.81-1.81h0.903v-1.81h-0.903v1.81zm-0.902 2.71h-0.903v0.902h0.903v-0.902zm-0.903 0.902h-1.81v0.903h1.81v-0.903zm-1.81 0v-0.902h-0.903v0.902h0.903zm7.46-5.42v0.902h1.81v-0.902h-1.81zm1.81 0.902v1.81h0.902v-1.81h-0.902zm0 1.81h-0.903v0.902h0.903v-0.902zm-0.903 0.902h-1.81v0.903h1.81v-0.903zm-1.81 0v-1.81h-0.903v1.81h0.903zm0-1.81h0.903v-0.903h-0.903v0.903zm5.66-1.81v1.81h0.902v-1.81h-0.902zm0 1.81h-0.903v1.81h0.903v-1.81zm0 1.81v0.903h0.902v-0.903h-0.902zm0.902 0h0.903v0.903h0.903v-2.71h-0.903v0.903h-0.903v0.902zm1.81-1.81h0.902v-1.81h-0.902v1.81zm2.95-1.81v2.71h0.903v-0.903h0.903v-0.903h-0.903v-0.902h-0.903zm1.81 0.902h0.902v-0.902h-0.902v0.902zm0.902 0v0.903h0.903v-0.903h-0.903zm-2.71 1.81h-0.902v1.81h0.902v-1.81zm-36.2 3.6v9.54h5.45v-1.36h1.36v-4.09h-1.36v-1.36h-2.73v-2.73h-2.73zm20.6 0v2.73h-2.73v1.36h-1.36v4.09h1.36v1.36h5.45v-9.54h-2.73zm-24.7 1.36v1.36h-1.36v1.36h-1.36v1.36h-1.36v1.36h1.36v1.36h1.36v1.36h1.36v1.36h2.73v-1.36h-1.36v-1.36h-1.36v-1.36h-1.36v-1.36h1.36v-1.36h1.36v-1.36h1.36v-1.36h-2.73zm37.1 0v1.36h1.36v1.36h1.36v1.36h1.36v1.36h-1.36v1.36h-1.36v1.36h-1.36v1.36h2.73v-1.36h1.36v-1.36h1.36v-1.36h1.36v-1.36h-1.36v-1.36h-1.36v-1.36h-1.36v-1.36h-2.73zm-23.3 1.36v1.36h-1.36v4.09h1.36v1.36h4.09v-1.36h1.36v-4.09h-1.36v-1.36h-4.09zm15.1 0v4.09h1.36v1.36h2.73v2.73h-1.36v-1.36h-2.73v1.36h1.36v1.36h4.09v-1.36h1.36v-8.18h-2.73v4.09h-1.36v-4.09h-2.73zm-22 1.36h1.36v4.09h-1.36v-4.09zm8.24 0h1.36v4.09h-1.36v-4.09zm8.24 0h1.36v4.09h-1.36v-4.09zm-5.4 10.2v1.95h0.325v0.325h0.973v-0.325h-0.649v-0.973h0.649v-0.324h-0.649v-0.649h-0.649zm11.3 0v2.27h0.649v-0.649h0.324v-0.324h-0.324v-1.3h-0.649zm0.973 1.3h0.324v-0.325h0.325v-0.324h-0.649v0.649zm0 0.324v0.649h0.649v-0.325h-0.325v-0.324h-0.324zm-23.3-0.973v0.324h-0.324v0.973h0.324v0.325h0.973v-0.325h0.325v-0.973h-0.325v-0.324h-0.973zm1.95 0v1.3h0.325v0.325h0.649v-0.325h-0.325v-1.3h-0.649zm0.973 1.3h0.324v0.325h0.325v-1.62h-0.649v1.3zm1.3-1.3v1.62h0.649v-1.3h-0.324v-0.324h-0.325zm0.649 0.324h0.325v0.325h0.648v-0.325h-0.324v-0.324h-0.649v0.324zm1.62-0.324v1.62h0.649v-1.3h-0.324v-0.324h-0.325zm0.649 0.324h0.325v1.3h0.648v-1.3h-0.324v-0.324h-0.649v0.324zm1.95-0.324v0.324h-0.325v0.973h0.325v0.325h0.973v-0.325h-0.649v-0.324h0.973v-0.649h-0.324v-0.324h-0.973zm6.48 0v1.62h0.649v-1.3h-0.325v-0.324h-0.324zm0.649 0.324h0.324v0.325h0.649v-0.325h-0.324v-0.324h-0.649v0.324zm1.95-0.324v0.324h-0.324v0.973h0.324v0.325h0.973v-0.325h0.324v-0.973h-0.324v-0.324h-0.973zm2.27 0v0.324h-0.324v0.973h0.324v0.325h0.973v-0.325h0.325v-0.324h-0.649v0.324h-0.324v-0.973h0.324v0.325h0.649v-0.325h-0.325v-0.324h-0.973zm4.22 0v0.324h-0.325v0.325h0.325v0.324h0.648v0.324h-0.973v0.325h1.62v-0.325h0.325v-0.324h-0.325v-0.324h-0.649v-0.325h0.649v-0.324h-1.3zm-24.3 0.324h0.325v0.973h-0.325v-0.973zm9.08 0h0.324v0.325h-0.324v-0.325zm9.08 0h0.324v0.973h-0.324v-0.973zm-4.86 0.649v0.649h0.649v-0.649c-0.233-0.0032-0.558 0-0.649 0z"/></g></svg>
