<?xml version="1.0" encoding="UTF-8"?>
<svg id="scroll" enable-background="new 0 0 128 128" version="1.1" viewBox="0 0 128 128" xml:space="preserve" xmlns="http://www.w3.org/2000/svg">

	<rect x="22.1" y="18.6" width="23.2" height="15.1" fill="#D68B52"/>
	<ellipse cx="115" cy="109" rx="9.41" ry="12.6" fill="#F2BD72"/>
	<path d="m115 96.2h-5.18s0.04-63.4 0.04-74.1-7.61-15.6-10.4-15.6h-76.9s10.1 1.21 10.2 15.6c0.09 10.2 0 62.8 0 79.6s6.37 19.8 6.37 19.8 65.9 0 75.4 0c0.07 0 0.14-0.01 0.21-0.02 0.09 0 0.18 0.02 0.27 0.02 5.2 0 9.41-5.66 9.41-12.6 0-6.97-4.21-12.6-9.41-12.6z" fill="#FFD8A1"/>
	<path d="m115 96.2h-5.18s0.04-63.4 0.04-74.1-7.61-15.6-10.4-15.6h-76.9s10.1 1.21 10.2 15.6c0.09 10.2 0 62.8 0 79.6s6.37 19.8 6.37 19.8 65.9 0 75.4 0c0.07 0 0.14-0.01 0.21-0.02 0.09 0 0.18 0.02 0.27 0.02 5.2 0 9.41-5.66 9.41-12.6 0-6.97-4.21-12.6-9.41-12.6z" fill="#FFD8A1"/>
	<path d="m32.3 101 0.09-9.1s59.5 6.46 77-14.1v23l-77.1 0.23z" fill="#F2BD72"/>
	
	<path d="m38.2 96.2v6.17h84.4c-1.64-3.69-4.64-6.17-8.07-6.17h-5.18-71.2z" fill="#FCEBCD"/>
	<ellipse cx="38.7" cy="109" rx="9.41" ry="12.6" fill="#F2BD72"/>
	<g fill="#784D30">
		<path d="m45.7 108c0 5.33-3.34 8.35-6.92 9.33-4.61 1.26-6.53 0.16-6.53 0.16v-19s3.25-0.82 6.72 0.16c3.54 0.99 6.73 4 6.73 9.33z"/>
		<ellipse cx="33.5" cy="108" rx="6.72" ry="9.65"/>
		<ellipse cx="33.5" cy="108" rx="6.72" ry="9.65"/>
		</g><ellipse cx="24.9" cy="108" rx="4.46" ry="4.5" fill="#BA793E"/>
		<path d="m33 105c1.27 0.39 2.82 3.08 0.18 5.66-0.67 0.65 0.02 2.09 0.48 3.3 0.58 1.54 1 2.37 2.34 1.45 1.8-1.22 3.51-4.71 3.51-7.67 0-4.79-2.71-8.68-6.05-8.68-1.72 0-3.06 0.55-4.19 2.88-0.5 1.04-0.55 2.37 1.04 2.53 0 0.01 1.78 0.26 2.69 0.53z" fill="#BA793E"/>
	
	<ellipse cx="22.3" cy="20.1" rx="10.1" ry="13.6" fill="#F2BD72"/>
	<g fill="#784D30">
		<path d="m29.3 19.4c0 5.33-3.34 8.35-6.92 9.33-4.61 1.26-6.53 0.16-6.53 0.16v-19s3.25-0.82 6.72 0.16c3.53 0.98 6.73 4 6.73 9.33z"/>
		<ellipse cx="17.1" cy="19.4" rx="6.72" ry="9.65"/>
		<ellipse cx="17.1" cy="19.4" rx="6.72" ry="9.65"/>
		</g><ellipse cx="8.46" cy="19.4" rx="4.46" ry="4.5" fill="#BA793E"/>
		<path d="m16.6 16.7c1.27 0.39 2.82 3.08 0.18 5.66-0.67 0.65 0.02 2.09 0.48 3.3 0.58 1.54 1 2.37 2.34 1.45 1.8-1.22 3.51-4.71 3.51-7.67 0-4.79-2.71-8.68-6.05-8.68-1.72 0-3.06 0.55-4.19 2.88-0.5 1.04-0.55 2.37 1.04 2.53 0 0.01 1.79 0.25 2.69 0.53z" fill="#BA793E"/>
	

</svg>
