<?xml version="1.0" encoding="UTF-8"?>
<svg width="8" height="10" version="1.1" viewBox="0 0 8 10" xmlns="http://www.w3.org/2000/svg"><style>#y{fill:crimson}#y-r{fill:indigo}@media(prefers-color-scheme:dark){#y{fill:mediumspringgreen}#y-r{fill:crimson}}</style><path id="y" d="m2 0h4v1h1v1h1v4h-1v1h-1v1h-4v-1h-1v2h6v-1h1v1h-1v1h-6v-1h-1v-2h1v-1h-1v-4h1v-1h1z"/><path id="y-r" d="m1 1h1v5h1v-1h1v-1h-1v-4h1v4h1v-1h1v-1h-1v-2h1v2h1v1h-1v1h-1v1h-1v1h-1v1h1v-1h1v-1h1v-1h1v-1h1v1h-1v1h-1v1h-1v1h1v-1h1v-1h1v1h-1v1h-1v1h-1v-1h-1v1h-1v-1h-1v-1h-1z"/></svg>
