<?xml version="1.0" encoding="UTF-8"?>
<svg width="650" height="406" version="1.1" viewBox="0 0 650 406" xmlns="http://www.w3.org/2000/svg"><g transform="translate(-254 -220)" fill="mediumspringgreen"><path d="m801 490h16.4v32.8h32.8v16.4h-32.8v49.1h-16.4v-98.2zm16.4 98.2h32.8v16.4h-32.8z"/><path d="m711 483h16.4v16.4h49.1v-16.4h16.4v32.8h-65.5v16.4h-16.4v-49.1zm65.5 0h-49.1v-16.4h49.1zm-49.1 49.1h49.1v16.4h-49.1z"/><path d="m654 548h16.4v16.4h-16.4v49.1h-16.4v-81.9h16.4v16.4zm16.4-16.4h32.8v16.4h-32.8zm32.8 16.4h16.4v65.5h-16.4z"/><path d="m588 499h16.4v16.4h-16.4v49.1h-16.4v-81.9h16.4v16.4zm16.4-16.4h32.8v16.4h-32.8zm32.8 16.4h16.4v16.4h-16.4z"/><path d="m477 487h16.4v16.4h49.1v-16.4h16.4v32.8h-65.5v16.4h-16.4v-49.1zm65.5 0h-49.1v-16.4h49.1zm-49.1 49.1h49.1v16.4h-49.1z"/><path d="m437 512h16.4v32.8h32.8v16.4h-32.8v49.1h-16.4v-98.2zm16.4 98.3h32.8v16.4h-32.8z"/><path d="m350 511h19.2v19.2h-19.2v57.7h-19.2v-96.2h19.2zm19.2-19.2h38.5v19.2h-38.5zm38.5 19.2h19.2v77h-19.2z"/><path d="m279 473h-25.2v-25.2h75.5v25.2h-25.2v126h25.2v25.2h-75.5v-25.2h25.2z"/><path d="m744 374h16.4v16.4h-16.4v49.1h-16.4v-81.9h16.4v16.4zm16.4-16.4h32.8v16.4h-32.8zm32.8 16.4h16.4v16.4h-16.4z"/><path d="m629 379h16.4v65.5h-16.4zm16.4 65.5h32.8v16.4h-32.8zm32.8-16.4h16.4v-49.1h16.4v81.9h-16.4v-16.4h-16.4v-16.4z"/><path d="m531 388h16.4v49.1h-16.4zm65.5 0h-49.1v-16.4h49.1zm-49.1 49.1h49.1v16.4h-49.1zm49.1-49.1h16.4v49.1h-16.4z"/><path d="m822 275h16.4v32.8h-16.4zm0 65.5h16.4v16.4h-16.4zm81.9 16.4h-16.4v-32.8h-49.1v-16.4h49.1v-32.8h-49.1v-16.4h65.5v98.2h0.01zm-65.5 0h49.1v16.4h-49.1z"/><path d="m739 274h16.4v16.4h-16.4v49.1h-16.4v-81.9h16.4v16.4zm16.4-16.4h32.8v16.4h-32.8zm32.8 16.4h16.4v65.5h-16.4z"/><path d="m660 323h16.4v-49.1h-16.4v-16.4h32.8v65.5h16.4v16.4h-49.1v-16.4zm32.8-81.9h-16.4v-16.4h16.4z"/><path d="m589 224h16.4v32.8h32.8v16.4h-32.8v49.1h-16.4v-98.2zm16.4 98.3h32.8v16.4h-32.8z"/><path d="m524 224h16.4v32.8h32.8v16.4h-32.8v49.1h-16.4v-98.2zm16.4 98.3h32.8v16.4h-32.8z"/><path d="m468 335h16.4v-49.1h-16.4v-16.4h32.8v65.5h16.4v16.4h-49.1v-16.4zm32.8-81.9h-16.4v-16.4h16.4z"/><path d="m377 282h19.2v19.2h-19.2v57.7h-19.2v-96.2h19.2zm19.2-19.2h38.5v19.2h-38.5zm38.5 19.2h19.2v77h-19.2z"/><path d="m304 319h-24.6v74h-24.6v-173h24.6v74h24.6v24.6zm0-49.3h24.6v24.6h-24.6zm0 49.3h24.6v24.6h-24.6zm24.6-74h24.6v24.6h-24.6zm0 98.6h24.6v24.6h-24.6zm24.6-123h24.6v24.6h-24.6zm0 148h24.6v24.6h-24.6z"/></g><g transform="matrix(2.45 0 0 2.45 -1634 -882)"><path d="m903 430h15.5v3.88h3.88v3.88h3.88v15.5h-3.88v3.88h-3.88v3.88h-15.5v-3.88h-3.88v7.75h23.2v-3.88h3.88v3.88h-3.88v3.88h-23.2v-3.88h-3.88v-7.75h3.88v-3.88h-3.88v-15.5h3.88v-3.88h3.88z" fill="crimson"/><path d="m899 434h3.88v19.4h3.88v-3.88h3.88v-3.88h-3.88v-15.5h3.88v15.5h3.88v-3.88h3.88v-3.88h-3.88v-7.75h3.88v7.75h3.88v3.88h-3.88v3.88h-3.88v3.88h-3.88v3.88h-3.88v3.88h3.88v-3.88h3.88v-3.88h3.88v-3.88h3.88v-3.88h3.88v3.88h-3.88v3.88h-3.88v3.88h-3.88v3.88h3.88v-3.88h3.88v-3.88h3.88v3.88h-3.88v3.88h-3.88v3.88h-3.88v-3.88h-3.88v3.88h-3.88v-3.88h-3.88v-3.88h-3.88z" fill="indigo"/></g></svg>
