<?xml version="1.0" encoding="UTF-8"?>
<svg width="749" height="525" version="1.1" viewBox="0 0 749 525" xmlns="http://www.w3.org/2000/svg"><g style="opacity: .4"><g transform="translate(-212 -163)" fill="mediumspringgreen"><rect x="419" y="401" width="47" height="47"/><rect x="910" y="582" width="30" height="30"/><rect x="885" y="192" width="30" height="30"/><rect x="673" y="480" width="17" height="17"/><rect x="661" y="356" width="17" height="17"/><rect x="212" y="391" width="17" height="17"/><rect x="422" y="219" width="18" height="18"/><rect x="567" y="616" width="17" height="17"/><rect x="366" y="644" width="17" height="17"/><rect x="216" y="210" width="17" height="17"/><rect x="949" y="478" width="10" height="10"/><rect x="753" y="211" width="17" height="17"/><rect x="753" y="618" width="16" height="16"/><rect x="946" y="360" width="15" height="15"/><rect x="571" y="168" width="16" height="16"/><rect x="222" y="626" width="16" height="16"/><rect x="288" y="163" width="9" height="9"/><rect x="836" y="673" width="16" height="16"/><rect x="840" y="555" width="16" height="16"/></g><g transform="translate(-212 -163)" stroke="mediumspringgreen" fill="none"><polygon points="431 228 579 176 761 220 669 365 443 424 225 217 292 168"/><polygon points="224 405 443 424 576 624 374 652"/><polyline points="439 424 374 652 230 636 221 400 225 217"/><polyline points="431 228 443 424 579 176 669 365 682 489 445 428"/><line x1="682" x2="925" y1="489" y2="597"/><polyline points="761 626 954 482 954 368 900 207 761 220"/><line x1="669" x2="848" y1="365" y2="563"/><line x1="669" x2="954" y1="365" y2="368"/><line x1="669" x2="900" y1="365" y2="207"/><path d="m576 624 106-136 79 137 82 54 81-84 29-115"/></g></g></svg>
