<?xml version="1.0" encoding="UTF-8"?>
<svg width="356mm" height="250mm" version="1.1" viewBox="0 0 356 250" xmlns="http://www.w3.org/2000/svg"><g id="quadrati" transform="matrix(.476 0 0 .476 -101 -77.7)" fill="#dc143c"><rect x="419" y="401" width="46.6" height="46.6"/><rect x="910" y="582" width="30.3" height="30.3"/><rect x="885" y="192" width="30.3" height="30.3"/><rect x="673" y="480" width="17.4" height="17.4"/><rect x="661" y="356" width="17.4" height="17.4"/><rect x="212" y="391" width="17.4" height="17.4"/><rect x="422" y="219" width="18.2" height="18.2"/><rect x="567" y="616" width="17.5" height="17.5"/><rect x="366" y="644" width="17.4" height="17.4"/><rect x="216" y="210" width="17.4" height="17.4"/><rect x="949" y="478" width="9.5" height="9.5"/><rect x="753" y="211" width="17.4" height="17.4"/><rect x="753" y="618" width="15.8" height="15.8"/><rect x="946" y="360" width="15" height="15"/><rect x="571" y="168" width="15.8" height="15.8"/><rect x="222" y="626" width="15.8" height="15.8"/><rect x="288" y="163" width="8.6" height="8.6"/><rect x="836" y="673" width="15.8" height="15.8"/><rect x="840" y="555" width="15.8" height="15.8"/></g><g id="lineette" transform="matrix(.476 0 0 .476 -101 -77.7)" fill="none" stroke="#dc143c"><polygon class="cls-1" points="292 168 431 228 579 176 761 220 669 365 443 424 225 217"/><polygon class="cls-1" points="576 624 374 652 224 405 443 424"/><polyline class="cls-1" points="439 424 374 652 230 636 221 400 225 217"/><polyline class="cls-1" points="431 228 443 424 579 176 669 365 682 489 445 428"/><line class="cls-1" x1="682" x2="925" y1="489" y2="597"/><polyline class="cls-1" points="761 626 954 482 954 368 900 207 761 220"/><line class="cls-1" x1="669" x2="848" y1="365" y2="563"/><line class="cls-1" x1="669" x2="954" y1="365" y2="368"/><line class="cls-1" x1="669" x2="900" y1="365" y2="207"/><path d="m576 624 106-136 79.5 137 82.2 54.4 81.4-83.9 29.1-115" stroke-dashoffset="40.8" stroke-linecap="square" style="paint-order:fill markers stroke"/></g><g id="lettere" transform="matrix(.476 0 0 .476 -101 -77.7)" fill="#4b0082"><path class="cls-3" d="m801 490h16.4v32.8h32.8v16.4h-32.8v49.1h-16.4v-98.2zm16.4 98.2h32.8v16.4h-32.8z"/><path class="cls-3" d="m710 483h16.4v16.4h49.1v-16.4h16.4v32.8h-65.5v16.4h-16.4v-49.1zm65.5 0h-49.1v-16.4h49.1zm-49.1 49.1h49.1v16.4h-49.1z"/><path class="cls-3" d="m654 548h16.4v16.4h-16.4v49.1h-16.4v-81.9h16.4zm16.4-16.4h32.8v16.4h-32.8zm32.8 16.4h16.4v65.5h-16.4z"/><path class="cls-3" d="m588 499h16.4v16.4h-16.4v49.1h-16.4v-81.9h16.4zm16.4-16.4h32.8v16.4h-32.8zm32.8 16.4h16.4v16.4h-16.4z"/><path class="cls-3" d="m477 487h16.4v16.4h49.1v-16.4h16.4v32.8h-65.5v16.4h-16.4v-49.1zm65.5 0h-49.1v-16.4h49.1zm-49.1 49.1h49.1v16.4h-49.1z"/><path class="cls-3" d="m437 512h16.4v32.8h32.8v16.4h-32.8v49.1h-16.4v-98.2zm16.4 98.3h32.8v16.4h-32.8z"/><path class="cls-3" d="m350 511h19.2v19.2h-19.2v57.7h-19.2v-96.2h19.2zm19.2-19.2h38.5v19.2h-38.5zm38.5 19.2h19.2v77h-19.2z"/><path class="cls-3" d="m279 473h-25.2v-25.2h75.5v25.2h-25.2v126h25.2v25.2h-75.5v-25.2h25.2z"/><path class="cls-3" d="m744 374h16.4v16.4h-16.4v49.1h-16.4v-81.9h16.4v16.4zm16.4-16.4h32.8v16.4h-32.8zm32.8 16.4h16.4v16.4h-16.4z"/><path class="cls-3" d="m628 379h16.4v65.5h-16.4zm16.4 65.5h32.8v16.4h-32.8zm32.8-16.4h16.4v-49.1h16.4v81.9h-16.4v-16.4h-16.4z"/><path class="cls-3" d="m530 388h16.4v49.1h-16.4zm65.5 0h-49.1v-16.4h49.1zm-49.1 49.1h49.1v16.4h-49.1zm49.1-49.1h16.4v49.1h-16.4z"/><path class="cls-3" d="m822 275h16.4v32.8h-16.4zm0 65.5h16.4v16.4h-16.4zm81.9 16.4h-16.4v-32.8h-49.1v-16.4h49.1v-32.8h-49.1v-16.4h65.5v98.2zm-65.5 0h49.1v16.4h-49.1z"/><path class="cls-3" d="m739 274h16.4v16.4h-16.4v49.1h-16.4v-81.9h16.4zm16.4-16.4h32.8v16.4h-32.8zm32.8 16.4h16.4v65.5h-16.4z"/><path class="cls-3" d="m660 323h16.4v-49.1h-16.4v-16.4h32.8v65.5h16.4v16.4h-49.1v-16.4zm32.8-81.9h-16.4v-16.4h16.4z"/><path class="cls-3" d="m589 224h16.4v32.8h32.8v16.4h-32.8v49.1h-16.4v-98.2zm16.4 98.3h32.8v16.4h-32.8z"/><path class="cls-3" d="m524 224h16.4v32.8h32.8v16.4h-32.8v49.1h-16.4v-98.2zm16.4 98.3h32.8v16.4h-32.8z"/><path class="cls-3" d="m468 335h16.4v-49.1h-16.4v-16.4h32.8v65.5h16.4v16.4h-49.2zm32.8-81.9h-16.4v-16.4h16.4z"/><path class="cls-3" d="m377 282h19.2v19.2h-19.2v57.7h-19.2v-96.2h19.2zm19.2-19.2h38.5v19.2h-38.5zm38.5 19.2h19.2v77h-19.2z"/><path class="cls-3" d="m304 319h-24.6v74h-24.7v-173h24.6v74h24.6v24.6zm0-49.3h24.6v24.6h-24.6zm0 49.3h24.6v24.6h-24.6zm24.6-74h24.6v24.6h-24.6zm0 98.6h24.6v24.7h-24.6zm24.7-123h24.6v24.6h-24.6zm0 148h24.6v24.6h-24.6z"/></g><g transform="matrix(1.17 0 0 1.17 -752 -393)"><path d="m903 430h15.5v3.88h3.88v3.88h3.88v15.5h-3.88v3.88h-3.88v3.88h-15.5v-3.88h-3.88v7.75h23.2v-3.88h3.88v3.88h-3.88v3.88h-23.2v-3.88h-3.88v-7.75h3.88v-3.88h-3.88v-15.5h3.88v-3.88h3.88z" fill="#dc143c" stroke-width="3.88"/><path d="m899 434h3.88v19.4h3.88v-3.88h3.88v-3.88h-3.88v-15.5h3.88v15.5h3.88v-3.88h3.88v-3.88h-3.88v-7.75h3.88v7.75h3.88v3.88h-3.88v3.88h-3.88v3.88h-3.88v3.88h-3.88v3.88h3.88v-3.88h3.88v-3.88h3.88v-3.88h3.88v-3.88h3.88v3.88h-3.88v3.88h-3.88v3.88h-3.88v3.88h3.88v-3.88h3.88v-3.88h3.88v3.88h-3.88v3.88h-3.88v3.88h-3.88v-3.88h-3.88v3.88h-3.88v-3.88h-3.88v-3.88h-3.88z" fill="#4b0082" stroke-width="3.88"/><path transform="matrix(.408 0 0 .408 553 270)" d="m933 459v9.5h19v-9.5zm19 9.5v9.5h10.5v-9.5zm-19 0h-9.5v9.5h-9.24v9.5h9.5v-9.5h9.24z" fill="#dc143c" stroke-dashoffset="40.8" stroke-linecap="square" style="paint-order:fill markers stroke"/></g></svg>
