<?xml version="1.0" encoding="UTF-8"?>
<svg enable-background="new 0 0 128 128" version="1.1" viewBox="0 0 128 128" xml:space="preserve" xmlns="http://www.w3.org/2000/svg">

	<circle cx="63.1" cy="56.6" r="51.6" fill="#880E4F"/>
	
		<path d="m53.3 36.9c-0.12 0-0.25-0.03-0.37-0.04-2.11-0.12-2.67-2.52-2.32-3.84 2.16-8.27 1.09-15.6-2.45-25-0.73-1.92 2.18-2.42 3.45-1.91 1.22 0.49 2.35 2.25 2.84 3.58 2.93 7.93 3.75 16.3 1.33 25.2-0.32 1.2-1.28 2.08-2.48 2.05z" fill="#EC407A"/>
	
	
		<path d="m59.8 44.6c-0.22 0-0.44-0.04-0.66-0.11-1.31-0.4-2.05-1.78-1.65-3.08 2.78-9.2 4.81-24.2-1.63-35.5-0.68-1.19 1.05-1.97 2.41-1.84 3.12 0.28 4.94 4.95 5.54 7.03 2.82 9.71 1.9 22.7-1.59 31.8-0.4 1.07-1.34 1.79-2.42 1.76z" fill="#EC407A"/>
	
	
		<path d="m66.5 51.8c-1.7-0.49-2.02-2.73-1.63-4.04 7.74-25.9-0.05-41.9-0.11-42-0.48-1.28 3.72-3.03 5.79 2.16 0.3 0.75 7.21 18.1-0.58 42-0.37 1.1-1.69 2.45-3.47 1.93z" fill="#EC407A"/>
	
	
		<path d="m22.4 90.5c-0.72-0.85-1.62-2.2-0.48-2.96 1.89-1.27 8.38-3.33 13.6-10.4 0.81-1.1 2.18-1.61 3.37-0.93 1.19 0.67 1.72 2.26 0.93 3.37-6.3 8.88-14 11.3-14.3 11.5-0.38 0.22-2.39 0.28-3.11-0.57z" fill="#EC407A"/>
	
	
		<path d="m26.6 94.2c-0.52-1.3 2.8-1.87 2.8-1.87 1.47-0.56 7.5-1.69 12.3-9.26 0.73-1.15 2.19-1.6 3.37-0.92 1.19 0.68 1.6 2.19 0.92 3.37-3.23 5.66-9.54 9.9-13.9 10.9-2.31 0.55-5.03-0.98-5.54-2.25z" fill="#EC407A"/>
	
	
		<path d="m34.7 102c-1.53-0.81-1.98-2.29-1.01-2.61 5.73-1.85 12-6.63 15-11.1 0.76-1.13 2.3-1.43 3.43-0.66 1.13 0.76 1.42 2.3 0.66 3.43-3.57 5.38-7.21 8.1-13.2 10.7-1.13 0.49-3.53 1.05-4.96 0.29z" fill="#EC407A"/>
	
	
		<path d="m42 104c3.75-1.72 10-5.28 13.6-11.4 0.7-1.17 2.22-1.56 3.39-0.86s1.56 2.22 0.86 3.39c-2.92 4.9-6.98 8.77-13.2 11-3.01 1.07-5.94-1.55-4.7-2.13z" fill="#EC407A"/>
	
	
		<path d="m19 83.4c-8.33-9.82-9.8-22.6-7.66-35.3 0.49-2.92 1.56-4.74 2.62-4.73 1.37 0.02 2.69 4.72 2.29 7.27-1.8 11.5 1.52 22.7 8.7 31.5 0.43 0.53-0.18 2.32-1.71 2.99-1.53 0.66-3.24-0.48-4.24-1.66z" fill="#EC407A"/>
	
	
		<path d="m25.3 77.8c-3.77-3.54-6.89-14.6-6.9-19.9 0-1.37 0.01-3.34 1.38-3.34 0 0 3.06 0.47 3.57 3.33 0.73 4.12 3.01 13.6 6.81 18.4 0.85 1.07-2.29 3.94-4.86 1.53z" fill="#EC407A"/>
	
	
		<path d="m66.4 110c-4.35 0.22-11-0.69-13.2-3.69-0.81-1.1 0.64-2.14 1.96-1.79 7.96 2.15 13.5 3.4 23.6-1.54 2.06-1 4.34 0.05 3.32 1.49-1.43 2.03-7.88 5.18-15.7 5.53z" fill="#D81B60"/>
	
	
		<path d="m58.3 101c-0.77-1.13 1.52-3.02 2.88-2.8 2.15 0.34 3.64 0.72 5.14 0.78 1.54 0.06 3.43-0.5 4.01-0.5 1.37 0 4.65 1.35 3.81 2.43-2.6 3.34-13.4 3.64-15.8 0.09z" fill="#D81B60"/>
	
	
		<path d="m86.5 44.6c-1.25 0.15-2.43-0.68-2.7-1.93-0.29-1.33 0.56-2.65 1.89-2.94 5.89-1.28 13.6-5.67 18-12.7 1.07-1.69 4.4 1.48 2.61 4.16-5.38 8.09-12.4 11.8-19.6 13.4-0.08 0.01-0.16 0.03-0.24 0.04z" fill="#EC407A"/>
	
	
		<path d="m84.8 53.5c-1.33 0.16-2.55-0.77-2.74-2.11-0.19-1.35 0.74-2.61 2.1-2.8 9.69-1.39 20.3-8.78 23.8-16.2 0.59-1.23 4.68 2.4 1.76 6.45-5.21 7.21-15.4 13.3-24.9 14.6-0.03 0.02-0.05 0.02-0.07 0.02z" fill="#EC407A"/>
	
	
		<path d="m85.7 61.4c-0.79 0.09-1.57 0.16-2.32 0.19-1.36 0.06-2.52-1-2.58-2.37s1-2.53 2.37-2.57c9.91-0.42 24.3-7.08 28.8-15.4 0.65-1.2 4.79 2.2 1.27 6.66-2.64 3.35-6.8 6.09-11.6 8.48-5.16 2.6-11 4.39-16 4.98z" fill="#EC407A"/>
	
	
		<path d="m93.5 68.1c-0.7 0.08-1.35 0.12-1.93 0.1-1.37-0.03-2.45-1.17-2.41-2.53 0.03-1.36 1.16-2.45 2.53-2.41 4.57 0.1 16.9-4.7 22.2-12.9 0.74-1.15 3.47 3.15 0.52 6.51-6.38 7.27-14.8 10.6-20.9 11.3z" fill="#EC407A"/>
	
	
		<path d="m74.4 58.3c-0.3 0-0.6-0.05-0.9-0.17-1.27-0.49-1.85-1.91-1.41-3.2 5.09-14.9 6.87-32.5 0.47-48.7-0.5-1.27 4.38-1.44 5.67 2.35 6.08 17.9 4.25 32.5-1.53 48.2-0.36 0.99-1.31 1.58-2.3 1.58z" fill="#EC407A"/>
	
	
		<path d="m93.1 29.8c-1.27-1.59-6.13-5.43-8.01-6.09-1.29-0.46-1.74-4.9-0.37-4.9 4.5-0.01 10.7 4.44 12.5 8.7 1.36 3.15-1.53 5.54-4.13 2.29z" fill="#D81B60"/>
	
	
		<path d="m99.4 25.8c-4.43-5.92-7.99-9.81-16.2-12.7-1.89-0.67-3.68-2.99-2.53-3.73 2.13-1.38 6.1 0.3 7.21 0.83 4.34 2.07 8.36 4.29 11.7 8.22 1.91 2.22 4.15 6.85 3.24 7.86-1.38 1.53-2.98 0.16-3.47-0.49z" fill="#D81B60"/>
	
	
		<path d="m101 75c-0.72-1.16 3.29-2.83 3.65-7.07 0.12-1.36 4.26-2.96 4.35-1.6 0.34 5.3-1.53 7.23-3.61 8.74-2.27 1.63-3.93 0.69-4.39-0.07z" fill="#D81B60"/>
	
	
		<path d="m109 78.6c-1.85-0.42-1.11-2.41-0.25-3.47 3.28-4.02 3.58-6.17 3.24-10.6-0.17-2.16 1.6-4.09 2.44-3.02 1.09 1.4 1.91 5.49 1.13 8.85-1.84 7.99-5.98 8.32-6.56 8.19z" fill="#D81B60"/>
	
	<path d="m90.1 32.1c0.3 0.39 0.59 0.81 0.71 1.28 0.13 0.48 0.07 1.03-0.25 1.4-0.22 0.25-0.52 0.4-0.82 0.54-0.57 0.27-1.14 0.54-1.76 0.65s-1.29 0.04-1.8-0.32c-0.64-0.46-0.9-1.28-1.07-2.04-0.29-1.24-0.47-2.5-0.56-3.77-0.02-0.3-0.03-0.63 0.11-0.9 0.85-1.6 4.86 2.43 5.44 3.16z" fill="#D81B60"/>
	
		<path d="m93.1 98.1c-5.88-1.03-11.8-3.33-17.6-5.95-1.33-0.64-2.61-1.31-3.89-1.99-2.12 1.2-4.4 2.17-6.78 2.89 6.31 3.53 11.6 5.44 15.4 6.58 6.57 1.96 9.26 1.6 9.82 1.52 2.16-0.33 4.35-2.78 3.01-3.05z" fill="#EC407A"/>
		<path d="m19.2 36.3c-0.65-1.2-1.62-4.18-1.62-4.18-1.72-0.21-3.13 2.01-2.5 5.78 0.37 2.17 10.2 26.8 39.1 48.3 3.8 2.82 7.35 5.07 10.6 6.9 0 0 2.3 1.52 5.44-0.1 2.66-1.37 1.34-2.8 1.34-2.8-23.4-12.3-39.3-29.9-52.4-53.9z" fill="#F06292"/>
		<path d="m99.6 92.7c-7.07-2.26-13.9-4.96-20.5-8.21-1.33 1.4-2.79 2.67-4.36 3.81 1.39 0.78 2.77 1.53 4.14 2.26 4.31 2.3 21.6 9.8 20.7 2.14z" fill="#EC407A"/>
		<path d="m79.2 84.5c-23.4-11.6-43.5-29.8-56.3-60.4-3.35 0.74-3 4.67-2.52 5.95 11.4 30.2 34.4 47 54.4 58.3 0 0 3.16 1.74 5.25-0.93 1.25-1.61-0.89-2.88-0.89-2.88z" fill="#F06292"/>
		<path d="m105 86.2c-7.41-2.11-14.3-5.04-20.7-8.5-0.82 1.59-1.78 3.1-2.86 4.5 5.12 2.6 10.5 4.8 16.2 6.45 7.18 2.07 8.73-2.22 7.38-2.45z" fill="#EC407A"/>
		<path d="m29 17.8c-0.82-1.73-4.28 0.9-3.68 3.63 3.73 13.6 21 44.1 55.7 60.8 0 0 2.78 1.22 3.84-1.1 1.06-2.33-0.97-3.4-0.97-3.4-36.5-19.4-50.4-47.3-54.9-59.9z" fill="#F06292"/>
		<path d="m110 80c-8.36-3.08-15.8-6.41-22.6-10.2-0.05 0.39-0.11 0.78-0.2 1.14-0.35 1.51-0.82 2.96-1.38 4.35 5.91 3.03 12.3 5.62 19.1 7.77 5.48 1.53 6.34-2.61 5.06-3.1z" fill="#EC407A"/>
		<path d="m87 69.8c-24.7-13.6-37.2-29.1-51-55.9-1.68-2.7-5.77-0.23-4.18 2.64 12.1 26.3 25.1 42.7 53.6 58.8 0 0 2.18 0.85 3.02-1.69 0.53-1.6 0.03-3.01-1.44-3.81z" fill="#F06292"/>
	
	<path d="m70.5 124c-2.77 0-5.58-0.07-8.39-0.23-17.3-0.96-39-6.92-45.5-17.8-2.05-3.39-8.28-13.7 4.43-34.6 7.13-11.7 24.3-36.8 19.6-60.7 0 0-0.65-2.3 1.4-3.17 3.03-1.28 3.52 1.32 3.52 1.32 5.99 27.9-11.9 53.3-19.4 65.6-9.71 16-7.17 23.9-4.42 28.4 3.18 5.26 16.6 13.6 40.7 14.9 30.3 1.67 48.8-5.9 50.7-8.61 0.07-1.02-0.59-2.22-12-2.46-3.15-0.07-2.86-4.67-1.28-4.85 4.62-0.54 13.3-0.54 17.3 2.34 2.01 1.46 2.85 3.61 2.06 6.11-2.37 7.49-23.5 13.7-48.8 13.7zm42.7-14.9z" fill="#FF80AB"/>

</svg>
