<?xml version="1.0" encoding="UTF-8" standalone="no"?>
<!-- Created with Inkscape (http://www.inkscape.org/) -->

<svg
   version="1.1"
   id="svg1"
   width="80.000053mm"
   height="80.000053mm"
   viewBox="0 0 302.36241 302.36241"
   sodipodi:docname="cat-ours_sticker_red.svg"
   inkscape:version="1.4 (e7c3feb100, 2024-10-09)"
   inkscape:export-filename="/home/tommi/Desktop/cat-ours_sticker_red.png"
   inkscape:export-xdpi="650.2395"
   inkscape:export-ydpi="650.2395"
   xmlns:inkscape="http://www.inkscape.org/namespaces/inkscape"
   xmlns:sodipodi="http://sodipodi.sourceforge.net/DTD/sodipodi-0.dtd"
   xmlns="http://www.w3.org/2000/svg"
   xmlns:svg="http://www.w3.org/2000/svg">
  <defs
     id="defs1">
    <clipPath
       clipPathUnits="userSpaceOnUse"
       id="clipPath4">
      <path
         d="M 0,255.118 H 255.118 V 0 H 0 Z"
         transform="translate(-117.0966,-30.648003)"
         id="path4" />
    </clipPath>
    <clipPath
       clipPathUnits="userSpaceOnUse"
       id="clipPath6">
      <path
         d="M 0,255.118 H 255.118 V 0 H 0 Z"
         transform="translate(-125.4472,-23.595303)"
         id="path6" />
    </clipPath>
    <clipPath
       clipPathUnits="userSpaceOnUse"
       id="clipPath8">
      <path
         d="M 0,255.118 H 255.118 V 0 H 0 Z"
         transform="translate(-138.62151,-25.166598)"
         id="path8" />
    </clipPath>
    <clipPath
       clipPathUnits="userSpaceOnUse"
       id="clipPath10">
      <path
         d="M 0,255.118 H 255.118 V 0 H 0 Z"
         transform="translate(-141.1918,-24.027903)"
         id="path10" />
    </clipPath>
    <clipPath
       clipPathUnits="userSpaceOnUse"
       id="clipPath12">
      <path
         d="M 0,255.118 H 255.118 V 0 H 0 Z"
         transform="translate(-147.6234,-23.224203)"
         id="path12" />
    </clipPath>
    <clipPath
       clipPathUnits="userSpaceOnUse"
       id="clipPath14">
      <path
         d="M 0,255.118 H 255.118 V 0 H 0 Z"
         transform="translate(-153.88611,-30.648003)"
         id="path14" />
    </clipPath>
    <clipPath
       clipPathUnits="userSpaceOnUse"
       id="clipPath16">
      <path
         d="M 0,255.118 H 255.118 V 0 H 0 Z"
         transform="translate(-158.54241,-30.648003)"
         id="path16" />
    </clipPath>
    <clipPath
       clipPathUnits="userSpaceOnUse"
       id="clipPath18">
      <path
         d="M 0,255.118 H 255.118 V 0 H 0 Z"
         transform="translate(-164.974,-25.166598)"
         id="path18" />
    </clipPath>
    <clipPath
       clipPathUnits="userSpaceOnUse"
       id="clipPath20">
      <path
         d="M 0,255.118 H 255.118 V 0 H 0 Z"
         transform="translate(-167.8324,-24.650898)"
         id="path20" />
    </clipPath>
    <clipPath
       clipPathUnits="userSpaceOnUse"
       id="clipPath22">
      <path
         d="M 0,255.118 H 255.118 V 0 H 0 Z"
         transform="translate(-175.27191,-28.200701)"
         id="path22" />
    </clipPath>
    <clipPath
       clipPathUnits="userSpaceOnUse"
       id="clipPath24">
      <path
         d="M 0,255.118 H 255.118 V 0 H 0 Z"
         transform="translate(-180.0238,-28.200701)"
         id="path24" />
    </clipPath>
    <clipPath
       clipPathUnits="userSpaceOnUse"
       id="clipPath26">
      <path
         d="M 0,255.118 H 255.118 V 0 H 0 Z"
         transform="translate(-191.4574,-25.910703)"
         id="path26" />
    </clipPath>
    <clipPath
       clipPathUnits="userSpaceOnUse"
       id="clipPath28">
      <path
         d="M 0,255.118 H 255.118 V 0 H 0 Z"
         transform="translate(-195.1068,-23.595303)"
         id="path28" />
    </clipPath>
    <clipPath
       clipPathUnits="userSpaceOnUse"
       id="clipPath30">
      <path
         d="M 0,255.118 H 255.118 V 0 H 0 Z"
         transform="translate(-199.4281,-23.224203)"
         id="path30" />
    </clipPath>
    <clipPath
       clipPathUnits="userSpaceOnUse"
       id="clipPath32">
      <path
         d="M 0,255.118 H 255.118 V 0 H 0 Z"
         transform="translate(-203.19571,-28.200701)"
         id="path32" />
    </clipPath>
    <clipPath
       clipPathUnits="userSpaceOnUse"
       id="clipPath34">
      <path
         d="M 0,255.118 H 255.118 V 0 H 0 Z"
         transform="translate(-212.16931,-25.166598)"
         id="path34" />
    </clipPath>
    <clipPath
       clipPathUnits="userSpaceOnUse"
       id="clipPath36">
      <path
         d="M 0,255.118 H 255.118 V 0 H 0 Z"
         transform="translate(-214.78851,-25.143101)"
         id="path36" />
    </clipPath>
    <clipPath
       clipPathUnits="userSpaceOnUse"
       id="clipPath38">
      <path
         d="M 0,255.118 H 255.118 V 0 H 0 Z"
         transform="translate(-222.1078,-30.648003)"
         id="path38" />
    </clipPath>
    <clipPath
       clipPathUnits="userSpaceOnUse"
       id="clipPath40">
      <path
         d="M 0,255.118 H 255.118 V 0 H 0 Z"
         transform="translate(-228.37251,-24.027903)"
         id="path40" />
    </clipPath>
    <clipPath
       clipPathUnits="userSpaceOnUse"
       id="clipPath42">
      <path
         d="M 0,255.118 H 255.118 V 0 H 0 Z"
         id="path42" />
    </clipPath>
    <clipPath
       clipPathUnits="userSpaceOnUse"
       id="clipPath44">
      <path
         d="M 0,255.118 H 255.118 V 0 H 0 Z"
         transform="translate(-115.1719,-105.6902)"
         id="path44" />
    </clipPath>
    <clipPath
       clipPathUnits="userSpaceOnUse"
       id="clipPath46">
      <path
         d="M 0,255.118 H 255.118 V 0 H 0 Z"
         transform="translate(-146.58471,-105.6902)"
         id="path46" />
    </clipPath>
    <clipPath
       clipPathUnits="userSpaceOnUse"
       id="clipPath48">
      <path
         d="M 0,255.118 H 255.118 V 0 H 0 Z"
         transform="translate(-232.97331,-105.6902)"
         id="path48" />
    </clipPath>
    <clipPath
       clipPathUnits="userSpaceOnUse"
       id="clipPath50">
      <path
         d="M 0,255.118 H 255.118 V 0 H 0 Z"
         id="path50" />
    </clipPath>
    <clipPath
       clipPathUnits="userSpaceOnUse"
       id="clipPath52">
      <path
         d="M 0,255.118 H 255.118 V 0 H 0 Z"
         id="path52" />
    </clipPath>
    <clipPath
       clipPathUnits="userSpaceOnUse"
       id="clipPath54">
      <path
         d="M 0,255.118 H 255.118 V 0 H 0 Z"
         id="path54" />
    </clipPath>
    <clipPath
       clipPathUnits="userSpaceOnUse"
       id="clipPath56">
      <path
         d="M 0,255.118 H 255.118 V 0 H 0 Z"
         id="path56" />
    </clipPath>
    <clipPath
       clipPathUnits="userSpaceOnUse"
       id="clipPath58">
      <path
         d="M 0,255.118 H 255.118 V 0 H 0 Z"
         id="path58" />
    </clipPath>
    <clipPath
       clipPathUnits="userSpaceOnUse"
       id="clipPath60">
      <path
         d="M 0,255.118 H 255.118 V 0 H 0 Z"
         id="path60" />
    </clipPath>
    <clipPath
       clipPathUnits="userSpaceOnUse"
       id="clipPath62">
      <path
         d="M 0,255.118 H 255.118 V 0 H 0 Z"
         id="path62" />
    </clipPath>
    <clipPath
       clipPathUnits="userSpaceOnUse"
       id="clipPath64">
      <path
         d="M 0,255.118 H 255.118 V 0 H 0 Z"
         id="path64" />
    </clipPath>
    <clipPath
       clipPathUnits="userSpaceOnUse"
       id="clipPath66">
      <path
         d="M 0,255.118 H 255.118 V 0 H 0 Z"
         transform="translate(-75.335302,-105.389)"
         id="path66" />
    </clipPath>
    <clipPath
       clipPathUnits="userSpaceOnUse"
       id="clipPath68">
      <path
         d="M 0,255.118 H 255.118 V 0 H 0 Z"
         id="path68" />
    </clipPath>
    <clipPath
       clipPathUnits="userSpaceOnUse"
       id="clipPath70">
      <path
         d="M 0,255.118 H 255.118 V 0 H 0 Z"
         id="path70" />
    </clipPath>
    <clipPath
       clipPathUnits="userSpaceOnUse"
       id="clipPath72">
      <path
         d="M 0,255.118 H 255.118 V 0 H 0 Z"
         id="path72" />
    </clipPath>
    <clipPath
       clipPathUnits="userSpaceOnUse"
       id="clipPath74">
      <path
         d="M 0,255.118 H 255.118 V 0 H 0 Z"
         id="path74" />
    </clipPath>
    <clipPath
       clipPathUnits="userSpaceOnUse"
       id="clipPath76">
      <path
         d="M 0,255.118 H 255.118 V 0 H 0 Z"
         transform="translate(-59.628901,-89.682702)"
         id="path76" />
    </clipPath>
    <clipPath
       clipPathUnits="userSpaceOnUse"
       id="clipPath78">
      <path
         d="M 0,255.118 H 255.118 V 0 H 0 Z"
         id="path78" />
    </clipPath>
    <clipPath
       clipPathUnits="userSpaceOnUse"
       id="clipPath80">
      <path
         d="M 0,255.118 H 255.118 V 0 H 0 Z"
         transform="translate(-43.922601,-73.976299)"
         id="path80" />
    </clipPath>
    <clipPath
       clipPathUnits="userSpaceOnUse"
       id="clipPath82">
      <path
         d="M 0,255.118 H 255.118 V 0 H 0 Z"
         id="path82" />
    </clipPath>
    <clipPath
       clipPathUnits="userSpaceOnUse"
       id="clipPath84">
      <path
         d="M 0,255.118 H 255.118 V 0 H 0 Z"
         id="path84" />
    </clipPath>
    <clipPath
       clipPathUnits="userSpaceOnUse"
       id="clipPath86">
      <path
         d="M 0,255.118 H 255.118 V 0 H 0 Z"
         id="path86" />
    </clipPath>
    <clipPath
       clipPathUnits="userSpaceOnUse"
       id="clipPath88">
      <path
         d="M 0,255.118 H 255.118 V 0 H 0 Z"
         id="path88" />
    </clipPath>
    <clipPath
       clipPathUnits="userSpaceOnUse"
       id="clipPath90">
      <path
         d="M 0,255.118 H 255.118 V 0 H 0 Z"
         id="path90" />
    </clipPath>
    <clipPath
       clipPathUnits="userSpaceOnUse"
       id="clipPath92">
      <path
         d="M 0,255.118 H 255.118 V 0 H 0 Z"
         id="path92" />
    </clipPath>
    <clipPath
       clipPathUnits="userSpaceOnUse"
       id="clipPath94">
      <path
         d="M 0,255.118 H 255.118 V 0 H 0 Z"
         id="path94" />
    </clipPath>
    <clipPath
       clipPathUnits="userSpaceOnUse"
       id="clipPath96">
      <path
         d="M 0,255.118 H 255.118 V 0 H 0 Z"
         id="path96" />
    </clipPath>
    <clipPath
       clipPathUnits="userSpaceOnUse"
       id="clipPath98">
      <path
         d="M 0,255.118 H 255.118 V 0 H 0 Z"
         id="path98" />
    </clipPath>
    <clipPath
       clipPathUnits="userSpaceOnUse"
       id="clipPath100">
      <path
         d="M 0,255.118 H 255.118 V 0 H 0 Z"
         id="path100" />
    </clipPath>
    <clipPath
       clipPathUnits="userSpaceOnUse"
       id="clipPath102">
      <path
         d="M 0,255.118 H 255.118 V 0 H 0 Z"
         transform="translate(-67.485701,-81.833105)"
         id="path102" />
    </clipPath>
    <clipPath
       clipPathUnits="userSpaceOnUse"
       id="clipPath104">
      <path
         d="M 0,255.118 H 255.118 V 0 H 0 Z"
         id="path104" />
    </clipPath>
    <clipPath
       clipPathUnits="userSpaceOnUse"
       id="clipPath106">
      <path
         d="M 0,255.118 H 255.118 V 0 H 0 Z"
         id="path106" />
    </clipPath>
    <clipPath
       clipPathUnits="userSpaceOnUse"
       id="clipPath108">
      <path
         d="M 0,255.118 H 255.118 V 0 H 0 Z"
         transform="translate(-51.779401,-66.126799)"
         id="path108" />
    </clipPath>
    <clipPath
       clipPathUnits="userSpaceOnUse"
       id="clipPath110">
      <path
         d="M 0,255.118 H 255.118 V 0 H 0 Z"
         transform="translate(-43.922601,-26.857203)"
         id="path110" />
    </clipPath>
    <clipPath
       clipPathUnits="userSpaceOnUse"
       id="clipPath112">
      <path
         d="M 0,255.118 H 255.118 V 0 H 0 Z"
         id="path112" />
    </clipPath>
    <clipPath
       clipPathUnits="userSpaceOnUse"
       id="clipPath114">
      <path
         d="M 0,255.118 H 255.118 V 0 H 0 Z"
         transform="translate(-28.216201,-42.563599)"
         id="path114" />
    </clipPath>
    <clipPath
       clipPathUnits="userSpaceOnUse"
       id="clipPath116">
      <path
         d="M 0,255.118 H 255.118 V 0 H 0 Z"
         transform="translate(-36.073001,-73.976299)"
         id="path116" />
    </clipPath>
    <clipPath
       clipPathUnits="userSpaceOnUse"
       id="clipPath118">
      <path
         d="M 0,255.118 H 255.118 V 0 H 0 Z"
         transform="translate(-24.884701,-214.37361)"
         id="path118" />
    </clipPath>
    <clipPath
       clipPathUnits="userSpaceOnUse"
       id="clipPath120">
      <path
         d="M 0,255.118 H 255.118 V 0 H 0 Z"
         transform="translate(-38.043801,-234.95561)"
         id="path120" />
    </clipPath>
    <clipPath
       clipPathUnits="userSpaceOnUse"
       id="clipPath122">
      <path
         d="M 0,255.118 H 255.118 V 0 H 0 Z"
         transform="translate(-71.399302,-221.12851)"
         id="path122" />
    </clipPath>
    <clipPath
       clipPathUnits="userSpaceOnUse"
       id="clipPath124">
      <path
         d="M 0,255.118 H 255.118 V 0 H 0 Z"
         id="path124" />
    </clipPath>
    <clipPath
       clipPathUnits="userSpaceOnUse"
       id="clipPath126">
      <path
         d="M 0,255.118 H 255.118 V 0 H 0 Z"
         transform="translate(-31.393401,-199.81501)"
         id="path126" />
    </clipPath>
    <clipPath
       clipPathUnits="userSpaceOnUse"
       id="clipPath128">
      <path
         d="M 0,255.118 H 255.118 V 0 H 0 Z"
         transform="translate(-55.264501,-186.3736)"
         id="path128" />
    </clipPath>
    <clipPath
       clipPathUnits="userSpaceOnUse"
       id="clipPath130">
      <path
         d="M 0,255.118 H 255.118 V 0 H 0 Z"
         transform="translate(-79.589702,-193.1285)"
         id="path130" />
    </clipPath>
    <clipPath
       clipPathUnits="userSpaceOnUse"
       id="clipPath132">
      <path
         d="M 0,255.118 H 255.118 V 0 H 0 Z"
         transform="translate(-87.989202,-199.81501)"
         id="path132" />
    </clipPath>
    <clipPath
       clipPathUnits="userSpaceOnUse"
       id="clipPath134">
      <path
         d="M 0,255.118 H 255.118 V 0 H 0 Z"
         transform="translate(-101.8485,-199.81501)"
         id="path134" />
    </clipPath>
    <clipPath
       clipPathUnits="userSpaceOnUse"
       id="clipPath136">
      <path
         d="M 0,255.118 H 255.118 V 0 H 0 Z"
         transform="translate(-135.20451,-193.1285)"
         id="path136" />
    </clipPath>
    <clipPath
       clipPathUnits="userSpaceOnUse"
       id="clipPath138">
      <path
         d="M 0,255.118 H 255.118 V 0 H 0 Z"
         transform="translate(-145.8451,-186.3736)"
         id="path138" />
    </clipPath>
    <clipPath
       clipPathUnits="userSpaceOnUse"
       id="clipPath140">
      <path
         d="M 0,255.118 H 255.118 V 0 H 0 Z"
         id="path140" />
    </clipPath>
    <clipPath
       clipPathUnits="userSpaceOnUse"
       id="clipPath142">
      <path
         d="M 0,255.118 H 255.118 V 0 H 0 Z"
         transform="translate(-30.413001,-159.6334)"
         id="path142" />
    </clipPath>
    <clipPath
       clipPathUnits="userSpaceOnUse"
       id="clipPath144">
      <path
         d="M 0,255.118 H 255.118 V 0 H 0 Z"
         transform="translate(-70.874902,-162.9586)"
         id="path144" />
    </clipPath>
    <clipPath
       clipPathUnits="userSpaceOnUse"
       id="clipPath146">
      <path
         d="M 0,255.118 H 255.118 V 0 H 0 Z"
         transform="translate(-79.204002,-161.45371)"
         id="path146" />
    </clipPath>
    <clipPath
       clipPathUnits="userSpaceOnUse"
       id="clipPath148">
      <path
         d="M 0,255.118 H 255.118 V 0 H 0 Z"
         transform="translate(-100.9042,-171.815)"
         id="path148" />
    </clipPath>
    <clipPath
       clipPathUnits="userSpaceOnUse"
       id="clipPath150">
      <path
         d="M 0,255.118 H 255.118 V 0 H 0 Z"
         transform="translate(-113.3632,-159.6334)"
         id="path150" />
    </clipPath>
    <clipPath
       clipPathUnits="userSpaceOnUse"
       id="clipPath152">
      <path
         d="M 0,255.118 H 255.118 V 0 H 0 Z"
         id="path152" />
    </clipPath>
  </defs>
  <sodipodi:namedview
     id="namedview1"
     pagecolor="#ffffff"
     bordercolor="#000000"
     borderopacity="0.25"
     inkscape:showpageshadow="2"
     inkscape:pageopacity="0.0"
     inkscape:pagecheckerboard="0"
     inkscape:deskcolor="#d1d1d1"
     inkscape:zoom="1.6061532"
     inkscape:cx="129.50196"
     inkscape:cy="113.93682"
     inkscape:window-width="1503"
     inkscape:window-height="933"
     inkscape:window-x="0"
     inkscape:window-y="0"
     inkscape:window-maximized="1"
     inkscape:current-layer="layer-MC0"
     inkscape:document-units="mm">
    <inkscape:page
       x="0"
       y="0"
       inkscape:label="1"
       id="page1"
       width="302.36243"
       height="302.36243"
       bleed="18.8976 18.897333 18.897333 18.8976"
       margin="0" />
  </sodipodi:namedview>
  <g
     id="layer-MC0"
     inkscape:groupmode="layer"
     inkscape:label="Layer 1">
    <path
       id="path1"
       d="M -18.897638,321.25984 H 321.25985 V -18.897638 H -18.897638 Z"
       style="fill:#dc143c;fill-opacity:1;fill-rule:nonzero;stroke:none;stroke-width:1.33495" />
    <path
       id="path3"
       d="m 0,0 h 1.511 v -3.179 h 0.216 c 0.192,0.384 0.66,0.828 1.714,0.828 1.392,0 2.316,-1.019 2.316,-2.495 v -3.55 H 4.245 v 3.43 c 0,0.901 -0.455,1.344 -1.271,1.344 -0.923,0 -1.463,-0.648 -1.463,-1.751 V -8.396 H 0 Z"
       style="fill:#000000;fill-opacity:1;fill-rule:nonzero;stroke:none"
       transform="matrix(1.3333333,0,0,-1.3333333,137.2312,280.39573)"
       clip-path="url(#clipPath4)" />
    <path
       id="path5"
       d="M 0,0 V 3.358 H -1.487 V 4.605 H 0 V 6.453 H 1.512 V 4.605 H 3.91 V 6.453 H 5.42 V 4.605 H 7.052 V 3.358 H 5.42 V 0.265 c 0,-0.241 0.121,-0.361 0.336,-0.361 H 6.908 V -1.343 H 5.229 C 4.437,-1.343 3.91,-0.815 3.91,0 V 3.358 H 1.512 V 0.265 c 0,-0.241 0.119,-0.361 0.336,-0.361 h 1.15 V -1.343 H 1.319 C 0.528,-1.343 0,-0.815 0,0"
       style="fill:#000000;fill-opacity:1;fill-rule:nonzero;stroke:none"
       transform="matrix(1.3333333,0,0,-1.3333333,148.36533,289.79933)"
       clip-path="url(#clipPath6)" />
    <path
       id="path7"
       d="m 0,0 v 0.12 c 0,1.151 -0.708,1.764 -1.631,1.764 -0.924,0 -1.631,-0.613 -1.631,-1.764 V 0 c 0,-1.151 0.696,-1.763 1.631,-1.763 C -0.695,-1.763 0,-1.151 0,0 m -4.749,3.034 h 1.487 V 2.315 h 0.216 c 0.275,0.456 0.791,0.887 1.871,0.887 1.427,0 2.686,-1.102 2.686,-3.046 v -0.192 c 0,-1.943 -1.247,-3.046 -2.686,-3.046 -1.08,0 -1.596,0.432 -1.847,0.852 h -0.216 v -3.082 h -1.511 z"
       style="fill:#000000;fill-opacity:1;fill-rule:nonzero;stroke:none"
       transform="matrix(1.3333333,0,0,-1.3333333,165.93107,287.70427)"
       clip-path="url(#clipPath8)" />
    <path
       id="path9"
       d="m 0,0 1.391,0.359 c 0.156,-0.839 0.719,-1.103 1.416,-1.103 0.695,0 1.031,0.276 1.031,0.647 0,0.372 -0.3,0.54 -1.008,0.672 L 2.494,0.636 c -1.247,0.227 -2.278,0.695 -2.278,1.87 0,1.176 0.935,1.835 2.35,1.835 1.331,0 2.244,-0.648 2.519,-1.607 L 3.682,2.303 C 3.55,2.914 3.142,3.142 2.566,3.142 1.991,3.142 1.679,2.926 1.679,2.578 1.679,2.194 2.015,2.038 2.566,1.942 L 2.902,1.883 C 4.245,1.643 5.301,1.259 5.301,0.012 5.301,-1.235 4.317,-1.943 2.807,-1.943 1.247,-1.943 0.204,-1.248 0,0"
       style="fill:#000000;fill-opacity:1;fill-rule:nonzero;stroke:none"
       transform="matrix(1.3333333,0,0,-1.3333333,169.35813,289.22253)"
       clip-path="url(#clipPath10)" />
    <path
       id="path11"
       d="M 0,0 C 0,0.672 0.492,1.139 1.14,1.139 1.787,1.139 2.279,0.672 2.279,0 2.279,-0.672 1.787,-1.14 1.14,-1.14 0.492,-1.14 0,-0.672 0,0 M 0,4.006 C 0,4.677 0.492,5.145 1.14,5.145 1.787,5.145 2.279,4.677 2.279,4.006 2.279,3.334 1.787,2.866 1.14,2.866 0.492,2.866 0,3.334 0,4.006"
       style="fill:#000000;fill-opacity:1;fill-rule:nonzero;stroke:none"
       transform="matrix(1.3333333,0,0,-1.3333333,177.9336,290.29413)"
       clip-path="url(#clipPath12)" />
    <path
       id="path13"
       d="m 0,0 h 1.512 l -3.527,-10.794 h -1.51 z"
       style="fill:#000000;fill-opacity:1;fill-rule:nonzero;stroke:none"
       transform="matrix(1.3333333,0,0,-1.3333333,186.28387,280.39573)"
       clip-path="url(#clipPath14)" />
    <path
       id="path15"
       d="m 0,0 h 1.512 l -3.527,-10.794 h -1.51 z"
       style="fill:#000000;fill-opacity:1;fill-rule:nonzero;stroke:none"
       transform="matrix(1.3333333,0,0,-1.3333333,192.49227,280.39573)"
       clip-path="url(#clipPath16)" />
    <path
       id="path17"
       d="m 0,0 v 0.12 c 0,1.115 -0.672,1.739 -1.607,1.739 -0.936,0 -1.608,-0.624 -1.608,-1.739 V 0 c 0,-1.115 0.684,-1.738 1.608,-1.738 C -0.684,-1.738 0,-1.115 0,0 m -4.726,-0.036 v 0.192 c 0,1.919 1.343,3.046 3.119,3.046 1.775,0 3.118,-1.127 3.118,-3.046 v -0.192 c 0,-1.918 -1.343,-3.046 -3.118,-3.046 -1.776,0 -3.119,1.128 -3.119,3.046"
       style="fill:#000000;fill-opacity:1;fill-rule:nonzero;stroke:none"
       transform="matrix(1.3333333,0,0,-1.3333333,201.06773,287.70427)"
       clip-path="url(#clipPath18)" />
    <path
       id="path19"
       d="M 0,0 V 3.55 H 1.511 V 0.12 c 0,-0.899 0.456,-1.343 1.271,-1.343 0.923,0 1.463,0.648 1.463,1.751 V 3.55 H 5.757 V -2.398 H 4.27 v 0.779 H 4.054 C 3.861,-2.026 3.382,-2.494 2.314,-2.494 0.923,-2.494 0,-1.475 0,0"
       style="fill:#000000;fill-opacity:1;fill-rule:nonzero;stroke:none"
       transform="matrix(1.3333333,0,0,-1.3333333,204.87893,288.39187)"
       clip-path="url(#clipPath20)" />
    <path
       id="path21"
       d="m 0,0 h 1.487 v -0.671 h 0.216 c 0.168,0.48 0.6,0.695 1.151,0.695 H 3.573 V -1.318 H 2.83 c -0.767,0 -1.319,-0.409 -1.319,-1.248 V -5.948 H 0 Z"
       style="fill:#000000;fill-opacity:1;fill-rule:nonzero;stroke:none"
       transform="matrix(1.3333333,0,0,-1.3333333,214.79827,283.6588)"
       clip-path="url(#clipPath22)" />
    <path
       id="path23"
       d="m 0,0 h 1.487 v -0.779 h 0.216 c 0.192,0.408 0.671,0.876 1.738,0.876 1.392,0 2.316,-1.02 2.316,-2.495 v -3.55 H 4.245 v 3.429 c 0,0.901 -0.455,1.344 -1.271,1.344 -0.923,0 -1.463,-0.647 -1.463,-1.751 V -5.948 H 0 Z"
       style="fill:#000000;fill-opacity:1;fill-rule:nonzero;stroke:none"
       transform="matrix(1.3333333,0,0,-1.3333333,221.13413,283.6588)"
       clip-path="url(#clipPath24)" />
    <path
       id="path25"
       d="M 0,0 C -0.071,0.684 -0.587,1.14 -1.367,1.14 -2.183,1.14 -2.674,0.684 -2.782,0 Z m -4.329,-0.756 v 0.144 c 0,1.871 1.199,3.07 2.975,3.07 1.75,0 2.889,-1.247 2.889,-3.07 v -0.516 h -4.329 c 0.036,-0.815 0.672,-1.379 1.511,-1.379 0.84,0 1.187,0.432 1.391,0.888 L 1.344,-2.267 C 1.008,-2.902 0.3,-3.826 -1.331,-3.826 c -1.787,0 -2.998,1.199 -2.998,3.07"
       style="fill:#000000;fill-opacity:1;fill-rule:nonzero;stroke:none"
       transform="matrix(1.3333333,0,0,-1.3333333,236.37893,286.71213)"
       clip-path="url(#clipPath26)" />
    <path
       id="path27"
       d="M 0,0 V 3.358 H -1.487 V 4.605 H 0 V 6.453 H 1.512 V 4.605 H 3.143 V 3.358 H 1.512 V 0.265 c 0,-0.241 0.119,-0.361 0.336,-0.361 h 1.15 V -1.343 H 1.319 C 0.528,-1.343 0,-0.815 0,0"
       style="fill:#000000;fill-opacity:1;fill-rule:nonzero;stroke:none"
       transform="matrix(1.3333333,0,0,-1.3333333,241.2448,289.79933)"
       clip-path="url(#clipPath28)" />
    <path
       id="path29"
       d="M 0,0 C 0,0.672 0.492,1.139 1.14,1.139 1.787,1.139 2.279,0.672 2.279,0 2.279,-0.672 1.787,-1.14 1.14,-1.14 0.492,-1.14 0,-0.672 0,0"
       style="fill:#000000;fill-opacity:1;fill-rule:nonzero;stroke:none"
       transform="matrix(1.3333333,0,0,-1.3333333,247.00653,290.29413)"
       clip-path="url(#clipPath30)" />
    <path
       id="path31"
       d="m 0,0 h 1.487 v -0.671 h 0.216 c 0.168,0.48 0.6,0.695 1.151,0.695 H 3.573 V -1.318 H 2.83 c -0.767,0 -1.319,-0.409 -1.319,-1.248 V -5.948 H 0 Z"
       style="fill:#000000;fill-opacity:1;fill-rule:nonzero;stroke:none"
       transform="matrix(1.3333333,0,0,-1.3333333,252.03,283.6588)"
       clip-path="url(#clipPath32)" />
    <path
       id="path33"
       d="m 0,0 v 0.12 c 0,1.115 -0.672,1.739 -1.607,1.739 -0.936,0 -1.608,-0.624 -1.608,-1.739 V 0 c 0,-1.115 0.684,-1.738 1.608,-1.738 C -0.684,-1.738 0,-1.115 0,0 m -4.726,-0.036 v 0.192 c 0,1.919 1.343,3.046 3.119,3.046 1.775,0 3.118,-1.127 3.118,-3.046 v -0.192 c 0,-1.918 -1.343,-3.046 -3.118,-3.046 -1.776,0 -3.119,1.128 -3.119,3.046"
       style="fill:#000000;fill-opacity:1;fill-rule:nonzero;stroke:none"
       transform="matrix(1.3333333,0,0,-1.3333333,263.9948,287.70427)"
       clip-path="url(#clipPath34)" />
    <path
       id="path35"
       d="m 0,0 v 0.168 c 0,1.942 1.355,3.058 3.082,3.058 1.703,0 2.699,-0.984 2.95,-2.303 L 4.569,0.611 C 4.474,1.331 4.029,1.883 3.118,1.883 2.207,1.883 1.511,1.271 1.511,0.144 V 0.023 c 0,-1.127 0.696,-1.738 1.607,-1.738 0.911,0 1.356,0.516 1.487,1.283 L 6.068,-0.78 C 5.757,-2.063 4.785,-3.059 3.082,-3.059 1.355,-3.059 0,-1.943 0,0"
       style="fill:#000000;fill-opacity:1;fill-rule:nonzero;stroke:none"
       transform="matrix(1.3333333,0,0,-1.3333333,267.48707,287.7356)"
       clip-path="url(#clipPath36)" />
    <path
       id="path37"
       d="m 0,0 h 1.511 v -4.642 h 0.216 l 1.966,2.195 H 5.66 L 2.914,-5.325 5.757,-8.396 H 3.813 L 1.727,-6.033 H 1.511 V -8.396 H 0 Z"
       style="fill:#000000;fill-opacity:1;fill-rule:nonzero;stroke:none"
       transform="matrix(1.3333333,0,0,-1.3333333,277.24613,280.39573)"
       clip-path="url(#clipPath38)" />
    <path
       id="path39"
       d="m 0,0 1.391,0.359 c 0.156,-0.839 0.719,-1.103 1.416,-1.103 0.695,0 1.031,0.276 1.031,0.647 0,0.372 -0.3,0.54 -1.008,0.672 L 2.494,0.636 c -1.247,0.227 -2.278,0.695 -2.278,1.87 0,1.176 0.935,1.835 2.35,1.835 1.331,0 2.244,-0.648 2.519,-1.607 L 3.682,2.303 C 3.55,2.914 3.143,3.142 2.566,3.142 1.99,3.142 1.679,2.926 1.679,2.578 1.679,2.194 2.015,2.038 2.566,1.942 L 2.902,1.883 C 4.245,1.643 5.301,1.259 5.301,0.012 5.301,-1.235 4.317,-1.943 2.807,-1.943 1.247,-1.943 0.204,-1.248 0,0"
       style="fill:#000000;fill-opacity:1;fill-rule:nonzero;stroke:none"
       transform="matrix(1.3333333,0,0,-1.3333333,285.59907,289.22253)"
       clip-path="url(#clipPath40)" />
    <path
       id="path41"
       d="m 141.06842,79.647308 -13.25688,-0.146276 v 13.239261 l 13.84198,-1.586085 z"
       style="fill:#ffffff;fill-opacity:1;fill-rule:nonzero;stroke:none"
       transform="matrix(1.3333333,0,0,-1.3333333,-19.234169,320.97436)"
       clip-path="url(#clipPath42)"
       sodipodi:nodetypes="ccccc" />
    <path
       id="path43"
       d="m -3.803176,1.316484 0.292552,-19.509176 16.150162,0.146273 5e-6,20.094283 z"
       style="fill:#00fa9a;fill-opacity:1;fill-rule:nonzero;stroke:none"
       transform="matrix(1.3333333,0,0,-1.3333333,134.32849,180.05436)"
       clip-path="url(#clipPath44)"
       sodipodi:nodetypes="ccccc" />
    <path
       id="path45"
       d="m -3.6569,0.438828 1.316484,-18.63152 h 14.43942 l -0.73138,19.509176 z"
       style="fill:#00fa9a;fill-opacity:1;fill-rule:nonzero;stroke:none"
       transform="matrix(1.3333333,0,0,-1.3333333,176.21116,180.05436)"
       clip-path="url(#clipPath46)"
       sodipodi:nodetypes="ccccc" />
    <path
       id="path47"
       d="m 0,0 h -7.857 v 7.857 h -7.849 v 7.849 h -7.857 v 7.857 h 7.857 v 7.85 h 7.849 v -7.85 h -7.849 v -7.857 h 7.849 V 7.857 H 0 Z m -78.532,-15.706 h -7.857 V 0 h 7.857 z m -15.713,-7.85 h -7.85 v 7.85 h 7.85 z m -15.707,7.85 h -7.849 V 0 h 7.849 z M 15.706,78.539 v 7.85 H 7.85 v 7.856 H 0 v 7.85 h -7.857 v 39.27 h -7.849 v 7.849 h -31.413 v -7.849 h -7.857 v -15.707 h -7.849 v -23.563 h 23.555 v 15.706 h 15.707 v -15.706 h -7.85 v -7.85 h -7.857 v -7.856 h -7.849 v -7.85 h -7.857 v -7.857 h -7.849 v -7.856 -7.85 h -7.857 V 47.119 39.27 h 7.857 V 23.563 h -7.857 V 39.27 h -7.85 v -7.857 h -7.857 v -7.85 h -15.706 v 7.85 h -7.857 v 7.857 h -7.849 V 15.706 h -7.857 V 7.857 h -7.85 v -23.563 h 7.85 v -7.85 h 7.857 v -7.857 h 7.849 v -15.706 h -7.849 v -7.85 h 7.849 7.857 v 7.85 h 7.85 v 7.857 h 23.563 v -7.857 h -15.707 v -7.85 h 31.413 v 7.85 h 7.857 v 7.857 h 7.849 v 7.849 h 7.857 v 15.707 h 7.85 v 7.856 h 7.857 v -7.856 h -7.857 v -7.85 H 0 v 7.85 h 7.85 v 7.856 h 7.856 V 7.857 h 7.85 v 70.682 z"
       style="fill:#000000;fill-opacity:1;fill-rule:nonzero;stroke:none"
       transform="matrix(1.3333333,0,0,-1.3333333,291.39649,180.05436)"
       clip-path="url(#clipPath48)"
       sodipodi:nodetypes="cccccccccccccccccccccccccccccccccccccccccccccccccccccccccccccccccccccccccccccccccccccccccccccccccccccccccccccccccccccccccccc" />
    <path
       id="path49"
       d="m 91.042,66.127 h -7.85 V 58.27 h 7.85 z"
       style="fill:#4b0082;fill-opacity:1;fill-rule:nonzero;stroke:none"
       transform="matrix(1.3333333,0,0,-1.3333333,-18.8976,321.25973)"
       clip-path="url(#clipPath50)" />
    <path
       id="path51"
       d="m 91.042,81.833 h -7.85 v -7.857 h 7.85 z"
       style="fill:#4b0082;fill-opacity:1;fill-rule:nonzero;stroke:none"
       transform="matrix(1.3333333,0,0,-1.3333333,-18.8976,321.25973)"
       clip-path="url(#clipPath52)" />
    <path
       id="path53"
       d="m 75.335,50.42 h 7.857 v 7.85 h -7.857 z"
       style="fill:#4b0082;fill-opacity:1;fill-rule:nonzero;stroke:none"
       transform="matrix(1.3333333,0,0,-1.3333333,-18.8976,321.25973)"
       clip-path="url(#clipPath54)" />
    <path
       id="path55"
       d="m 75.335,66.127 h 7.857 v 7.85 h -7.857 z"
       style="fill:#4b0082;fill-opacity:1;fill-rule:nonzero;stroke:none"
       transform="matrix(1.3333333,0,0,-1.3333333,-18.8976,321.25973)"
       clip-path="url(#clipPath56)" />
    <path
       id="path57"
       d="m 83.192,89.683 h -7.857 v -7.85 h 7.857 z"
       style="fill:#4b0082;fill-opacity:1;fill-rule:nonzero;stroke:none"
       transform="matrix(1.3333333,0,0,-1.3333333,-18.8976,321.25973)"
       clip-path="url(#clipPath58)" />
    <path
       id="path59"
       d="m 67.486,42.564 h 7.85 v 7.857 h -7.85 z"
       style="fill:#4b0082;fill-opacity:1;fill-rule:nonzero;stroke:none"
       transform="matrix(1.3333333,0,0,-1.3333333,-18.8976,321.25973)"
       clip-path="url(#clipPath60)" />
    <path
       id="path61"
       d="m 67.486,58.27 h 7.85 v 7.857 h -7.85 z"
       style="fill:#4b0082;fill-opacity:1;fill-rule:nonzero;stroke:none"
       transform="matrix(1.3333333,0,0,-1.3333333,-18.8976,321.25973)"
       clip-path="url(#clipPath62)" />
    <path
       id="path63"
       d="m 75.335,81.833 h -7.85 v -7.857 h 7.85 z"
       style="fill:#4b0082;fill-opacity:1;fill-rule:nonzero;stroke:none"
       transform="matrix(1.3333333,0,0,-1.3333333,-18.8976,321.25973)"
       clip-path="url(#clipPath64)" />
    <path
       id="path65"
       d="m 0,0 h -7.85 v -7.85 -7.856 H 0 v 7.856 z"
       style="fill:#4b0082;fill-opacity:1;fill-rule:nonzero;stroke:none"
       transform="matrix(1.3333333,0,0,-1.3333333,81.549467,180.74107)"
       clip-path="url(#clipPath66)" />
    <path
       id="path67"
       d="m 59.629,50.42 h 7.857 v 7.85 h -7.857 z"
       style="fill:#4b0082;fill-opacity:1;fill-rule:nonzero;stroke:none"
       transform="matrix(1.3333333,0,0,-1.3333333,-18.8976,321.25973)"
       clip-path="url(#clipPath68)" />
    <path
       id="path69"
       d="m 67.486,73.976 h -7.857 v -7.85 h 7.857 z"
       style="fill:#4b0082;fill-opacity:1;fill-rule:nonzero;stroke:none"
       transform="matrix(1.3333333,0,0,-1.3333333,-18.8976,321.25973)"
       clip-path="url(#clipPath70)" />
    <path
       id="path71"
       d="m 51.779,42.564 h 7.85 v 7.857 h -7.85 z"
       style="fill:#4b0082;fill-opacity:1;fill-rule:nonzero;stroke:none"
       transform="matrix(1.3333333,0,0,-1.3333333,-18.8976,321.25973)"
       clip-path="url(#clipPath72)" />
    <path
       id="path73"
       d="m 59.629,66.127 h -7.85 V 58.27 h 7.85 z"
       style="fill:#4b0082;fill-opacity:1;fill-rule:nonzero;stroke:none"
       transform="matrix(1.3333333,0,0,-1.3333333,-18.8976,321.25973)"
       clip-path="url(#clipPath74)" />
    <path
       id="path75"
       d="m 0,0 v 7.857 7.849 H -7.85 V 7.857 0 -7.85 -15.706 H 0 v 7.856 z"
       style="fill:#4b0082;fill-opacity:1;fill-rule:nonzero;stroke:none"
       transform="matrix(1.3333333,0,0,-1.3333333,60.6076,201.6828)"
       clip-path="url(#clipPath76)" />
    <path
       id="path77"
       d="m 43.923,50.42 h 7.857 v 7.85 h -7.857 z"
       style="fill:#4b0082;fill-opacity:1;fill-rule:nonzero;stroke:none"
       transform="matrix(1.3333333,0,0,-1.3333333,-18.8976,321.25973)"
       clip-path="url(#clipPath78)" />
    <path
       id="path79"
       d="m 0,0 v 7.857 7.849 7.857 H -7.85 V 15.706 7.857 0 -7.85 -15.706 H 0 v 7.856 z"
       style="fill:#4b0082;fill-opacity:1;fill-rule:nonzero;stroke:none"
       transform="matrix(1.3333333,0,0,-1.3333333,39.665867,222.62467)"
       clip-path="url(#clipPath80)" />
    <path
       id="path81"
       d="m 91.042,42.564 h -7.85 v -7.85 h 7.85 z"
       style="fill:#00fa9a;fill-opacity:1;fill-rule:nonzero;stroke:none"
       transform="matrix(1.3333333,0,0,-1.3333333,-18.8976,321.25973)"
       clip-path="url(#clipPath82)" />
    <path
       id="path83"
       d="m 91.042,73.976 h -7.85 v -7.85 h 7.85 z"
       style="fill:#00fa9a;fill-opacity:1;fill-rule:nonzero;stroke:none"
       transform="matrix(1.3333333,0,0,-1.3333333,-18.8976,321.25973)"
       clip-path="url(#clipPath84)" />
    <path
       id="path85"
       d="m 91.042,89.683 h -7.85 v -7.85 h 7.85 z"
       style="fill:#00fa9a;fill-opacity:1;fill-rule:nonzero;stroke:none"
       transform="matrix(1.3333333,0,0,-1.3333333,-18.8976,321.25973)"
       clip-path="url(#clipPath86)" />
    <path
       id="path87"
       d="m 75.335,58.27 h 7.857 v 7.857 h -7.857 z"
       style="fill:#00fa9a;fill-opacity:1;fill-rule:nonzero;stroke:none"
       transform="matrix(1.3333333,0,0,-1.3333333,-18.8976,321.25973)"
       clip-path="url(#clipPath88)" />
    <path
       id="path89"
       d="m 75.335,73.976 h 7.857 v 7.857 h -7.857 z"
       style="fill:#00fa9a;fill-opacity:1;fill-rule:nonzero;stroke:none"
       transform="matrix(1.3333333,0,0,-1.3333333,-18.8976,321.25973)"
       clip-path="url(#clipPath90)" />
    <path
       id="path91"
       d="m 83.192,97.539 h -7.857 v -7.857 h 7.857 z"
       style="fill:#00fa9a;fill-opacity:1;fill-rule:nonzero;stroke:none"
       transform="matrix(1.3333333,0,0,-1.3333333,-18.8976,321.25973)"
       clip-path="url(#clipPath92)" />
    <path
       id="path93"
       d="m 67.486,50.42 h 7.85 v 7.85 h -7.85 z"
       style="fill:#00fa9a;fill-opacity:1;fill-rule:nonzero;stroke:none"
       transform="matrix(1.3333333,0,0,-1.3333333,-18.8976,321.25973)"
       clip-path="url(#clipPath94)" />
    <path
       id="path95"
       d="m 67.486,66.127 h 7.85 v 7.85 h -7.85 z"
       style="fill:#00fa9a;fill-opacity:1;fill-rule:nonzero;stroke:none"
       transform="matrix(1.3333333,0,0,-1.3333333,-18.8976,321.25973)"
       clip-path="url(#clipPath96)" />
    <path
       id="path97"
       d="m 59.629,42.564 h 7.857 v 7.857 h -7.857 z"
       style="fill:#00fa9a;fill-opacity:1;fill-rule:nonzero;stroke:none"
       transform="matrix(1.3333333,0,0,-1.3333333,-18.8976,321.25973)"
       clip-path="url(#clipPath98)" />
    <path
       id="path99"
       d="m 59.629,58.27 h 7.857 v 7.857 h -7.857 z"
       style="fill:#00fa9a;fill-opacity:1;fill-rule:nonzero;stroke:none"
       transform="matrix(1.3333333,0,0,-1.3333333,-18.8976,321.25973)"
       clip-path="url(#clipPath100)" />
    <path
       id="path101"
       d="M 0,0 H 7.85 V 7.85 H 0 V 23.556 H -7.857 V -7.857 H 0 Z"
       style="fill:#00fa9a;fill-opacity:1;fill-rule:nonzero;stroke:none"
       transform="matrix(1.3333333,0,0,-1.3333333,71.083333,212.14893)"
       clip-path="url(#clipPath102)"
       sodipodi:nodetypes="ccccccccc" />
    <path
       id="path103"
       d="m 51.779,50.42 h 7.85 v 7.85 h -7.85 z"
       style="fill:#00fa9a;fill-opacity:1;fill-rule:nonzero;stroke:none"
       transform="matrix(1.3333333,0,0,-1.3333333,-18.8976,321.25973)"
       clip-path="url(#clipPath104)" />
    <path
       id="path105"
       d="m 43.923,42.564 h 7.857 v 7.857 h -7.857 z"
       style="fill:#00fa9a;fill-opacity:1;fill-rule:nonzero;stroke:none"
       transform="matrix(1.3333333,0,0,-1.3333333,-18.8976,321.25973)"
       clip-path="url(#clipPath106)" />
    <path
       id="path107"
       d="M 0,0 H 7.85 V 7.85 H 0 V 39.262 H -7.857 V -7.857 H 0 Z"
       style="fill:#00fa9a;fill-opacity:1;fill-rule:nonzero;stroke:none"
       transform="matrix(1.3333333,0,0,-1.3333333,50.1416,233.09067)"
       clip-path="url(#clipPath108)"
       sodipodi:nodetypes="ccccccccc" />
    <path
       id="path109"
       d="M 39.27,0 V 7.857 H -7.85 V 0 Z"
       style="fill:#00fa9a;fill-opacity:1;fill-rule:nonzero;stroke:none"
       transform="matrix(1.3333333,0,0,-1.3333333,39.665867,285.45013)"
       clip-path="url(#clipPath110)"
       sodipodi:nodetypes="ccccc" />
    <path
       id="path111"
       d="m 36.073,50.42 h 7.85 v 7.85 h -7.85 z"
       style="fill:#00fa9a;fill-opacity:1;fill-rule:nonzero;stroke:none"
       transform="matrix(1.3333333,0,0,-1.3333333,-18.8976,321.25973)"
       clip-path="url(#clipPath112)" />
    <path
       id="path113"
       d="M 0,-7.85 H 7.857 V 7.857 H 0 Z"
       style="fill:#00fa9a;fill-opacity:1;fill-rule:nonzero;stroke:none"
       transform="matrix(1.3333333,0,0,-1.3333333,18.724,264.50827)"
       clip-path="url(#clipPath114)"
       sodipodi:nodetypes="ccccc" />
    <path
       id="path115"
       d="M 0,15.706 H -7.857 V -15.706 H 0 Z"
       style="fill:#00fa9a;fill-opacity:1;fill-rule:nonzero;stroke:none"
       transform="matrix(1.3333333,0,0,-1.3333333,29.199733,222.62467)"
       clip-path="url(#clipPath116)"
       sodipodi:nodetypes="ccccc" />
    <path
       id="path117"
       d="m 0,0 v 9.801 h -4.341 v 3.64 H 0 v 5.39 h 4.41 v -5.39 H 9.171 V 9.801 H 4.41 V 0.77 c 0,-0.701 0.35,-1.05 0.981,-1.05 H 8.75 V -3.921 H 3.85 C 1.54,-3.921 0,-2.381 0,0"
       style="fill:#000000;fill-opacity:1;fill-rule:nonzero;stroke:none"
       transform="matrix(1.3333333,0,0,-1.3333333,14.282,35.428267)"
       clip-path="url(#clipPath118)" />
    <path
       id="path119"
       d="m 0,0 h 4.41 v -9.276 h 0.631 c 0.56,1.12 1.925,2.415 5.005,2.415 4.06,0 6.756,-2.975 6.756,-7.281 v -10.361 h -4.41 v 10.011 c 0,2.626 -1.33,3.921 -3.711,3.921 -2.696,0 -4.271,-1.891 -4.271,-5.111 v -8.821 H 0 Z"
       style="fill:#000000;fill-opacity:1;fill-rule:nonzero;stroke:none"
       transform="matrix(1.3333333,0,0,-1.3333333,31.827467,7.9856)"
       clip-path="url(#clipPath120)" />
    <path
       id="path121"
       d="M 0,0 C -0.21,1.995 -1.715,3.325 -3.99,3.325 -6.37,3.325 -7.806,1.995 -8.12,0 Z m -12.636,-2.205 v 0.42 c 0,5.461 3.5,8.961 8.681,8.961 5.11,0 8.435,-3.64 8.435,-8.961 V -3.29 H -8.155 c 0.104,-2.38 1.96,-4.025 4.41,-4.025 2.45,0 3.466,1.259 4.06,2.589 l 3.606,-1.889 c -0.981,-1.856 -3.045,-4.551 -7.806,-4.551 -5.216,0 -8.751,3.501 -8.751,8.961"
       style="fill:#000000;fill-opacity:1;fill-rule:nonzero;stroke:none"
       transform="matrix(1.3333333,0,0,-1.3333333,76.301467,26.421733)"
       clip-path="url(#clipPath122)" />
    <path
       id="path123"
       d="m 22.084,199.815 h 4.41 v -17.362 h -4.41 z m -0.63,4.83 c 0,1.68 1.225,2.8 2.835,2.8 1.61,0 2.836,-1.12 2.836,-2.8 0,-1.681 -1.226,-2.801 -2.836,-2.801 -1.61,0 -2.835,1.12 -2.835,2.801"
       style="fill:#000000;fill-opacity:1;fill-rule:nonzero;stroke:none"
       transform="matrix(1.3333333,0,0,-1.3333333,-18.8976,321.25973)"
       clip-path="url(#clipPath124)" />
    <path
       id="path125"
       d="m 0,0 h 4.341 v -2.275 h 0.63 c 0.559,1.189 1.96,2.554 5.075,2.554 4.06,0 6.756,-2.974 6.756,-7.28 v -10.361 h -4.41 v 10.01 c 0,2.626 -1.33,3.921 -3.711,3.921 -2.696,0 -4.271,-1.89 -4.271,-5.11 v -8.821 H 0 Z"
       style="fill:#000000;fill-opacity:1;fill-rule:nonzero;stroke:none"
       transform="matrix(1.3333333,0,0,-1.3333333,22.960267,54.839733)"
       clip-path="url(#clipPath126)" />
    <path
       id="path127"
       d="m 0,0 v 9.801 h -4.341 v 3.64 H 0 v 5.39 h 4.41 v -5.39 H 9.171 V 9.801 H 4.41 V 0.77 c 0,-0.701 0.35,-1.05 0.98,-1.05 H 8.751 V -3.921 H 3.85 C 1.54,-3.921 0,-2.381 0,0"
       style="fill:#000000;fill-opacity:1;fill-rule:nonzero;stroke:none"
       transform="matrix(1.3333333,0,0,-1.3333333,54.7884,72.7616)"
       clip-path="url(#clipPath128)" />
    <path
       id="path129"
       d="M 0,0 C -0.21,1.995 -1.715,3.325 -3.99,3.325 -6.37,3.325 -7.806,1.995 -8.12,0 Z m -12.636,-2.205 v 0.42 c 0,5.461 3.5,8.961 8.681,8.961 5.11,0 8.435,-3.64 8.435,-8.961 V -3.29 H -8.155 c 0.104,-2.38 1.96,-4.025 4.41,-4.025 2.45,0 3.466,1.259 4.06,2.589 l 3.606,-1.889 c -0.981,-1.856 -3.046,-4.551 -7.806,-4.551 -5.216,0 -8.751,3.501 -8.751,8.961"
       style="fill:#000000;fill-opacity:1;fill-rule:nonzero;stroke:none"
       transform="matrix(1.3333333,0,0,-1.3333333,87.222,63.755067)"
       clip-path="url(#clipPath130)" />
    <path
       id="path131"
       d="m 0,0 h 4.341 v -1.961 h 0.63 c 0.49,1.4 1.75,2.03 3.36,2.03 h 2.1 v -3.92 h -2.17 c -2.24,0 -3.851,-1.19 -3.851,-3.64 v -9.871 H 0 Z"
       style="fill:#000000;fill-opacity:1;fill-rule:nonzero;stroke:none"
       transform="matrix(1.3333333,0,0,-1.3333333,98.421333,54.839733)"
       clip-path="url(#clipPath132)" />
    <path
       id="path133"
       d="m 0,0 h 4.341 v -2.275 h 0.63 c 0.559,1.189 1.96,2.554 5.075,2.554 4.06,0 6.756,-2.974 6.756,-7.28 v -10.361 h -4.41 v 10.01 c 0,2.626 -1.33,3.921 -3.711,3.921 -2.696,0 -4.271,-1.89 -4.271,-5.11 v -8.821 H 0 Z"
       style="fill:#000000;fill-opacity:1;fill-rule:nonzero;stroke:none"
       transform="matrix(1.3333333,0,0,-1.3333333,116.9004,54.839733)"
       clip-path="url(#clipPath134)" />
    <path
       id="path135"
       d="M 0,0 C -0.209,1.995 -1.715,3.325 -3.99,3.325 -6.369,3.325 -7.805,1.995 -8.12,0 Z m -12.635,-2.205 v 0.42 c 0,5.461 3.5,8.961 8.68,8.961 5.111,0 8.435,-3.64 8.435,-8.961 V -3.29 H -8.155 c 0.105,-2.38 1.96,-4.025 4.411,-4.025 2.449,0 3.465,1.259 4.06,2.589 l 3.606,-1.889 c -0.981,-1.856 -3.047,-4.551 -7.807,-4.551 -5.215,0 -8.75,3.501 -8.75,8.961"
       style="fill:#000000;fill-opacity:1;fill-rule:nonzero;stroke:none"
       transform="matrix(1.3333333,0,0,-1.3333333,161.37507,63.755067)"
       clip-path="url(#clipPath136)" />
    <path
       id="path137"
       d="m 0,0 v 9.801 h -4.342 v 3.64 H 0 v 5.39 h 4.41 v -5.39 H 9.17 V 9.801 H 4.41 V 0.77 c 0,-0.701 0.35,-1.05 0.979,-1.05 H 8.75 V -3.921 H 3.85 C 1.539,-3.921 0,-2.381 0,0"
       style="fill:#000000;fill-opacity:1;fill-rule:nonzero;stroke:none"
       transform="matrix(1.3333333,0,0,-1.3333333,175.56253,72.7616)"
       clip-path="url(#clipPath138)" />
    <path
       id="path139"
       d="m 22.084,171.815 h 4.41 v -17.362 h -4.41 z m -0.63,4.83 c 0,1.68 1.225,2.8 2.835,2.8 1.61,0 2.836,-1.12 2.836,-2.8 0,-1.681 -1.226,-2.801 -2.836,-2.801 -1.61,0 -2.835,1.12 -2.835,2.801"
       style="fill:#000000;fill-opacity:1;fill-rule:nonzero;stroke:none"
       transform="matrix(1.3333333,0,0,-1.3333333,-18.8976,321.25973)"
       clip-path="url(#clipPath140)" />
    <path
       id="path141"
       d="m 0,0 4.061,1.05 c 0.455,-2.45 2.1,-3.22 4.13,-3.22 2.031,0 3.01,0.805 3.01,1.89 0,1.085 -0.875,1.575 -2.939,1.96 L 7.281,1.855 c -3.64,0.666 -6.65,2.031 -6.65,5.46 0,3.431 2.729,5.356 6.86,5.356 3.886,0 6.546,-1.89 7.351,-4.691 L 10.746,6.721 c -0.385,1.785 -1.575,2.45 -3.255,2.45 -1.679,0 -2.59,-0.63 -2.59,-1.646 0,-1.12 0.98,-1.575 2.59,-1.854 L 8.472,5.495 c 3.92,-0.7 7,-1.82 7,-5.46 0,-3.64 -2.87,-5.706 -7.281,-5.706 C 3.641,-5.671 0.596,-3.641 0,0"
       style="fill:#000000;fill-opacity:1;fill-rule:nonzero;stroke:none"
       transform="matrix(1.3333333,0,0,-1.3333333,21.653067,108.4152)"
       clip-path="url(#clipPath142)" />
    <path
       id="path143"
       d="m 0,0 v 0.35 c 0,3.255 -1.96,5.076 -4.69,5.076 -2.731,0 -4.691,-1.821 -4.691,-5.076 V 0 c 0,-3.255 1.995,-5.075 4.691,-5.075 2.695,0 4.69,1.82 4.69,5.075 m -13.791,-0.104 v 0.559 c 0,5.601 3.92,8.891 9.101,8.891 5.18,0 9.101,-3.29 9.101,-8.891 v -0.559 c 0,-5.602 -3.921,-8.892 -9.101,-8.892 -5.181,0 -9.101,3.29 -9.101,8.892"
       style="fill:#ffffff;fill-opacity:1;fill-rule:nonzero;stroke:none"
       transform="matrix(1.3333333,0,0,-1.3333333,75.602267,103.9816)"
       clip-path="url(#clipPath144)" />
    <path
       id="path145"
       d="M 0,0 V 10.361 H 4.41 V 0.35 c 0,-2.625 1.33,-3.92 3.71,-3.92 2.695,0 4.271,1.889 4.271,5.11 v 8.821 h 4.411 V -7.001 h -4.341 v 2.275 h -0.63 C 11.271,-5.916 9.871,-7.281 6.756,-7.281 2.695,-7.281 0,-4.306 0,0"
       style="fill:#ffffff;fill-opacity:1;fill-rule:nonzero;stroke:none"
       transform="matrix(1.3333333,0,0,-1.3333333,86.707733,105.98813)"
       clip-path="url(#clipPath146)" />
    <path
       id="path147"
       d="m 0,0 h 4.341 v -1.961 h 0.63 c 0.49,1.4 1.75,2.03 3.36,2.03 h 2.101 v -3.92 H 8.261 c -2.24,0 -3.851,-1.19 -3.851,-3.64 v -9.871 H 0 Z"
       style="fill:#ffffff;fill-opacity:1;fill-rule:nonzero;stroke:none"
       transform="matrix(1.3333333,0,0,-1.3333333,115.64133,92.173067)"
       clip-path="url(#clipPath148)" />
    <path
       id="path149"
       d="m 0,0 4.061,1.05 c 0.455,-2.45 2.1,-3.22 4.13,-3.22 2.031,0 3.01,0.805 3.01,1.89 0,1.085 -0.875,1.575 -2.939,1.96 L 7.281,1.855 c -3.64,0.666 -6.65,2.031 -6.65,5.46 0,3.431 2.729,5.356 6.86,5.356 3.886,0 6.546,-1.89 7.35,-4.691 L 10.746,6.721 c -0.385,1.785 -1.574,2.45 -3.255,2.45 -1.68,0 -2.59,-0.63 -2.59,-1.646 0,-1.12 0.98,-1.575 2.59,-1.854 L 8.472,5.495 c 3.92,-0.7 7,-1.82 7,-5.46 0,-3.64 -2.87,-5.706 -7.281,-5.706 C 3.641,-5.671 0.596,-3.641 0,0"
       style="fill:#ffffff;fill-opacity:1;fill-rule:nonzero;stroke:none"
       transform="matrix(1.3333333,0,0,-1.3333333,132.25333,108.4152)"
       clip-path="url(#clipPath150)" />
    <path
       id="path151"
       d="m 133.208,178.956 h 4.48 v -16.452 h -4.48 z m -1.084,-21.668 c 0,1.961 1.434,3.326 3.325,3.326 1.89,0 3.326,-1.365 3.326,-3.326 0,-1.96 -1.436,-3.326 -3.326,-3.326 -1.891,0 -3.325,1.366 -3.325,3.326"
       style="fill:#ffffff;fill-opacity:1;fill-rule:nonzero;stroke:none"
       transform="matrix(1.3333333,0,0,-1.3333333,-18.8976,321.25973)"
       clip-path="url(#clipPath152)" />
  </g>
</svg>
