<?xml version="1.0" encoding="UTF-8"?>
<svg width="54.91mm" height="72.03mm" version="1.1" viewBox="0 0 207.5 272.2" xmlns="http://www.w3.org/2000/svg"><defs><clipPath id="d"><path d="m0 255.1h255.1v-255.1h-255.1z"/></clipPath><clipPath id="c"><path transform="translate(-115.2 -105.7)" d="m0 255.1h255.1v-255.1h-255.1z"/></clipPath><clipPath id="b"><path transform="translate(-146.6 -105.7)" d="m0 255.1h255.1v-255.1h-255.1z"/></clipPath><clipPath id="a"><path transform="translate(-233 -105.7)" d="m0 255.1h255.1v-255.1h-255.1z"/></clipPath></defs><g transform="translate(-47.41 -15.06)"><g fill="#fff"><path transform="matrix(1.333 0 0 -1.333 -85.21 354.9)" d="m141.1 79.65-13.26-0.1463v13.24l13.84-1.586z" clip-path="url(#d)"/><path transform="matrix(1.333 0 0 -1.333 68.36 214)" d="m-3.803 1.316 0.2926-19.51 16.15 0.1463 5e-6 20.09z" clip-path="url(#c)"/><path transform="matrix(1.333 0 0 -1.333 110.2 214)" d="m-3.657 0.4388 1.316-18.63h14.44l-0.7314 19.51z" clip-path="url(#b)"/></g><path transform="matrix(1.333 0 0 -1.333 225.4 214)" d="m0 0h-7.857v7.857h-7.849v7.849h-7.857v7.857h7.857v7.85h7.849v-7.85h-7.849v-7.857h7.849v-7.849h7.857zm-78.53-15.71h-7.857v15.71h7.857zm-15.71-7.85h-7.85v7.85h7.85zm-15.71 7.85h-7.849v15.71h7.849zm125.7 94.24v7.85h-7.856v7.856h-7.85v7.85h-7.857v39.27h-7.849v7.849h-31.41v-7.849h-7.857v-15.71h-7.849v-23.56h23.56v15.71h15.71v-15.71h-7.85v-7.85h-7.857v-7.856h-7.849v-7.85h-7.857v-7.857h-7.849v-15.71h-7.857v-15.71h7.857v-15.71h-7.857v15.71h-7.85v-7.857h-7.857v-7.85h-15.71v7.85h-7.857v7.857h-7.849v-23.56h-7.857v-7.849h-7.85v-23.56h7.85v-7.85h7.857v-7.857h7.849v-15.71h-7.849v-7.85h15.71v7.85h7.85v7.857h23.56v-7.857h-15.71v-7.85h31.41v7.85h7.857v7.857h7.849v7.849h7.857v15.71h7.85v7.856h7.857v-7.856h-7.857v-7.85h23.56v7.85h7.85v7.856h7.856v15.71h7.85v70.68z" clip-path="url(#a)"/></g></svg>
