<?xml version="1.0" encoding="UTF-8" standalone="no"?>
<!-- Created with Inkscape (http://www.inkscape.org/) -->

<svg
   width="600mm"
   height="200mm"
   viewBox="0 0 600 200"
   version="1.1"
   id="svg1"
   inkscape:version="1.4.3 (0d15f75042, 2025-12-25)"
   sodipodi:docname="jointhefediverse_inkscape.svg"
   xmlns:inkscape="http://www.inkscape.org/namespaces/inkscape"
   xmlns:sodipodi="http://sodipodi.sourceforge.net/DTD/sodipodi-0.dtd"
   xmlns="http://www.w3.org/2000/svg"
   xmlns:svg="http://www.w3.org/2000/svg">
  <sodipodi:namedview
     id="namedview1"
     pagecolor="#ffffff"
     bordercolor="#000000"
     borderopacity="0.25"
     inkscape:showpageshadow="2"
     inkscape:pageopacity="0.0"
     inkscape:pagecheckerboard="0"
     inkscape:deskcolor="#d1d1d1"
     inkscape:document-units="mm"
     inkscape:zoom="0.30427083"
     inkscape:cx="1133.8583"
     inkscape:cy="377.95276"
     inkscape:window-width="1692"
     inkscape:window-height="1059"
     inkscape:window-x="0"
     inkscape:window-y="0"
     inkscape:window-maximized="1"
     inkscape:current-layer="layer1" />
  <defs
     id="defs1" />
  <g
     inkscape:label="Layer 1"
     inkscape:groupmode="layer"
     id="layer1">
    <path
       style="font-style:italic;font-size:39.3436px;line-height:1;font-family:'Space Mono';-inkscape-font-specification:'Space Mono Italic';text-align:center;letter-spacing:0px;word-spacing:0px;text-anchor:middle;white-space:pre;stroke-width:0;stroke-linecap:square;paint-order:stroke fill markers"
       d="m 125.85824,51.110358 h 9.5605 q 4.17042,0 6.29498,1.888493 2.12455,1.849149 2.12455,5.390073 0,0.747529 -0.11803,1.534401 -0.0787,0.786872 -0.27541,1.652431 l -1.49505,6.845787 q -0.59016,2.793395 -1.45572,4.760575 -0.86556,1.927837 -2.20324,3.147488 -1.33768,1.219652 -3.30486,1.770462 -1.92784,0.550811 -4.72123,0.550811 h -8.931 v -3.068801 h 2.59668 l 4.52451,-21.402919 h -2.59668 z m 4.36714,24.47172 q 1.80981,0 3.18684,-0.354092 1.41637,-0.354093 2.4393,-1.180308 1.02293,-0.86556 1.73112,-2.281929 0.70818,-1.41637 1.14096,-3.580268 l 1.37703,-6.609725 q 0.19672,-1.022934 0.2754,-1.691775 0.0787,-0.668841 0.0787,-1.298339 0,-2.51799 -1.41637,-3.462237 -1.41637,-0.944246 -4.28845,-0.944246 h -2.99012 l -4.52451,21.402919 z m 22.81927,-13.062076 q 0.11803,-0.472123 -0.11803,-0.708184 -0.23606,-0.275406 -0.59015,-0.275406 -0.31475,0 -0.59016,0.196718 l -3.58026,2.439304 -1.57375,-2.321273 3.50158,-2.360616 q 1.33769,-0.904903 2.71471,-0.904903 1.21965,0 2.12456,0.708185 0.9049,0.668841 1.02293,2.203242 h 0.47212 q 1.14097,-1.613088 2.55734,-2.242585 1.41637,-0.668842 2.95077,-0.668842 2.83274,0 4.44582,1.652432 1.61309,1.613087 1.61309,4.288452 0,1.022934 -0.23606,2.085211 l -3.34421,0.236062 q 0.19672,-0.98359 0.19672,-1.652432 0,-1.888493 -1.06228,-2.793395 -1.02293,-0.904903 -2.67536,-0.904903 -1.18031,0 -2.1639,0.472123 -0.94425,0.43278 -1.65243,1.219652 -0.70818,0.747528 -1.21965,1.770462 -0.47212,1.022933 -0.70819,2.124554 l -1.84915,8.73428 h 4.64255 v 2.832739 H 145.41199 V 75.81814 h 4.79992 z m 29.38965,-3.93436 q 1.69178,0 3.14749,0.590154 1.45571,0.590154 2.51799,1.652432 1.06228,1.062277 1.65243,2.557334 0.6295,1.455713 0.6295,3.226175 0,2.439303 -0.82622,4.721232 -0.78687,2.242585 -2.36061,4.013047 -1.5344,1.731119 -3.81633,2.793396 -2.24259,1.062277 -5.11467,1.062277 -1.65243,0 -3.10814,-0.55081 -1.45572,-0.590154 -2.55734,-1.613088 -1.06227,-1.022933 -1.69177,-2.478647 -0.6295,-1.495056 -0.6295,-3.304862 0,-2.832739 0.94425,-5.154012 0.98359,-2.360616 2.63602,-4.013047 1.69177,-1.652431 3.89501,-2.557334 2.20325,-0.944247 4.68189,-0.944247 z m -3.50158,17.704621 q 1.80981,0 3.34421,-0.786872 1.5344,-0.826216 2.63602,-2.124555 1.10162,-1.337682 1.69177,-3.029457 0.6295,-1.691775 0.6295,-3.50158 0,-2.321273 -1.45571,-3.81633 -1.41637,-1.5344 -4.01305,-1.5344 -1.69177,0 -3.18683,0.747528 -1.49506,0.747529 -2.63602,2.045867 -1.10162,1.298339 -1.77046,3.029458 -0.66884,1.691775 -0.66884,3.619611 0,2.360616 1.41637,3.855673 1.41636,1.495057 4.01304,1.495057 z m 17.66526,10.229336 h -3.02946 l 5.15402,-24.432376 q 0.0787,-0.43278 -0.0787,-0.590154 -0.15738,-0.196718 -0.47212,-0.196718 -0.19672,0 -0.3541,0.118031 l -2.16389,1.495056 -1.57375,-2.321272 1.84915,-1.258995 q 1.10162,-0.747529 2.39996,-0.747529 1.57374,0 2.47865,0.86556 0.94424,0.865559 0.94424,2.51799 v 0.236062 h 0.47213 q 1.1803,-1.770462 2.83274,-2.675365 1.69177,-0.944247 4.01304,-0.944247 1.61309,0 2.95077,0.590154 1.37703,0.550811 2.32128,1.573744 0.98359,0.98359 1.5344,2.39996 0.55081,1.377026 0.55081,2.990114 0,2.596677 -0.70819,4.957293 -0.66884,2.360617 -2.04587,4.170422 -1.37702,1.809806 -3.42289,2.872083 -2.04587,1.062277 -4.79992,1.062277 -2.20324,0 -3.81633,-0.98359 -1.57374,-1.022933 -2.24258,-2.557334 h -0.47213 z m 8.45888,-10.229336 q 1.92783,0 3.42289,-0.786872 1.5344,-0.786872 2.55733,-2.085211 1.06228,-1.337682 1.57375,-3.068801 0.55081,-1.731118 0.55081,-3.580268 0,-2.596677 -1.37703,-3.93436 -1.33768,-1.337682 -3.58027,-1.337682 -1.8098,0 -3.30486,0.826215 -1.45571,0.826216 -2.51799,2.163898 -1.06228,1.337683 -1.65243,3.029458 -0.59015,1.691775 -0.59015,3.462237 0,2.51799 1.29833,3.93436 1.29834,1.377026 3.61962,1.377026 z m 41.07467,-6.452351 q -0.0787,0.314749 -0.11803,0.708185 -0.0393,0.393436 -0.0393,0.826216 0,2.163898 1.25899,3.580267 1.259,1.377026 4.01305,1.377026 1.37703,0 2.4393,-0.314748 1.10162,-0.314749 1.8885,-0.86556 0.78687,-0.590154 1.33768,-1.298338 0.59015,-0.747529 0.98359,-1.573744 l 2.51799,1.416369 q -0.55081,1.140965 -1.37703,2.163898 -0.82621,0.98359 -1.96718,1.731119 -1.14096,0.747528 -2.63602,1.180308 -1.49505,0.432779 -3.42289,0.432779 -1.77046,0 -3.26552,-0.55081 -1.45571,-0.511467 -2.51799,-1.495057 -1.06228,-1.022934 -1.65243,-2.478647 -0.59016,-1.455713 -0.59016,-3.304862 0,-2.478647 0.78688,-4.760576 0.78687,-2.321273 2.28193,-4.091735 1.49505,-1.770462 3.69829,-2.832739 2.20325,-1.101621 4.99664,-1.101621 1.96718,0 3.42289,0.629498 1.45572,0.590154 2.39996,1.652431 0.94425,1.022934 1.41637,2.360616 0.47213,1.298339 0.47213,2.714709 0,1.062277 -0.23606,2.045867 l -0.43278,1.849149 z m 8.22282,-8.340843 q -1.37703,0 -2.59668,0.432779 -1.18031,0.393436 -2.1639,1.140965 -0.98359,0.747528 -1.69178,1.770462 -0.70818,0.98359 -1.10162,2.163898 h 12.51127 q 0.11803,-0.629498 0.11803,-1.180308 0,-2.124555 -1.45571,-3.226175 -1.45572,-1.101621 -3.61961,-1.101621 z m 21.4029,15.73744 h 0.47212 l 9.12772,-18.098056 2.87208,1.455713 -9.44246,18.058713 h -5.98023 l -1.49506,-16.445625 q -0.0787,-0.629498 -0.66884,-0.629498 -0.43278,0 -0.70818,0.354092 l -1.92784,2.439304 -2.20324,-1.770462 1.88849,-2.439304 q 0.6295,-0.786872 1.45572,-1.180308 0.82621,-0.393436 1.69177,-0.393436 1.29834,0 2.32127,0.826216 1.06228,0.826216 1.21965,2.478647 z m 18.53081,-7.396597 q -0.0787,0.314749 -0.11803,0.708185 -0.0393,0.393436 -0.0393,0.826216 0,2.163898 1.259,3.580267 1.25899,1.377026 4.01304,1.377026 1.37703,0 2.43931,-0.314748 1.10162,-0.314749 1.88849,-0.86556 0.78687,-0.590154 1.33768,-1.298338 0.59016,-0.747529 0.98359,-1.573744 l 2.51799,1.416369 q -0.55081,1.140965 -1.37702,2.163898 -0.82622,0.98359 -1.96718,1.731119 -1.14097,0.747528 -2.63603,1.180308 -1.49505,0.432779 -3.42289,0.432779 -1.77046,0 -3.26552,-0.55081 -1.45571,-0.511467 -2.51799,-1.495057 -1.06228,-1.022934 -1.65243,-2.478647 -0.59015,-1.455713 -0.59015,-3.304862 0,-2.478647 0.78687,-4.760576 0.78687,-2.321273 2.28193,-4.091735 1.49505,-1.770462 3.6983,-2.832739 2.20324,-1.101621 4.99663,-1.101621 1.96718,0 3.4229,0.629498 1.45571,0.590154 2.39996,1.652431 0.94424,1.022934 1.41637,2.360616 0.47212,1.298339 0.47212,2.714709 0,1.062277 -0.23606,2.045867 l -0.43278,1.849149 z m 8.22282,-8.340843 q -1.37703,0 -2.59668,0.432779 -1.18031,0.393436 -2.1639,1.140965 -0.98359,0.747528 -1.69177,1.770462 -0.70819,0.98359 -1.10162,2.163898 h 12.51126 q 0.11803,-0.629498 0.11803,-1.180308 0,-2.124555 -1.45571,-3.226175 -1.45571,-1.101621 -3.61961,-1.101621 z m 19.08162,1.022933 q 0.11803,-0.472123 -0.11803,-0.708184 -0.23606,-0.275406 -0.59015,-0.275406 -0.31475,0 -0.59016,0.196718 l -3.58026,2.439304 -1.57375,-2.321273 3.50158,-2.360616 q 1.33768,-0.904903 2.71471,-0.904903 1.21965,0 2.12456,0.708185 0.9049,0.668841 1.02293,2.203242 h 0.47212 q 1.14097,-1.613088 2.55734,-2.242585 1.41637,-0.668842 2.95077,-0.668842 2.83274,0 4.44582,1.652432 1.61309,1.613087 1.61309,4.288452 0,1.022934 -0.23606,2.085211 l -3.34421,0.236062 q 0.19672,-0.98359 0.19672,-1.652432 0,-1.888493 -1.06228,-2.793395 -1.02293,-0.904903 -2.67536,-0.904903 -1.18031,0 -2.1639,0.472123 -0.94425,0.43278 -1.65243,1.219652 -0.70819,0.747528 -1.21965,1.770462 -0.47213,1.022933 -0.70819,2.124554 l -1.84915,8.73428 h 4.64255 v 2.832739 H 313.95984 V 75.81814 h 4.79992 z m 23.92089,7.868721 q -0.2754,1.219651 -0.2754,2.281929 0,3.619611 3.89501,3.619611 2.71471,0 4.64255,-1.888493 1.92783,-1.927836 2.59667,-5.114668 l 2.12456,-10.150649 h 3.0688 l -5.15401,24.314345 q -0.27541,1.337683 -1.29834,2.203242 -1.02293,0.865559 -2.36062,0.865559 H 342.0905 V 83.68686 h 10.15065 q 1.06227,0 1.29833,-1.180308 l 1.49506,-6.924474 h -0.47212 q -1.18031,1.770462 -2.83274,2.714708 -1.61309,0.904903 -3.85567,0.904903 -2.63602,0 -4.20977,-1.573744 -1.57374,-1.573744 -1.57374,-4.445827 0,-1.180308 0.2754,-2.399959 l 1.77046,-8.419531 q 0.0787,-0.393436 -0.11803,-0.590154 -0.15737,-0.236062 -0.43278,-0.236062 -0.23606,0 -0.51146,0.196718 l -2.00653,1.377026 -1.57374,-2.321272 2.04587,-1.377026 q 1.21965,-0.826216 2.47864,-0.826216 1.29834,0 2.24259,0.86556 0.94425,0.865559 0.94425,2.399959 0,0.236062 -0.0394,0.472123 0,0.196718 -0.0787,0.550811 z m 19.94718,-11.25227 h 6.7671 l 1.80981,-8.576905 h 3.0688 l -1.80981,8.576905 h 6.92448 v 2.832739 h -7.55397 l -2.7934,13.258794 q -0.11803,0.472123 0.0787,0.747528 0.23606,0.275405 0.59015,0.275405 0.27541,0 0.59016,-0.196718 l 5.2327,-3.540924 1.57374,2.321273 -5.2327,3.540924 q -1.25899,0.826215 -2.59668,0.826215 -1.37702,0 -2.36061,-0.826215 -0.98359,-0.826216 -0.98359,-2.478647 0,-0.275405 0.0393,-0.550811 0.0393,-0.314748 0.11803,-0.629497 l 2.67537,-12.747327 h -6.13761 z m 37.57312,7.947407 q 0.11803,-0.55081 0.15738,-0.944246 0.0787,-0.43278 0.0787,-0.86556 0,-2.045867 -1.21965,-2.911426 -1.18031,-0.865559 -2.95077,-0.865559 -2.67536,0 -4.44583,1.927836 -1.73111,1.888493 -2.39995,5.075325 l -2.1639,10.150649 h -3.02946 l 5.98023,-28.091331 h 2.95077 l -2.36062,11.488331 h 0.47212 q 0.98359,-1.849149 2.55734,-2.636021 1.57374,-0.826216 3.54092,-0.826216 2.59668,0 4.28846,1.652432 1.73111,1.613087 1.73111,4.563857 0,1.258996 -0.2754,2.517991 l -1.73112,8.222812 q -0.11803,0.590154 0.51147,0.590154 0.23606,0 0.47212,-0.196718 l 1.5344,-1.10162 1.65243,2.321272 -1.8098,1.298339 q -1.06228,0.747528 -2.39996,0.747528 -1.21966,0 -2.1639,-0.708184 -0.9049,-0.708185 -0.9049,-2.203242 0,-0.43278 0.11803,-1.022934 z M 422.19402,53.3136 q 0,-1.140965 0.78687,-1.927837 0.82622,-0.826215 1.96718,-0.826215 1.14097,0 1.92784,0.826215 0.82621,0.786872 0.82621,1.927837 0,1.140964 -0.82621,1.96718 -0.78687,0.786872 -1.92784,0.786872 -1.14096,0 -1.96718,-0.786872 -0.78687,-0.826216 -0.78687,-1.96718 z m -0.6295,9.245746 q 0.0787,-0.393436 -0.11803,-0.668841 -0.15737,-0.314749 -0.59015,-0.314749 -0.31475,0 -0.59016,0.157374 l -4.6032,3.147488 -1.57374,-2.321272 4.64254,-3.147488 q 1.21965,-0.826216 2.63602,-0.826216 1.33769,0 2.32128,0.786872 0.98359,0.786872 0.98359,2.439304 0,0.629497 -0.15738,1.258995 l -2.91142,12.157173 q -0.11804,0.472123 0.0787,0.747528 0.23606,0.275405 0.59016,0.275405 0.2754,0 0.59015,-0.196718 l 4.52451,-3.068801 1.57375,2.321273 -4.52452,3.068801 q -1.25899,0.826215 -2.63602,0.826215 -1.33768,0 -2.32127,-0.786872 -0.98359,-0.786872 -0.98359,-2.439303 0,-0.629498 0.15738,-1.258995 z m 29.03554,4.36714 q 0.11803,-0.550811 0.15738,-0.904903 0.0393,-0.393436 0.0393,-0.786872 0,-1.888493 -1.14096,-2.793396 -1.10162,-0.944246 -3.10815,-0.944246 -2.67536,0 -4.36714,1.927836 -1.69177,1.888493 -2.32127,4.839263 l -2.20324,10.386711 h -3.0688 l 4.17042,-19.514426 h 3.0688 l -0.59015,2.832739 h 0.47212 q 0.98359,-1.770462 2.55733,-2.557334 1.61309,-0.826216 3.38355,-0.826216 1.259,0 2.39996,0.43278 1.14097,0.393436 1.96718,1.180308 0.86556,0.786872 1.33768,1.927836 0.51147,1.140965 0.51147,2.636022 0,0.98359 -0.23606,2.085211 l -1.88849,8.734279 q -0.0787,0.314749 0.0787,0.472123 0.15738,0.157375 0.39344,0.157375 0.23606,0 0.43278,-0.157375 l 1.65243,-1.219651 1.65243,2.321272 -1.5344,1.140964 q -1.18031,0.904903 -2.63602,0.904903 -0.59015,0 -1.14096,-0.157374 -0.55081,-0.118031 -0.98359,-0.43278 -0.43278,-0.354092 -0.70819,-0.904903 -0.2754,-0.55081 -0.2754,-1.377026 0,-0.511466 0.15737,-1.258995 z m 23.3701,8.970341 h -0.47213 q -1.14096,1.652431 -2.87208,2.478647 -1.69178,0.826215 -3.73764,0.826215 -1.69178,0 -3.10815,-0.55081 -1.37702,-0.590154 -2.36061,-1.613088 -0.98359,-1.022933 -1.5344,-2.478647 -0.51147,-1.455713 -0.51147,-3.226175 0,-2.714708 0.78687,-5.035981 0.82622,-2.321272 2.28193,-4.013047 1.49506,-1.731119 3.54092,-2.714709 2.08522,-0.98359 4.56386,-0.98359 2.32127,0 3.81633,1.022934 1.5344,0.98359 2.00653,2.596678 h 0.47212 l 0.66884,-3.068801 h 3.0688 l -5.15401,24.314345 q -0.31475,1.337683 -1.33768,2.203242 -1.02294,0.865559 -2.36062,0.865559 H 459.8458 V 83.68686 h 11.3703 q 1.10162,0 1.33769,-1.180308 z m -6.41301,0.393436 q 1.8098,0 3.30486,-0.786872 1.49506,-0.826216 2.55733,-2.124555 1.10163,-1.337682 1.69178,-3.029457 0.59015,-1.691775 0.59015,-3.422893 0,-2.439304 -1.37702,-3.93436 -1.37703,-1.495057 -3.6983,-1.495057 -1.84915,0 -3.34421,0.786872 -1.49505,0.786872 -2.55733,2.124554 -1.02293,1.298339 -1.61309,3.029458 -0.55081,1.731118 -0.55081,3.580267 0,2.439304 1.259,3.855673 1.29834,1.41637 3.73764,1.41637 z"
       id="text1"
       aria-label="Drop everything" />
    <path
       style="font-style:italic;font-size:13.2292px;line-height:1;font-family:'Space Mono';-inkscape-font-specification:'Space Mono Italic';text-align:center;letter-spacing:0px;word-spacing:0px;text-anchor:middle;white-space:pre;stroke-width:0;stroke-linecap:square;paint-order:stroke fill markers"
       d="m 292.60489,103.59836 q -0.41011,0.70114 -0.97896,0.96573 -0.55563,0.25135 -1.1774,0.25135 -0.52917,0 -0.9525,-0.18521 -0.42334,-0.19843 -0.71438,-0.54239 -0.29104,-0.34396 -0.44979,-0.82021 -0.15875,-0.48948 -0.15875,-1.07157 0,-0.83344 0.23812,-1.61396 0.23813,-0.780524 0.68792,-1.375838 0.46302,-0.595314 1.13771,-0.952503 0.67469,-0.370417 1.56105,-0.370417 0.67469,0 1.15094,0.3175 0.47625,0.304272 0.62177,0.899586 h 0.15875 l 0.21167,-1.031878 h 1.03188 l -1.16417,5.45043 q -0.0265,0.11906 0.0265,0.18521 0.0529,0.0529 0.14553,0.0529 0.0926,0 0.1852,-0.0661 l 0.47626,-0.34396 0.55562,0.78052 -0.59531,0.4498 q -0.14552,0.10583 -0.37042,0.17198 -0.21167,0.0661 -0.43656,0.0661 -0.19844,0 -0.38365,-0.0529 -0.18521,-0.0529 -0.34396,-0.15875 -0.14552,-0.11907 -0.23812,-0.29105 -0.0926,-0.18521 -0.0926,-0.44979 0,-0.0661 0,-0.13229 0.0132,-0.0661 0.0265,-0.13229 z m -1.83886,0.23812 q 0.52917,0 0.99219,-0.23812 0.47625,-0.25136 0.82021,-0.67469 0.35719,-0.42334 0.55563,-0.99219 0.19843,-0.58209 0.19843,-1.25678 0,-0.820208 -0.37041,-1.309688 -0.37042,-0.50271 -1.15094,-0.50271 -0.62178,0 -1.09803,0.264584 -0.46302,0.264584 -0.79375,0.714377 -0.33073,0.436567 -0.50271,1.018647 -0.15875,0.58209 -0.15875,1.20386 0,0.87313 0.38365,1.32292 0.38364,0.44979 1.12448,0.44979 z m 10.80825,-3.14855 q 0.0397,-0.18521 0.0529,-0.30427 0.0132,-0.13229 0.0132,-0.26458 0,-0.635005 -0.38365,-0.939277 -0.37042,-0.317501 -1.04511,-0.317501 -0.89958,0 -1.46844,0.648231 -0.56885,0.634997 -0.78052,1.627187 l -0.74084,3.49251 H 296.19 l 1.40229,-6.56168 h 1.03188 l -0.19844,0.952503 h 0.15875 q 0.33073,-0.595314 0.8599,-0.859898 0.5424,-0.277813 1.13771,-0.277813 0.42333,0 0.80698,0.145521 0.38365,0.132292 0.66146,0.396876 0.29104,0.264584 0.44979,0.648231 0.17198,0.383646 0.17198,0.886356 0,0.330734 -0.0794,0.701144 l -0.635,2.93689 q -0.0265,0.10583 0.0265,0.15875 0.0529,0.0529 0.13229,0.0529 0.0794,0 0.14552,-0.0529 l 0.55562,-0.41011 0.55563,0.78052 -0.51594,0.38365 q -0.39687,0.30427 -0.88635,0.30427 -0.19844,0 -0.38365,-0.0529 -0.18521,-0.0397 -0.33073,-0.14553 -0.14552,-0.11906 -0.23813,-0.30427 -0.0926,-0.18521 -0.0926,-0.46302 0,-0.17198 0.0529,-0.42333 z m 7.27605,2.91043 q -0.42333,0.70114 -1.00542,0.96573 -0.58208,0.25135 -1.23031,0.25135 -0.52917,0 -0.96573,-0.18521 -0.43657,-0.18521 -0.74084,-0.51594 -0.30427,-0.34395 -0.47625,-0.82021 -0.17198,-0.48948 -0.17198,-1.07156 0,-0.82021 0.25136,-1.60073 0.25135,-0.780527 0.7276,-1.38907 0.47625,-0.608543 1.16417,-0.978961 0.70115,-0.370417 1.60073,-0.370417 0.70115,0 1.16417,0.291042 0.47626,0.291042 0.64823,0.926044 h 0.15876 l 0.82021,-3.915843 h 1.03187 l -1.77271,8.334395 q -0.0397,0.23813 0.17198,0.23813 0.0794,0 0.17198,-0.0661 l 0.47625,-0.34396 0.56886,0.78052 -0.59532,0.4498 q -0.14552,0.10583 -0.35719,0.17198 -0.19843,0.0661 -0.44979,0.0661 -0.19844,0 -0.38365,-0.0529 -0.1852,-0.0529 -0.34395,-0.15875 -0.14553,-0.11907 -0.23813,-0.29105 -0.0926,-0.18521 -0.0926,-0.44979 0,-0.0661 0,-0.13229 0.0132,-0.0661 0.0265,-0.13229 z m -1.91823,0.23812 q 0.52917,0 1.00542,-0.23812 0.48948,-0.25136 0.84667,-0.67469 0.37041,-0.42334 0.58208,-0.99219 0.21167,-0.58209 0.21167,-1.25678 0,-0.820208 -0.41011,-1.309688 -0.4101,-0.50271 -1.19062,-0.50271 -0.62178,0 -1.11126,0.277814 -0.47625,0.264584 -0.82021,0.714376 -0.34396,0.436568 -0.52917,1.018648 -0.17197,0.58209 -0.17197,1.20386 0,1.75948 1.5875,1.75948 z"
       id="text2"
       aria-label="and" />
    <path
       style="font-size:48.7738px;line-height:1;font-family:ADAXI;-inkscape-font-specification:'ADAXI, Normal';font-feature-settings:'ss02';text-align:end;letter-spacing:0px;word-spacing:0px;text-anchor:end;white-space:pre;stroke-width:0;stroke-linecap:square;paint-order:stroke fill markers"
       d="m 263.00635,153.73784 v -16.21729 h 2.31675 v -4.63351 h -2.31675 v -13.90053 h 2.31675 v -2.31676 h 16.21729 v 2.31676 h 2.31676 v 2.31675 h -9.26702 v 2.31676 h -4.63352 v 9.26702 h 11.58378 v 4.63351 h -11.58378 v 16.21729 z m 32.43453,0 v -2.31676 h -2.31675 v -2.31675 h -2.31676 v -2.31676 h -2.31676 v -13.87614 h 2.31676 v -2.34115 h 2.31676 v -2.31675 h 2.31675 v -2.31676 h 11.58378 v 2.31676 h 2.31675 v 2.31675 h 2.31676 v 2.31676 h 2.31675 v 6.95027 h -2.31675 v 2.31675 h -9.26702 -6.95027 v 2.31676 h 2.31676 v 4.63351 h 11.58377 v -2.31676 h 4.63351 v -2.31675 h 2.31676 v -4.63351 h 2.31676 v -6.95027 h 2.31675 v 2.31675 h 2.31676 v 4.63352 h 4.63351 v 2.31675 h 2.31675 v 2.31676 h -9.26702 v 2.31675 h -2.31675 v 2.31676 h -2.31676 v 2.31675 h -4.63351 v 2.31676 h -4.63351 z m 11.58378,-16.21729 v -2.31676 h -2.31676 v -2.31675 h -2.31675 v -2.31676 h -2.31676 v 2.31676 h -2.31675 v 2.31675 h -2.31676 v 2.31676 z m 44.01839,16.21729 h -11.58378 v -2.31676 h -2.31675 v -2.31675 h -2.31676 v -18.53405 h 2.31676 v -2.31675 h 2.31675 v -2.31676 h 11.58378 v 2.31676 h 2.31675 v -6.95027 -4.63351 h 6.95027 v 4.63351 32.43458 h -6.95027 v -2.31676 h -2.31675 z m 0,-4.63351 v -4.63351 h 2.31675 v -11.58378 h -2.31675 v -2.31676 h -6.95027 v 4.63351 h -2.31675 v 11.58378 h 2.31675 v 2.31676 z m 14.3883,4.63351 v -2.31676 h 2.31676 v -23.16755 h 2.31675 v -2.31676 h 4.63351 v 27.80107 z m 4.63351,-37.06809 h 4.63351 v 6.95027 h -6.95026 v -4.63351 h 2.31675 z m 25.4843,37.06809 h -4.63351 v -2.31676 h -2.31676 v -2.31675 h -2.31675 v -6.95027 h -2.31676 v -11.58378 h -2.31675 v -2.31675 h -2.31676 v -2.31676 h 9.26702 v 9.26702 h 2.31676 v 11.58378 h 4.63351 v -11.58378 h 2.31676 v -9.26702 h 9.26702 v 2.31676 h -2.31676 v 2.31675 h -2.31675 v 11.58378 h -2.31676 v 6.95027 h -2.31675 v 2.31675 h -2.31676 z m 21.2166,0 v -2.31676 H 414.449 v -2.31675 h -2.31675 v -2.31676 h -2.31676 v -13.87614 h 2.31676 v -2.34115 h 2.31675 v -2.31675 h 2.31676 v -2.31676 h 11.58378 v 2.31676 h 2.31675 v 2.31675 h 2.31676 v 2.31676 h 2.31675 v 6.95027 h -2.31675 v 2.31675 h -9.26703 -6.95026 v 2.31676 h 2.31675 v 4.63351 h 11.58378 v -2.31676 h 4.63351 v -2.31675 h 2.31676 v -4.63351 h 2.31675 v -6.95027 h 2.31676 v 2.31675 h 2.31675 v 4.63352 h 4.63351 v 2.31675 h 2.31676 v 2.31676 h -9.26702 v 2.31675 h -2.31676 v 2.31676 h -2.31675 v 2.31675 h -4.63351 v 2.31676 h -4.63351 z m 11.58378,-16.21729 v -2.31676 h -2.31676 v -2.31675 h -2.31676 v -2.31676 h -2.31675 v 2.31676 h -2.31676 v 2.31675 h -2.31675 v 2.31676 z m 26.33785,16.21729 v -25.48431 h 2.31676 v -2.31676 h 4.63351 v 4.63351 h 2.31676 v -2.31675 h 2.31675 v -2.31676 h 9.26702 v 2.31676 h 4.63351 v 2.31675 h 6.95027 v -2.31675 h 2.31676 v -2.31676 h 9.26702 v 2.31676 h 4.63351 v 6.95026 h -2.31676 v -2.31675 h -2.31675 v -2.31676 h -9.26702 v 2.31676 h -2.31676 v 2.31675 h -9.26702 v -2.31675 h -2.31676 v -2.31676 h -9.26702 v 2.31676 h -2.31675 v 2.31675 h -2.31676 v 18.53405 z m 23.16756,-20.8508 v -2.31676 z m 0,-2.31676 v -2.31675 z m 6.95027,2.31676 v -2.31676 z m 6.95026,-2.31676 v -2.31675 z m 6.95027,2.31676 v -2.31676 z m 0,-2.31676 v -2.31675 z m 25.48435,23.16756 h -13.90054 v -2.31676 h -2.31675 v -6.95026 h 2.31675 v 2.31675 h 2.31676 v 2.31676 h 9.26702 v -4.63351 h -2.31675 v -2.31676 h -6.95027 v -2.31675 h -2.31676 v -2.31676 h -2.31675 v -6.95027 h 2.31675 v -2.31675 h 4.63352 v -2.31676 h 9.26702 v 2.31676 h 2.31675 v 4.63351 h -4.63351 v -2.31676 h -6.95026 v 2.31676 h -2.31676 v 2.31675 h 2.31676 v 2.31676 h 6.95026 v 2.31676 h 4.63351 v 2.31675 h 2.31676 v 6.95027 h -2.31676 v 2.31675 h -2.31675 z m 16.21723,0 v -2.31676 h -2.31676 v -2.31675 h -2.31675 v -2.31676 h -2.31676 v -13.87614 h 2.31676 v -2.34115 h 2.31675 v -2.31675 h 2.31676 v -2.31676 h 11.58378 v 2.31676 h 2.31675 v 2.31675 h 2.31676 v 2.31676 h 2.31675 v 6.95027 h -2.31675 v 2.31675 h -9.26702 -6.95027 v 2.31676 h 2.31675 v 4.63351 h 11.58378 v -2.31676 h 4.63351 v -2.31675 h 2.31676 v -4.63351 h 2.31675 v -6.95027 h 2.31676 v 2.31675 h 2.31675 v 4.63352 h 4.63352 v 2.31675 h 2.31675 v 2.31676 h -9.26702 v 2.31675 h -2.31676 v 2.31676 h -2.31675 v 2.31675 h -4.63351 v 2.31676 h -4.63351 z m 11.58378,-16.21729 v -2.31676 h -2.31676 v -2.31675 h -2.31675 v -2.31676 h -2.31676 v 2.31676 h -2.31676 v 2.31675 h -2.31675 v 2.31676 z"
       id="text3"
       aria-label="Fediverse" />
    <path
       d="m 41.375905,153.73784 h -9.267022 v -2.31676 h -4.633511 v -4.63351 h -2.316755 v -13.90053 h 11.583777 v 9.26702 h -4.633511 v -4.63351 h -2.316755 v 9.26702 h 2.316755 v 2.31676 h 6.950267 v -2.31676 h 2.316755 v -27.80106 h 2.316756 v -2.31676 h 4.633511 v 30.11782 h -2.316756 v 4.63351 h -4.633511 z m 34.751317,0 H 55.276423 v -2.31676 h -2.316756 v -23.16755 h 2.316756 v -2.31676 h 20.850799 v 2.31676 h 2.316755 v 23.16755 h -2.316755 z m -4.633511,-4.63351 V 130.57028 H 59.909933 v 18.53405 z m 11.58379,4.63351 v -2.31676 h 2.316756 v -23.16755 h 2.316755 v -2.31676 h 4.633511 v 27.80107 z m 4.633511,-37.06809 h 4.633511 v 6.95027 h -6.950266 v -4.63351 h 2.316755 z m 28.288808,37.06809 v -2.31676 h -4.63351 v -4.63351 h -2.31676 v -16.21729 h -4.63351 v 23.16756 h -6.950264 v -27.80107 h 11.583774 v 2.31676 h 4.63351 v 4.63351 h 2.31676 v 16.21729 h 4.63351 v -23.16756 h 6.95027 v 27.80107 z m 57.5531,0 h -11.58377 v -2.31676 h -2.31676 v -20.8508 h -4.63351 v 2.31676 h -6.95027 v -4.63351 h 2.31676 v 2.31675 h 2.31675 v -2.31675 h 2.31676 v -2.31676 h 4.63351 v -4.63351 h 2.31676 v -2.31675 h 6.95026 v 2.31675 h -2.31675 v 4.63351 h 6.95026 v 2.31676 h 2.31676 v 6.95026 h -4.63351 v -2.31675 h 2.31675 v -2.31676 h -6.95026 v 16.21729 h 2.31675 v 2.31676 h 6.95027 v 2.31675 h -2.31676 z m -9.26702,-18.53405 v -6.95026 h -2.31675 v 6.95026 z m 16.46116,18.53405 v -37.06809 h 6.95026 v 13.90053 h 2.31676 v -2.31675 h 2.31675 v -2.31676 h 6.95027 v 2.31676 h 2.31676 v 2.31675 h 2.31675 v 2.31676 h 2.31676 v 20.8508 h -6.95027 v -18.53405 h -2.31675 v -2.31675 h -6.95027 v 4.63351 h -2.31676 v 16.21729 z m 37.06811,0 v -2.31676 h -2.31676 v -2.31675 h -2.31675 v -2.31676 h -2.31676 v -13.87614 h 2.31676 v -2.34115 h 2.31675 v -2.31675 h 2.31676 v -2.31676 h 6.95026 11.58378 v 13.90054 h -2.31675 v 2.31675 h -9.26703 -6.95026 v 2.31676 h 2.31675 v 2.31675 h 2.31676 v 2.31676 h 6.95026 v -2.31676 h 6.95027 v 6.95027 z m 6.95026,-16.21729 h 4.63351 v -6.95027 h -4.63351 -2.31675 v 2.31676 h -2.31676 v 2.31675 h -2.31675 v 2.31676 z"
       id="text5"
       style="font-size:48.7738px;line-height:1;font-family:ADAXI;-inkscape-font-specification:'ADAXI, Normal';font-feature-settings:'ss01';text-align:center;letter-spacing:0px;word-spacing:0px;text-anchor:middle;white-space:pre;stroke-width:0;stroke-linecap:square;paint-order:stroke fill markers"
       aria-label="Join the" />
    <path
       style="font-size:76.6765px;line-height:1;font-family:ADAXI;-inkscape-font-specification:ADAXI;font-feature-settings:'ss01';text-align:center;letter-spacing:0px;word-spacing:0px;text-anchor:middle;white-space:pre;stroke-width:0;stroke-linecap:square;paint-order:stroke fill markers"
       d="m 57.937907,61.255328 h -3.642133 v -3.642134 h 3.642133 z m 0,-7.284268 h 7.284268 v 3.642134 h -7.284268 z m 0,0 h -3.642133 v -3.642133 h 3.642133 z m 0,-7.284267 h 3.642134 v 3.642134 H 57.937907 Z M 50.65364,61.255328 h -3.642134 v -3.642134 h 3.642134 z m 0,-7.284268 h 3.642134 v 3.642134 H 50.65364 Z m 0,0 h -3.642134 v -3.642133 h 3.642134 z m 0,-10.926401 h 3.642134 v 7.284268 H 50.65364 Z m -3.642134,7.284268 h -3.642133 v -3.642134 h 3.642133 z m 0,14.568534 h -3.642133 v -3.642133 h 3.642133 z m 14.568535,0 h -3.642134 v -3.642133 h 3.642134 z m -7.284267,3.642134 H 50.65364 v -7.284267 h 3.642134 z M 47.011506,57.613194 H 39.727239 V 53.97106 h 7.284267 z M 72.506442,86.750263 H 68.864308 V 83.10813 h 3.642134 z m 0,-7.284267 h 7.284267 v 3.642134 h -7.284267 z m 0,0 h -3.642134 v -3.642134 h 3.642134 z m 0,-7.284267 h 3.642134 v 3.642133 H 72.506442 Z M 65.222175,86.750263 H 61.580041 V 83.10813 h 3.642134 z m 0,-7.284267 h 3.642133 v 3.642134 h -3.642133 z m 0,0 h -3.642134 v -3.642134 h 3.642134 z m 0,-10.926401 h 3.642133 v 7.284267 h -3.642133 z m -3.642134,7.284267 h -3.642134 v -3.642133 h 3.642134 z m 0,14.568535 h -3.642134 v -3.642134 h 3.642134 z m 14.568535,0 h -3.642134 v -3.642134 h 3.642134 z m -7.284268,3.642134 h -3.642133 v -7.284268 h 3.642133 z M 61.580041,83.10813 h -7.284267 v -3.642134 h 7.284267 z M 43.369373,86.750263 H 39.727239 V 83.10813 h 3.642134 z m 0,-7.284267 h 7.284267 v 3.642134 h -7.284267 z m 0,0 h -3.642134 v -3.642134 h 3.642134 z m 0,-7.284267 h 3.642133 v 3.642133 H 43.369373 Z M 36.085105,86.750263 H 32.442972 V 83.10813 h 3.642133 z m 0,-7.284267 h 3.642134 v 3.642134 h -3.642134 z m 0,0 h -3.642133 v -3.642134 h 3.642133 z m 0,-10.926401 h 3.642134 v 7.284267 h -3.642134 z m -3.642133,7.284267 h -3.642134 v -3.642133 h 3.642134 z m 0,14.568535 h -3.642134 v -3.642134 h 3.642134 z m 14.568534,0 h -3.642133 v -3.642134 h 3.642133 z m -7.284267,3.642134 h -3.642134 v -7.284268 h 3.642134 z M 32.442972,83.10813 h -7.284268 v -3.642134 h 7.284268 z"
       id="text6-6"
       aria-label="⁂" />
    <path
       style="font-size:76.6765px;line-height:1;font-family:ADAXI;-inkscape-font-specification:ADAXI;font-feature-settings:'ss01';text-align:center;letter-spacing:0px;word-spacing:0px;text-anchor:middle;white-space:pre;stroke-width:0;stroke-linecap:square;paint-order:stroke fill markers"
       d="m 556.94791,61.255328 h -3.64213 v -3.642134 h 3.64213 z m 0,-7.284268 h 7.28427 v 3.642134 h -7.28427 z m 0,0 h -3.64213 v -3.642133 h 3.64213 z m 0,-7.284267 h 3.64213 v 3.642134 h -3.64213 z m -7.28427,14.568535 h -3.64213 v -3.642134 h 3.64213 z m 0,-7.284268 h 3.64214 v 3.642134 h -3.64214 z m 0,0 h -3.64213 v -3.642133 h 3.64213 z m 0,-10.926401 h 3.64214 v 7.284268 h -3.64214 z m -3.64213,7.284268 h -3.64214 v -3.642134 h 3.64214 z m 0,14.568534 h -3.64214 v -3.642133 h 3.64214 z m 14.56853,0 h -3.64213 v -3.642133 h 3.64213 z m -7.28426,3.642134 h -3.64214 v -7.284267 h 3.64214 z m -7.28427,-10.926401 h -7.28427 V 53.97106 h 7.28427 z m 25.49493,29.137069 h -3.64213 V 83.10813 h 3.64213 z m 0,-7.284267 h 7.28427 v 3.642134 h -7.28427 z m 0,0 h -3.64213 v -3.642134 h 3.64213 z m 0,-7.284267 h 3.64214 v 3.642133 h -3.64214 z m -7.28426,14.568534 h -3.64214 V 83.10813 h 3.64214 z m 0,-7.284267 h 3.64213 v 3.642134 h -3.64213 z m 0,0 h -3.64214 v -3.642134 h 3.64214 z m 0,-10.926401 h 3.64213 v 7.284267 h -3.64213 z m -3.64214,7.284267 h -3.64213 v -3.642133 h 3.64213 z m 0,14.568535 h -3.64213 v -3.642134 h 3.64213 z m 14.56854,0 h -3.64214 v -3.642134 h 3.64214 z m -7.28427,3.642134 h -3.64213 v -7.284268 h 3.64213 z M 560.59004,83.10813 h -7.28426 v -3.642134 h 7.28426 z m -18.21067,3.642133 h -3.64213 V 83.10813 h 3.64213 z m 0,-7.284267 h 7.28427 v 3.642134 h -7.28427 z m 0,0 h -3.64213 v -3.642134 h 3.64213 z m 0,-7.284267 h 3.64214 v 3.642133 h -3.64214 z m -7.28426,14.568534 h -3.64214 V 83.10813 h 3.64214 z m 0,-7.284267 h 3.64213 v 3.642134 h -3.64213 z m 0,0 h -3.64214 v -3.642134 h 3.64214 z m 0,-10.926401 h 3.64213 v 7.284267 h -3.64213 z m -3.64214,7.284267 h -3.64213 v -3.642133 h 3.64213 z m 0,14.568535 h -3.64213 v -3.642134 h 3.64213 z m 14.56854,0 h -3.64214 v -3.642134 h 3.64214 z m -7.28427,3.642134 h -3.64213 v -7.284268 h 3.64213 z M 531.45297,83.10813 h -7.28426 v -3.642134 h 7.28426 z"
       id="text6-6-1"
       aria-label="⁂" />
    <path
       style="fill:none;stroke:#ff0000;stroke-width:1;stroke-linecap:square;stroke-dasharray:none;stroke-opacity:1;paint-order:stroke fill markers"
       d="m 121.33373,28.801009 c 29.84459,-0.213241 51.84369,-15.531734 88.17119,-15.573828 36.32751,-0.04209 74.33974,59.552597 102.32199,11.142905 27.57422,-47.703798 107.2556,-2.215463 107.2556,-2.215463 0,0 38.63568,17.703272 83.82743,6.646386 27.16513,-6.646386 48.57477,-37.728451 75.89077,-15.573828 30.1109,24.421426 -3.64213,77.165216 9.01423,110.046369 12.65636,32.88115 6.34819,64.81128 -24.19109,70.82987 -50.54554,9.96136 -76.50188,-64.69152 -93.44685,-25.24926 -12.9618,30.17076 -18.53789,40.99432 -114.75496,5.09955 -54.18927,-20.21587 -60.80627,31.52218 -92.41569,20.14971 -72.91781,-26.23446 -76.07086,-15.98409 -212.629468,0 C 0,200 -7.8771229,151.34287 13.849606,94.034531 28.9949,54.085966 3.2718901,29.373835 25.158704,13.227181 51.292509,-6.0526238 88.85862,29.033045 121.33373,28.801009 Z"
       id="path1"
       sodipodi:nodetypes="azscsszssssssaa" />
  </g>
</svg>
