<?xml version="1.0" encoding="UTF-8"?>
<svg width="600mm" height="200mm" version="1.1" viewBox="0 0 600 200" xmlns="http://www.w3.org/2000/svg"><g stroke-width="0"><path d="m126 51.1h9.56q4.17 0 6.29 1.89 2.12 1.85 2.12 5.39 0 0.748-0.118 1.53-0.0787 0.787-0.275 1.65l-1.5 6.85q-0.59 2.79-1.46 4.76-0.866 1.93-2.2 3.15-1.34 1.22-3.3 1.77-1.93 0.551-4.72 0.551h-8.93v-3.07h2.6l4.52-21.4h-2.6zm4.37 24.5q1.81 0 3.19-0.354 1.42-0.354 2.44-1.18 1.02-0.866 1.73-2.28 0.708-1.42 1.14-3.58l1.38-6.61q0.197-1.02 0.275-1.69 0.0787-0.669 0.0787-1.3 0-2.52-1.42-3.46-1.42-0.944-4.29-0.944h-2.99l-4.52 21.4zm22.8-13.1q0.118-0.472-0.118-0.708-0.236-0.275-0.59-0.275-0.315 0-0.59 0.197l-3.58 2.44-1.57-2.32 3.5-2.36q1.34-0.905 2.71-0.905 1.22 0 2.12 0.708 0.905 0.669 1.02 2.2h0.472q1.14-1.61 2.56-2.24 1.42-0.669 2.95-0.669 2.83 0 4.45 1.65 1.61 1.61 1.61 4.29 0 1.02-0.236 2.09l-3.34 0.236q0.197-0.984 0.197-1.65 0-1.89-1.06-2.79-1.02-0.905-2.68-0.905-1.18 0-2.16 0.472-0.944 0.433-1.65 1.22-0.708 0.748-1.22 1.77-0.472 1.02-0.708 2.12l-1.85 8.73h4.64v2.83h-12.5v-2.83h4.8zm29.4-3.93q1.69 0 3.15 0.59t2.52 1.65q1.06 1.06 1.65 2.56 0.63 1.46 0.63 3.23 0 2.44-0.826 4.72-0.787 2.24-2.36 4.01-1.53 1.73-3.82 2.79-2.24 1.06-5.11 1.06-1.65 0-3.11-0.551-1.46-0.59-2.56-1.61-1.06-1.02-1.69-2.48-0.63-1.5-0.63-3.3 0-2.83 0.944-5.15 0.984-2.36 2.64-4.01 1.69-1.65 3.9-2.56 2.2-0.944 4.68-0.944zm-3.5 17.7q1.81 0 3.34-0.787 1.53-0.826 2.64-2.12 1.1-1.34 1.69-3.03 0.63-1.69 0.63-3.5 0-2.32-1.46-3.82-1.42-1.53-4.01-1.53-1.69 0-3.19 0.748-1.5 0.748-2.64 2.05-1.1 1.3-1.77 3.03-0.669 1.69-0.669 3.62 0 2.36 1.42 3.86 1.42 1.5 4.01 1.5zm17.7 10.2h-3.03l5.15-24.4q0.0787-0.433-0.0787-0.59-0.157-0.197-0.472-0.197-0.197 0-0.354 0.118l-2.16 1.5-1.57-2.32 1.85-1.26q1.1-0.748 2.4-0.748 1.57 0 2.48 0.866 0.944 0.866 0.944 2.52v0.236h0.472q1.18-1.77 2.83-2.68 1.69-0.944 4.01-0.944 1.61 0 2.95 0.59 1.38 0.551 2.32 1.57 0.984 0.984 1.53 2.4 0.551 1.38 0.551 2.99 0 2.6-0.708 4.96-0.669 2.36-2.05 4.17-1.38 1.81-3.42 2.87t-4.8 1.06q-2.2 0-3.82-0.984-1.57-1.02-2.24-2.56h-0.472zm8.46-10.2q1.93 0 3.42-0.787 1.53-0.787 2.56-2.09 1.06-1.34 1.57-3.07 0.551-1.73 0.551-3.58 0-2.6-1.38-3.93-1.34-1.34-3.58-1.34-1.81 0-3.3 0.826-1.46 0.826-2.52 2.16-1.06 1.34-1.65 3.03t-0.59 3.46q0 2.52 1.3 3.93 1.3 1.38 3.62 1.38zm41.1-6.45q-0.0787 0.315-0.118 0.708-0.0393 0.393-0.0393 0.826 0 2.16 1.26 3.58 1.26 1.38 4.01 1.38 1.38 0 2.44-0.315 1.1-0.315 1.89-0.866 0.787-0.59 1.34-1.3 0.59-0.748 0.984-1.57l2.52 1.42q-0.551 1.14-1.38 2.16-0.826 0.984-1.97 1.73-1.14 0.748-2.64 1.18-1.5 0.433-3.42 0.433-1.77 0-3.27-0.551-1.46-0.511-2.52-1.5-1.06-1.02-1.65-2.48-0.59-1.46-0.59-3.3 0-2.48 0.787-4.76 0.787-2.32 2.28-4.09 1.5-1.77 3.7-2.83 2.2-1.1 5-1.1 1.97 0 3.42 0.629 1.46 0.59 2.4 1.65 0.944 1.02 1.42 2.36 0.472 1.3 0.472 2.71 0 1.06-0.236 2.05l-0.433 1.85zm8.22-8.34q-1.38 0-2.6 0.433-1.18 0.393-2.16 1.14-0.984 0.748-1.69 1.77-0.708 0.984-1.1 2.16h12.5q0.118-0.629 0.118-1.18 0-2.12-1.46-3.23-1.46-1.1-3.62-1.1zm21.4 15.7h0.472l9.13-18.1 2.87 1.46-9.44 18.1h-5.98l-1.5-16.4q-0.0787-0.629-0.669-0.629-0.433 0-0.708 0.354l-1.93 2.44-2.2-1.77 1.89-2.44q0.63-0.787 1.46-1.18 0.826-0.393 1.69-0.393 1.3 0 2.32 0.826 1.06 0.826 1.22 2.48zm18.5-7.4q-0.0787 0.315-0.118 0.708-0.0393 0.393-0.0393 0.826 0 2.16 1.26 3.58 1.26 1.38 4.01 1.38 1.38 0 2.44-0.315 1.1-0.315 1.89-0.866 0.787-0.59 1.34-1.3 0.59-0.748 0.984-1.57l2.52 1.42q-0.551 1.14-1.38 2.16-0.826 0.984-1.97 1.73-1.14 0.748-2.64 1.18-1.5 0.433-3.42 0.433-1.77 0-3.27-0.551-1.46-0.511-2.52-1.5-1.06-1.02-1.65-2.48t-0.59-3.3q0-2.48 0.787-4.76 0.787-2.32 2.28-4.09 1.5-1.77 3.7-2.83 2.2-1.1 5-1.1 1.97 0 3.42 0.629 1.46 0.59 2.4 1.65 0.944 1.02 1.42 2.36 0.472 1.3 0.472 2.71 0 1.06-0.236 2.05l-0.433 1.85zm8.22-8.34q-1.38 0-2.6 0.433-1.18 0.393-2.16 1.14-0.984 0.748-1.69 1.77-0.708 0.984-1.1 2.16h12.5q0.118-0.629 0.118-1.18 0-2.12-1.46-3.23-1.46-1.1-3.62-1.1zm19.1 1.02q0.118-0.472-0.118-0.708-0.236-0.275-0.59-0.275-0.315 0-0.59 0.197l-3.58 2.44-1.57-2.32 3.5-2.36q1.34-0.905 2.71-0.905 1.22 0 2.12 0.708 0.905 0.669 1.02 2.2h0.472q1.14-1.61 2.56-2.24 1.42-0.669 2.95-0.669 2.83 0 4.45 1.65 1.61 1.61 1.61 4.29 0 1.02-0.236 2.09l-3.34 0.236q0.197-0.984 0.197-1.65 0-1.89-1.06-2.79-1.02-0.905-2.68-0.905-1.18 0-2.16 0.472-0.944 0.433-1.65 1.22-0.708 0.748-1.22 1.77-0.472 1.02-0.708 2.12l-1.85 8.73h4.64v2.83h-12.5v-2.83h4.8zm23.9 7.87q-0.275 1.22-0.275 2.28 0 3.62 3.9 3.62 2.71 0 4.64-1.89 1.93-1.93 2.6-5.11l2.12-10.2h3.07l-5.15 24.3q-0.275 1.34-1.3 2.2t-2.36 0.866h-10.7v-2.83h10.2q1.06 0 1.3-1.18l1.5-6.92h-0.472q-1.18 1.77-2.83 2.71-1.61 0.905-3.86 0.905-2.64 0-4.21-1.57-1.57-1.57-1.57-4.45 0-1.18 0.275-2.4l1.77-8.42q0.0787-0.393-0.118-0.59-0.157-0.236-0.433-0.236-0.236 0-0.511 0.197l-2.01 1.38-1.57-2.32 2.05-1.38q1.22-0.826 2.48-0.826 1.3 0 2.24 0.866 0.944 0.866 0.944 2.4 0 0.236-0.0394 0.472 0 0.197-0.0787 0.551zm19.9-11.3h6.77l1.81-8.58h3.07l-1.81 8.58h6.92v2.83h-7.55l-2.79 13.3q-0.118 0.472 0.0787 0.748 0.236 0.275 0.59 0.275 0.275 0 0.59-0.197l5.23-3.54 1.57 2.32-5.23 3.54q-1.26 0.826-2.6 0.826-1.38 0-2.36-0.826-0.984-0.826-0.984-2.48 0-0.275 0.0393-0.551 0.0393-0.315 0.118-0.629l2.68-12.7h-6.14zm37.6 7.95q0.118-0.551 0.157-0.944 0.0787-0.433 0.0787-0.866 0-2.05-1.22-2.91-1.18-0.866-2.95-0.866-2.68 0-4.45 1.93-1.73 1.89-2.4 5.08l-2.16 10.2h-3.03l5.98-28.1h2.95l-2.36 11.5h0.472q0.984-1.85 2.56-2.64 1.57-0.826 3.54-0.826 2.6 0 4.29 1.65 1.73 1.61 1.73 4.56 0 1.26-0.275 2.52l-1.73 8.22q-0.118 0.59 0.511 0.59 0.236 0 0.472-0.197l1.53-1.1 1.65 2.32-1.81 1.3q-1.06 0.748-2.4 0.748-1.22 0-2.16-0.708-0.905-0.708-0.905-2.2 0-0.433 0.118-1.02zm19.2-13.8q0-1.14 0.787-1.93 0.826-0.826 1.97-0.826 1.14 0 1.93 0.826 0.826 0.787 0.826 1.93 0 1.14-0.826 1.97-0.787 0.787-1.93 0.787-1.14 0-1.97-0.787-0.787-0.826-0.787-1.97zm-0.63 9.25q0.0787-0.393-0.118-0.669-0.157-0.315-0.59-0.315-0.315 0-0.59 0.157l-4.6 3.15-1.57-2.32 4.64-3.15q1.22-0.826 2.64-0.826 1.34 0 2.32 0.787t0.984 2.44q0 0.629-0.157 1.26l-2.91 12.2q-0.118 0.472 0.0787 0.748 0.236 0.275 0.59 0.275 0.275 0 0.59-0.197l4.52-3.07 1.57 2.32-4.52 3.07q-1.26 0.826-2.64 0.826-1.34 0-2.32-0.787t-0.984-2.44q0-0.629 0.157-1.26zm29 4.37q0.118-0.551 0.157-0.905 0.0393-0.393 0.0393-0.787 0-1.89-1.14-2.79-1.1-0.944-3.11-0.944-2.68 0-4.37 1.93-1.69 1.89-2.32 4.84l-2.2 10.4h-3.07l4.17-19.5h3.07l-0.59 2.83h0.472q0.984-1.77 2.56-2.56 1.61-0.826 3.38-0.826 1.26 0 2.4 0.433 1.14 0.393 1.97 1.18 0.866 0.787 1.34 1.93 0.511 1.14 0.511 2.64 0 0.984-0.236 2.09l-1.89 8.73q-0.0787 0.315 0.0787 0.472 0.157 0.157 0.393 0.157t0.433-0.157l1.65-1.22 1.65 2.32-1.53 1.14q-1.18 0.905-2.64 0.905-0.59 0-1.14-0.157-0.551-0.118-0.984-0.433-0.433-0.354-0.708-0.905-0.275-0.551-0.275-1.38 0-0.511 0.157-1.26zm23.4 8.97h-0.472q-1.14 1.65-2.87 2.48-1.69 0.826-3.74 0.826-1.69 0-3.11-0.551-1.38-0.59-2.36-1.61-0.984-1.02-1.53-2.48-0.511-1.46-0.511-3.23 0-2.71 0.787-5.04 0.826-2.32 2.28-4.01 1.5-1.73 3.54-2.71 2.09-0.984 4.56-0.984 2.32 0 3.82 1.02 1.53 0.984 2.01 2.6h0.472l0.669-3.07h3.07l-5.15 24.3q-0.315 1.34-1.34 2.2-1.02 0.866-2.36 0.866h-11.9v-2.83h11.4q1.1 0 1.34-1.18zm-6.41 0.393q1.81 0 3.3-0.787 1.5-0.826 2.56-2.12 1.1-1.34 1.69-3.03t0.59-3.42q0-2.44-1.38-3.93-1.38-1.5-3.7-1.5-1.85 0-3.34 0.787-1.5 0.787-2.56 2.12-1.02 1.3-1.61 3.03-0.551 1.73-0.551 3.58 0 2.44 1.26 3.86 1.3 1.42 3.74 1.42z" style="paint-order:stroke fill markers;white-space:pre" aria-label="Drop everything"/><path d="m293 104q-0.41 0.701-0.979 0.966-0.556 0.251-1.18 0.251-0.529 0-0.952-0.185-0.423-0.198-0.714-0.542t-0.45-0.82q-0.159-0.489-0.159-1.07 0-0.833 0.238-1.61 0.238-0.781 0.688-1.38 0.463-0.595 1.14-0.953 0.675-0.37 1.56-0.37 0.675 0 1.15 0.318 0.476 0.304 0.622 0.9h0.159l0.212-1.03h1.03l-1.16 5.45q-0.0265 0.119 0.0265 0.185 0.0529 0.0529 0.146 0.0529 0.0926 0 0.185-0.0661l0.476-0.344 0.556 0.781-0.595 0.45q-0.146 0.106-0.37 0.172-0.212 0.0661-0.437 0.0661-0.198 0-0.384-0.0529t-0.344-0.159q-0.146-0.119-0.238-0.291-0.0926-0.185-0.0926-0.45 0-0.0661 0-0.132 0.0132-0.0661 0.0265-0.132zm-1.84 0.238q0.529 0 0.992-0.238 0.476-0.251 0.82-0.675 0.357-0.423 0.556-0.992 0.198-0.582 0.198-1.26 0-0.82-0.37-1.31-0.37-0.503-1.15-0.503-0.622 0-1.1 0.265-0.463 0.265-0.794 0.714-0.331 0.437-0.503 1.02-0.159 0.582-0.159 1.2 0 0.873 0.384 1.32 0.384 0.45 1.12 0.45zm10.8-3.15q0.0397-0.185 0.0529-0.304 0.0132-0.132 0.0132-0.265 0-0.635-0.384-0.939-0.37-0.318-1.05-0.318-0.9 0-1.47 0.648-0.569 0.635-0.781 1.63l-0.741 3.49h-1.03l1.4-6.56h1.03l-0.198 0.953h0.159q0.331-0.595 0.86-0.86 0.542-0.278 1.14-0.278 0.423 0 0.807 0.146 0.384 0.132 0.661 0.397 0.291 0.265 0.45 0.648 0.172 0.384 0.172 0.886 0 0.331-0.0794 0.701l-0.635 2.94q-0.0265 0.106 0.0265 0.159 0.0529 0.0529 0.132 0.0529 0.0794 0 0.146-0.0529l0.556-0.41 0.556 0.781-0.516 0.384q-0.397 0.304-0.886 0.304-0.198 0-0.384-0.0529-0.185-0.0397-0.331-0.146-0.146-0.119-0.238-0.304-0.0926-0.185-0.0926-0.463 0-0.172 0.0529-0.423zm7.28 2.91q-0.423 0.701-1.01 0.966-0.582 0.251-1.23 0.251-0.529 0-0.966-0.185-0.437-0.185-0.741-0.516-0.304-0.344-0.476-0.82-0.172-0.489-0.172-1.07 0-0.82 0.251-1.6 0.251-0.781 0.728-1.39t1.16-0.979q0.701-0.37 1.6-0.37 0.701 0 1.16 0.291 0.476 0.291 0.648 0.926h0.159l0.82-3.92h1.03l-1.77 8.33q-0.0397 0.238 0.172 0.238 0.0794 0 0.172-0.0661l0.476-0.344 0.569 0.781-0.595 0.45q-0.146 0.106-0.357 0.172-0.198 0.0661-0.45 0.0661-0.198 0-0.384-0.0529-0.185-0.0529-0.344-0.159-0.146-0.119-0.238-0.291-0.0926-0.185-0.0926-0.45 0-0.0661 0-0.132 0.0132-0.0661 0.0265-0.132zm-1.92 0.238q0.529 0 1.01-0.238 0.489-0.251 0.847-0.675 0.37-0.423 0.582-0.992 0.212-0.582 0.212-1.26 0-0.82-0.41-1.31-0.41-0.503-1.19-0.503-0.622 0-1.11 0.278-0.476 0.265-0.82 0.714-0.344 0.437-0.529 1.02-0.172 0.582-0.172 1.2 0 1.76 1.59 1.76z" style="paint-order:stroke fill markers;white-space:pre" aria-label="and"/><path d="m263 154v-16.2h2.32v-4.63h-2.32v-13.9h2.32v-2.32h16.2v2.32h2.32v2.32h-9.27v2.32h-4.63v9.27h11.6v4.63h-11.6v16.2zm32.4 0v-2.32h-2.32v-2.32h-2.32v-2.32h-2.32v-13.9h2.32v-2.34h2.32v-2.32h2.32v-2.32h11.6v2.32h2.32v2.32h2.32v2.32h2.32v6.95h-2.32v2.32h-16.2v2.32h2.32v4.63h11.6v-2.32h4.63v-2.32h2.32v-4.63h2.32v-6.95h2.32v2.32h2.32v4.63h4.63v2.32h2.32v2.32h-9.27v2.32h-2.32v2.32h-2.32v2.32h-4.63v2.32h-4.63zm11.6-16.2v-2.32h-2.32v-2.32h-2.32v-2.32h-2.32v2.32h-2.32v2.32h-2.32v2.32zm44 16.2h-11.6v-2.32h-2.32v-2.32h-2.32v-18.5h2.32v-2.32h2.32v-2.32h11.6v2.32h2.32v-11.6h6.95v37.1h-6.95v-2.32h-2.32zm0-4.63v-4.63h2.32v-11.6h-2.32v-2.32h-6.95v4.63h-2.32v11.6h2.32v2.32zm14.4 4.63v-2.32h2.32v-23.2h2.32v-2.32h4.63v27.8zm4.63-37.1h4.63v6.95h-6.95v-4.63h2.32zm25.5 37.1h-4.63v-2.32h-2.32v-2.32h-2.32v-6.95h-2.32v-11.6h-2.32v-2.32h-2.32v-2.32h9.27v9.27h2.32v11.6h4.63v-11.6h2.32v-9.27h9.27v2.32h-2.32v2.32h-2.32v11.6h-2.32v6.95h-2.32v2.32h-2.32zm21.2 0v-2.32h-2.32v-2.32h-2.32v-2.32h-2.32v-13.9h2.32v-2.34h2.32v-2.32h2.32v-2.32h11.6v2.32h2.32v2.32h2.32v2.32h2.32v6.95h-2.32v2.32h-16.2v2.32h2.32v4.63h11.6v-2.32h4.63v-2.32h2.32v-4.63h2.32v-6.95h2.32v2.32h2.32v4.63h4.63v2.32h2.32v2.32h-9.27v2.32h-2.32v2.32h-2.32v2.32h-4.63v2.32h-4.63zm11.6-16.2v-2.32h-2.32v-2.32h-2.32v-2.32h-2.32v2.32h-2.32v2.32h-2.32v2.32zm26.3 16.2v-25.5h2.32v-2.32h4.63v4.63h2.32v-2.32h2.32v-2.32h9.27v2.32h4.63v2.32h6.95v-2.32h2.32v-2.32h9.27v2.32h4.63v6.95h-2.32v-2.32h-2.32v-2.32h-9.27v2.32h-2.32v2.32h-9.27v-2.32h-2.32v-2.32h-9.27v2.32h-2.32v2.32h-2.32v18.5zm23.2-20.9v-2.32zm0-2.32v-2.32zm6.95 2.32v-2.32zm6.95-2.32v-2.32zm6.95 2.32v-2.32zm0-2.32v-2.32zm25.5 23.2h-13.9v-2.32h-2.32v-6.95h2.32v2.32h2.32v2.32h9.27v-4.63h-2.32v-2.32h-6.95v-2.32h-2.32v-2.32h-2.32v-6.95h2.32v-2.32h4.63v-2.32h9.27v2.32h2.32v4.63h-4.63v-2.32h-6.95v2.32h-2.32v2.32h2.32v2.32h6.95v2.32h4.63v2.32h2.32v6.95h-2.32v2.32h-2.32zm16.2 0v-2.32h-2.32v-2.32h-2.32v-2.32h-2.32v-13.9h2.32v-2.34h2.32v-2.32h2.32v-2.32h11.6v2.32h2.32v2.32h2.32v2.32h2.32v6.95h-2.32v2.32h-16.2v2.32h2.32v4.63h11.6v-2.32h4.63v-2.32h2.32v-4.63h2.32v-6.95h2.32v2.32h2.32v4.63h4.63v2.32h2.32v2.32h-9.27v2.32h-2.32v2.32h-2.32v2.32h-4.63v2.32h-4.63zm11.6-16.2v-2.32h-2.32v-2.32h-2.32v-2.32h-2.32v2.32h-2.32v2.32h-2.32v2.32z" style="font-feature-settings:'ss02';paint-order:stroke fill markers;white-space:pre" aria-label="Fediverse"/><path d="m41.4 154h-9.27v-2.32h-4.63v-4.63h-2.32v-13.9h11.6v9.27h-4.63v-4.63h-2.32v9.27h2.32v2.32h6.95v-2.32h2.32v-27.8h2.32v-2.32h4.63v30.1h-2.32v4.63h-4.63zm34.8 0h-20.9v-2.32h-2.32v-23.2h2.32v-2.32h20.9v2.32h2.32v23.2h-2.32zm-4.63-4.63v-18.5h-11.6v18.5zm11.6 4.63v-2.32h2.32v-23.2h2.32v-2.32h4.63v27.8zm4.63-37.1h4.63v6.95h-6.95v-4.63h2.32zm28.3 37.1v-2.32h-4.63v-4.63h-2.32v-16.2h-4.63v23.2h-6.95v-27.8h11.6v2.32h4.63v4.63h2.32v16.2h4.63v-23.2h6.95v27.8zm57.6 0h-11.6v-2.32h-2.32v-20.9h-4.63v2.32h-6.95v-4.63h2.32v2.32h2.32v-2.32h2.32v-2.32h4.63v-4.63h2.32v-2.32h6.95v2.32h-2.32v4.63h6.95v2.32h2.32v6.95h-4.63v-2.32h2.32v-2.32h-6.95v16.2h2.32v2.32h6.95v2.32h-2.32zm-9.27-18.5v-6.95h-2.32v6.95zm16.5 18.5v-37.1h6.95v13.9h2.32v-2.32h2.32v-2.32h6.95v2.32h2.32v2.32h2.32v2.32h2.32v20.9h-6.95v-18.5h-2.32v-2.32h-6.95v4.63h-2.32v16.2zm37.1 0v-2.32h-2.32v-2.32h-2.32v-2.32h-2.32v-13.9h2.32v-2.34h2.32v-2.32h2.32v-2.32h18.5v13.9h-2.32v2.32h-16.2v2.32h2.32v2.32h2.32v2.32h6.95v-2.32h6.95v6.95zm6.95-16.2h4.63v-6.95h-6.95v2.32h-2.32v2.32h-2.32v2.32z" style="font-feature-settings:'ss01';paint-order:stroke fill markers;white-space:pre" aria-label="Join the"/><path d="m57.9 61.3h-3.64v-3.64h3.64zm0-7.28h7.28v3.64h-7.28zm0 0h-3.64v-3.64h3.64zm0-7.28h3.64v3.64h-3.64zm-7.28 14.6h-3.64v-3.64h3.64zm0-7.28h3.64v3.64h-3.64zm0 0h-3.64v-3.64h3.64zm0-10.9h3.64v7.28h-3.64zm-3.64 7.28h-3.64v-3.64h3.64zm0 14.6h-3.64v-3.64h3.64zm14.6 0h-3.64v-3.64h3.64zm-7.28 3.64h-3.64v-7.28h3.64zm-7.28-10.9h-7.28v-3.64h7.28zm25.5 29.1h-3.64v-3.64h3.64zm0-7.28h7.28v3.64h-7.28zm0 0h-3.64v-3.64h3.64zm0-7.28h3.64v3.64h-3.64zm-7.28 14.6h-3.64v-3.64h3.64zm0-7.28h3.64v3.64h-3.64zm0 0h-3.64v-3.64h3.64zm0-10.9h3.64v7.28h-3.64zm-3.64 7.28h-3.64v-3.64h3.64zm0 14.6h-3.64v-3.64h3.64zm14.6 0h-3.64v-3.64h3.64zm-7.28 3.64h-3.64v-7.28h3.64zm-7.28-10.9h-7.28v-3.64h7.28zm-18.2 3.64h-3.64v-3.64h3.64zm0-7.28h7.28v3.64h-7.28zm0 0h-3.64v-3.64h3.64zm0-7.28h3.64v3.64h-3.64zm-7.28 14.6h-3.64v-3.64h3.64zm0-7.28h3.64v3.64h-3.64zm0 0h-3.64v-3.64h3.64zm0-10.9h3.64v7.28h-3.64zm-3.64 7.28h-3.64v-3.64h3.64zm0 14.6h-3.64v-3.64h3.64zm14.6 0h-3.64v-3.64h3.64zm-7.28 3.64h-3.64v-7.28h3.64zm-7.28-10.9h-7.28v-3.64h7.28z" style="font-feature-settings:'ss01';paint-order:stroke fill markers;white-space:pre" aria-label="⁂"/><path d="m557 61.3h-3.64v-3.64h3.64zm0-7.28h7.28v3.64h-7.28zm0 0h-3.64v-3.64h3.64zm0-7.28h3.64v3.64h-3.64zm-7.28 14.6h-3.64v-3.64h3.64zm0-7.28h3.64v3.64h-3.64zm0 0h-3.64v-3.64h3.64zm0-10.9h3.64v7.28h-3.64zm-3.64 7.28h-3.64v-3.64h3.64zm0 14.6h-3.64v-3.64h3.64zm14.6 0h-3.64v-3.64h3.64zm-7.28 3.64h-3.64v-7.28h3.64zm-7.28-10.9h-7.28v-3.64h7.28zm25.5 29.1h-3.64v-3.64h3.64zm0-7.28h7.28v3.64h-7.28zm0 0h-3.64v-3.64h3.64zm0-7.28h3.64v3.64h-3.64zm-7.28 14.6h-3.64v-3.64h3.64zm0-7.28h3.64v3.64h-3.64zm0 0h-3.64v-3.64h3.64zm0-10.9h3.64v7.28h-3.64zm-3.64 7.28h-3.64v-3.64h3.64zm0 14.6h-3.64v-3.64h3.64zm14.6 0h-3.64v-3.64h3.64zm-7.28 3.64h-3.64v-7.28h3.64zm-7.28-10.9h-7.28v-3.64h7.28zm-18.2 3.64h-3.64v-3.64h3.64zm0-7.28h7.28v3.64h-7.28zm0 0h-3.64v-3.64h3.64zm0-7.28h3.64v3.64h-3.64zm-7.28 14.6h-3.64v-3.64h3.64zm0-7.28h3.64v3.64h-3.64zm0 0h-3.64v-3.64h3.64zm0-10.9h3.64v7.28h-3.64zm-3.64 7.28h-3.64v-3.64h3.64zm0 14.6h-3.64v-3.64h3.64zm14.6 0h-3.64v-3.64h3.64zm-7.28 3.64h-3.64v-7.28h3.64zm-7.28-10.9h-7.28v-3.64h7.28z" style="font-feature-settings:'ss01';paint-order:stroke fill markers;white-space:pre" aria-label="⁂"/></g><path d="m121 28.8c29.8-0.213 51.8-15.5 88.2-15.6 36.3-0.0421 74.3 59.6 102 11.1 27.6-47.7 107-2.22 107-2.22s38.6 17.7 83.8 6.65c27.2-6.65 48.6-37.7 75.9-15.6 30.1 24.4-3.64 77.2 9.01 110 12.7 32.9 6.35 64.8-24.2 70.8-50.5 9.96-76.5-64.7-93.4-25.2-13 30.2-18.5 41-115 5.1-54.2-20.2-60.8 31.5-92.4 20.1-72.9-26.2-76.1-16-213 0-50.4 5.9-58.3-42.8-36.5-100 15.1-39.9-10.6-64.7 11.3-80.8 26.1-19.3 63.7 15.8 96.2 15.6z" fill="none" stroke="#f00" stroke-linecap="square" style="paint-order:stroke fill markers"/></svg>
