<?xml version="1.0" encoding="UTF-8"?>
<svg width="22.16mm" height="27.7mm" version="1.1" viewBox="0 0 83.77 104.7" xmlns="http://www.w3.org/2000/svg"><defs><clipPath id="y"><path d="m0 255.1h255.1v-255.1h-255.1z"/></clipPath><clipPath id="x"><path d="m0 255.1h255.1v-255.1h-255.1z"/></clipPath><clipPath id="w"><path d="m0 255.1h255.1v-255.1h-255.1z"/></clipPath><clipPath id="v"><path d="m0 255.1h255.1v-255.1h-255.1z"/></clipPath><clipPath id="u"><path d="m0 255.1h255.1v-255.1h-255.1z"/></clipPath><clipPath id="t"><path d="m0 255.1h255.1v-255.1h-255.1z"/></clipPath><clipPath id="s"><path d="m0 255.1h255.1v-255.1h-255.1z"/></clipPath><clipPath id="r"><path d="m0 255.1h255.1v-255.1h-255.1z"/></clipPath><clipPath id="q"><path transform="translate(-75.34 -105.4)" d="m0 255.1h255.1v-255.1h-255.1z"/></clipPath><clipPath id="p"><path d="m0 255.1h255.1v-255.1h-255.1z"/></clipPath><clipPath id="o"><path d="m0 255.1h255.1v-255.1h-255.1z"/></clipPath><clipPath id="n"><path d="m0 255.1h255.1v-255.1h-255.1z"/></clipPath><clipPath id="m"><path d="m0 255.1h255.1v-255.1h-255.1z"/></clipPath><clipPath id="l"><path transform="translate(-59.63 -89.68)" d="m0 255.1h255.1v-255.1h-255.1z"/></clipPath><clipPath id="k"><path d="m0 255.1h255.1v-255.1h-255.1z"/></clipPath><clipPath id="j"><path transform="translate(-43.92 -73.98)" d="m0 255.1h255.1v-255.1h-255.1z"/></clipPath><clipPath id="i"><path d="m0 255.1h255.1v-255.1h-255.1z"/></clipPath><clipPath id="h"><path d="m0 255.1h255.1v-255.1h-255.1z"/></clipPath><clipPath id="g"><path d="m0 255.1h255.1v-255.1h-255.1z"/></clipPath><clipPath id="f"><path d="m0 255.1h255.1v-255.1h-255.1z"/></clipPath><clipPath id="e"><path d="m0 255.1h255.1v-255.1h-255.1z"/></clipPath><clipPath id="d"><path d="m0 255.1h255.1v-255.1h-255.1z"/></clipPath><clipPath id="c"><path d="m0 255.1h255.1v-255.1h-255.1z"/></clipPath><clipPath id="b"><path d="m0 255.1h255.1v-255.1h-255.1z"/></clipPath><clipPath id="a"><path d="m0 255.1h255.1v-255.1h-255.1z"/></clipPath><clipPath id="ah"><path d="m0 255.1h255.1v-255.1h-255.1z"/></clipPath><clipPath id="ag"><path transform="translate(-67.49 -81.83)" d="m0 255.1h255.1v-255.1h-255.1z"/></clipPath><clipPath id="af"><path d="m0 255.1h255.1v-255.1h-255.1z"/></clipPath><clipPath id="ae"><path d="m0 255.1h255.1v-255.1h-255.1z"/></clipPath><clipPath id="ad"><path transform="translate(-51.78 -66.13)" d="m0 255.1h255.1v-255.1h-255.1z"/></clipPath><clipPath id="ac"><path transform="translate(-43.92 -26.86)" d="m0 255.1h255.1v-255.1h-255.1z"/></clipPath><clipPath id="ab"><path d="m0 255.1h255.1v-255.1h-255.1z"/></clipPath><clipPath id="aa"><path transform="translate(-28.22 -42.56)" d="m0 255.1h255.1v-255.1h-255.1z"/></clipPath><clipPath id="z"><path transform="translate(-36.07 -73.98)" d="m0 255.1h255.1v-255.1h-255.1z"/></clipPath></defs><g transform="translate(-18.72 -180.7)"><g fill="#4b0082"><path transform="matrix(1.333 0 0 -1.333 -18.9 321.3)" d="m91.04 66.13h-7.85v-7.857h7.85z" clip-path="url(#y)"/><path transform="matrix(1.333 0 0 -1.333 -18.9 321.3)" d="m91.04 81.83h-7.85v-7.857h7.85z" clip-path="url(#x)"/><path transform="matrix(1.333 0 0 -1.333 -18.9 321.3)" d="m75.34 50.42h7.857v7.85h-7.857z" clip-path="url(#w)"/><path transform="matrix(1.333 0 0 -1.333 -18.9 321.3)" d="m75.34 66.13h7.857v7.85h-7.857z" clip-path="url(#v)"/><path transform="matrix(1.333 0 0 -1.333 -18.9 321.3)" d="m83.19 89.68h-7.857v-7.85h7.857z" clip-path="url(#u)"/><path transform="matrix(1.333 0 0 -1.333 -18.9 321.3)" d="m67.49 42.56h7.85v7.857h-7.85z" clip-path="url(#t)"/><path transform="matrix(1.333 0 0 -1.333 -18.9 321.3)" d="m67.49 58.27h7.85v7.857h-7.85z" clip-path="url(#s)"/><path transform="matrix(1.333 0 0 -1.333 -18.9 321.3)" d="m75.34 81.83h-7.85v-7.857h7.85z" clip-path="url(#r)"/><path transform="matrix(1.333 0 0 -1.333 81.55 180.7)" d="m0 0h-7.85v-15.71h7.85v7.856z" clip-path="url(#q)"/><path transform="matrix(1.333 0 0 -1.333 -18.9 321.3)" d="m59.63 50.42h7.857v7.85h-7.857z" clip-path="url(#p)"/><path transform="matrix(1.333 0 0 -1.333 -18.9 321.3)" d="m67.49 73.98h-7.857v-7.85h7.857z" clip-path="url(#o)"/><path transform="matrix(1.333 0 0 -1.333 -18.9 321.3)" d="m51.78 42.56h7.85v7.857h-7.85z" clip-path="url(#n)"/><path transform="matrix(1.333 0 0 -1.333 -18.9 321.3)" d="m59.63 66.13h-7.85v-7.857h7.85z" clip-path="url(#m)"/><path transform="matrix(1.333 0 0 -1.333 60.61 201.7)" d="m0 0v15.71h-7.85v-31.41h7.85v7.856z" clip-path="url(#l)"/><path transform="matrix(1.333 0 0 -1.333 -18.9 321.3)" d="m43.92 50.42h7.857v7.85h-7.857z" clip-path="url(#k)"/><path transform="matrix(1.333 0 0 -1.333 39.67 222.6)" d="m0 0v23.56h-7.85v-39.27h7.85v7.856z" clip-path="url(#j)"/></g><g fill="#00fa9a"><path transform="matrix(1.333 0 0 -1.333 -18.9 321.3)" d="m91.04 42.56h-7.85v-7.85h7.85z" clip-path="url(#i)"/><path transform="matrix(1.333 0 0 -1.333 -18.9 321.3)" d="m91.04 73.98h-7.85v-7.85h7.85z" clip-path="url(#h)"/><path transform="matrix(1.333 0 0 -1.333 -18.9 321.3)" d="m91.04 89.68h-7.85v-7.85h7.85z" clip-path="url(#g)"/><path transform="matrix(1.333 0 0 -1.333 -18.9 321.3)" d="m75.34 58.27h7.857v7.857h-7.857z" clip-path="url(#f)"/><path transform="matrix(1.333 0 0 -1.333 -18.9 321.3)" d="m75.34 73.98h7.857v7.857h-7.857z" clip-path="url(#e)"/><path transform="matrix(1.333 0 0 -1.333 -18.9 321.3)" d="m83.19 97.54h-7.857v-7.857h7.857z" clip-path="url(#d)"/><path transform="matrix(1.333 0 0 -1.333 -18.9 321.3)" d="m67.49 50.42h7.85v7.85h-7.85z" clip-path="url(#c)"/><path transform="matrix(1.333 0 0 -1.333 -18.9 321.3)" d="m67.49 66.13h7.85v7.85h-7.85z" clip-path="url(#b)"/><path transform="matrix(1.333 0 0 -1.333 -18.9 321.3)" d="m59.63 42.56h7.857v7.857h-7.857z" clip-path="url(#a)"/><path transform="matrix(1.333 0 0 -1.333 -18.9 321.3)" d="m59.63 58.27h7.857v7.857h-7.857z" clip-path="url(#ah)"/><path transform="matrix(1.333 0 0 -1.333 71.08 212.1)" d="m0 0h7.85v7.85h-7.85v15.71h-7.857v-31.41h7.857z" clip-path="url(#ag)"/><path transform="matrix(1.333 0 0 -1.333 -18.9 321.3)" d="m51.78 50.42h7.85v7.85h-7.85z" clip-path="url(#af)"/><path transform="matrix(1.333 0 0 -1.333 -18.9 321.3)" d="m43.92 42.56h7.857v7.857h-7.857z" clip-path="url(#ae)"/><path transform="matrix(1.333 0 0 -1.333 50.14 233.1)" d="m0 0h7.85v7.85h-7.85v31.41h-7.857v-47.12h7.857z" clip-path="url(#ad)"/><path transform="matrix(1.333 0 0 -1.333 39.67 285.5)" d="m39.27 0v7.857h-47.12v-7.857z" clip-path="url(#ac)"/><path transform="matrix(1.333 0 0 -1.333 -18.9 321.3)" d="m36.07 50.42h7.85v7.85h-7.85z" clip-path="url(#ab)"/><path transform="matrix(1.333 0 0 -1.333 18.72 264.5)" d="m0-7.85h7.857v15.71h-7.857z" clip-path="url(#aa)"/><path transform="matrix(1.333 0 0 -1.333 29.2 222.6)" d="m0 15.71h-7.857v-31.41h7.857z" clip-path="url(#z)"/></g></g></svg>
