<svg width="1602" height="833" fill="#00fa9a" version="1.1" viewBox="0 0 1602 833" xmlns="http://www.w3.org/2000/svg"><g transform="translate(-69 -119)">
	<path d="m801 924c-48 33-66-4-136-4-70 0-70 4-140 4-70 0-70 9.7-140 9.7-70 0-70-11-140-11-70 0-97 39-144 6.1-52-36-5.7-52-5.7-100s19-49 19-98c0-49-7.7-49-7.7-98 0-49-7.5-49-7.5-98 0-49 12-49 12-98 0-49-6.4-49-6.4-98 0-49 11-49 11-98 0-49-66-65-15-100 48-33 75-0.4 144-0.4 70 0 70 6.8 140 6.8 70 0 70-8.7 140-8.7 70 0 70 11 140 11 70 0 97-42 145-8.4 52 36-5.7 52-5.7 101 0 49-8.7 49-8.7 98 0 49 18 49 18 98 0 49 2.5 49 2.5 98 0 49 0.5 49 0.5 98 0 49-3.9 49-3.9 98 0 49-17 49-2.3 97 15 50 42 60-9.5 96z" fill="none" stroke="#fff" stroke-width="15"/><path d="m1633 926c-48 33-66-4-136-4-70 0-70 4-140 4-70 0-70 9.7-140 9.7-70 0-70-11-140-11-70 0-97 39-144 6.1-52-36-5.7-52-5.7-100s19-49 19-98c0-49-7.7-49-7.7-98 0-49-7.5-49-7.5-98 0-49 12-49 12-98 0-49-6.4-49-6.4-98 0-49 11-49 11-98 0-49-66-65-15-100 48-33 75-0.4 144-0.4 70 0 70 6.8 140 6.8 70 0 70-8.7 140-8.7 70 0 70 11 140 11 70 0 97-42 145-8.4 52 36-5.7 52-5.7 101 0 49-8.7 49-8.7 98 0 49 18 49 18 98 0 49 2.5 49 2.5 98 0 49 0.5 49 0.5 98 0 49-3.9 49-3.9 98 0 49-17 49-2.3 97 15 50 42 60-9.5 96z" fill="none" stroke="#fff" stroke-width="15"/><path d="m377 254 20-2.8 3.9-13-4.3-12-13 0.5-8.7-1.6 1.9 14zm-12-35 19-3.3 20 7.7 8.1 15-6.6 15-8.7 9.7h-13l-5.9-0.6-2.5 14-0.1 14-10 3-0.7-16 2-15 1.8-15-0.3-15z"/><path d="m424 253-0.2-15 6.9-1.8 2.3 9.9-2.7-0.5 16-11h0.6l2.8 8.8-3.7 0.7-12 12-2.4 4.5 2.7 14-1.2 13-9.1 1.3-0.6-18z"/><path d="m465 262 4 13 11 4.9 12-5.2 2.5-14-4.8-12-10-6.8-12 6.7zm42-1.8-2.7 14-9.2 12-15 2.6-14-2.4-11-9.9-2.1-14 2.4-14 11-9.4 13-7.1 14 4.6 9.4 10z"/><path d="m516 276 14 4.6 11-8.2-11-8.1-13-16 5.9-10 11-7.9 14 4.8-5 6.1-9.4-1.2-7 7 8.4 9.2 15 15-7.2 12-13 4.5-16-2.5z"/><path d="m1263 291-20 6.1-26-12-7.5-12-3.6-14 3.6-14 3.8-15 13-8.2 15-3.7 15 2.9-0.1 7.3-15-4.3-14 8.3-8.8 11-4.9 15 2.6 16 14 7.3 14 7.8 15-6.4z"/><path d="m1276 266 4 14 14 6.8 14-8.2-0.4-15-2.2-14-13-3.6-11 6zm42-2.7-3.1 13-8.5 10-13 3.9-14 0.9-8.3-12-6.2-13 2.8-15 10-11 14-2.7 14-0.1 10 11z"/><path d="m1330 251-0.5-14 8.8-1.1-0.1 8.6 18-8.6 14 5.1 4.1 15 2.8 16 2 16-12 0.3 2-16-1.6-15-14-15-12 11 1.5 4.3-2 16 1.2 16-11 1.6 0.5-20z"/><path d="m1392 278 12 3 8.8-9.3-25-23 6.9-11 12-4.5 12 1.7-1.3 6.5-10-0.5-7.2 6.1 8.8 9.4 15 14-6.7 11-12 6.4-15-3.6z"/><text x="160.69775" y="392.1748" fill="#ffffff" font-family="'Space Grotesk'" font-size="50px" letter-spacing="0px" stroke="#ffffff" stroke-dashoffset="41" stroke-linecap="square" stroke-miterlimit="5" stroke-width="0" word-spacing="0px" style="line-height:1.25;text-decoration-color:#000000" xml:space="preserve"><tspan x="160.69775" y="392.1748">- Chatting with friends</tspan><tspan x="160.69775" y="454.6748">- Watching funny videos</tspan><tspan x="160.69775" y="517.1748">- Learning things</tspan><tspan x="160.69775" y="579.6748">- …</tspan></text><text x="997.88269" y="394.79614" fill="#ffffff" font-family="'Space Grotesk'" font-size="50px" letter-spacing="0px" stroke="#ffffff" stroke-dashoffset="41" stroke-linecap="square" stroke-miterlimit="5" stroke-width="0" word-spacing="0px" style="line-height:1.25;text-decoration-color:#ffffff" xml:space="preserve"><tspan x="997.88269" y="394.79614">- Addiction</tspan><tspan x="997.88269" y="457.29614">- Losing focus</tspan><tspan x="997.88269" y="519.79614">- Hate speech</tspan><tspan x="997.88269" y="582.29614">- …</tspan></text></g>
</svg>
